<ttFont>
          <CharString index="0">
            456 72 rmoveto
            69 17 166 -2 callgsubr
            -1 -3 -52 callsubr
            rrcurveto
            -3 -1 -37 callsubr
            hhcurveto
            -7 hlineto
            -11 -6 -1 10 callsubr
            -6 -3 -9 -9 -13 -169 -4 -23 rlinecurve
            -61 -16 -62 -45 -49 hhcurveto
            -64 -64 56 154 36 3 42 9 49 hvcurveto
            149 24 90 153 96 hhcurveto
            44 49 -27 -97 -93 -80 -15 -20 -7 hvcurveto
            -8 -3 -5 -6 -4 vvcurveto
            -8 13 -8 27 38 57 18 53 37 vhcurveto
            20 31 8 31 29 vvcurveto
            107 -95 45 -67 -55 -53 -26 -26 -32 vhcurveto
            -70 -55 -121 -143 -226 vvcurveto
            -188 76 -96 103 47 35 21 31 32 vhcurveto
            17 17 20 24 16 33 rrcurveto
            -48 19 -63 60 34 28 26 32 24 vhcurveto
            13 callsubr
            4 vvcurveto
            5 -2 2 -4 vhcurveto
            -10 -15 -20 -20 hhcurveto
            -20 -19 17 44 hvcurveto
            return
          </CharString>
          <CharString index="1">
            38 330 170 rmoveto
            22 callgsubr
            -9 callgsubr
            -68 -26 -16 -40 -22 hhcurveto
            -11 -9 10 53 hvcurveto
            59 6 33 43 vvcurveto
            31 -5 8 -15 -12 -16 -9 -13 -9 vhcurveto
            -42 -25 -19 -173 -39 hhcurveto
            -19 0 36 47 45 1 37 7 41 hvcurveto
            1 7 0 -14 callgsubr
            7 -2 4 -3 vhcurveto
            -6 -21 -16 0 callsubr
            6 -4 hhcurveto
            -4 -4 -6 -7 -8 hvcurveto
            -47 callsubr
            -13 -1 -8 rrcurveto
            -10 -34 -2 -59 -28 vvcurveto
            -116 33 -20 27 38 26 36 116 30 vhcurveto
            -1 -13 0 -17 -16 vvcurveto
            -46 13 -59 47 54 20 60 116 42 vhcurveto
            return
          </CharString>
          <CharString index="2">
            rmoveto
            9 -7 46 -55 24 -42 rrcurveto
            -9 5 4 -3 7 hhcurveto
            -74 callgsubr
            5 4 hvcurveto
            51 67 25 22 11 14 rrcurveto
            3 4 -4 callgsubr
            -62 callgsubr
            -5 -37 callsubr
            -1 -3 vhcurveto
            -16 -5 -46 -28 -23 -23 -39 45 -36 9 -11 6 rrcurveto
            1 -3 -3 0 -48 callgsubr
            -2 -4 -78 callgsubr
            3 -3 hvcurveto
            endchar
          </CharString>
          <CharString index="3">
            1 2 0 -27 callsubr
            6 -2 3 -5 -5 -9 callgsubr
            -58 -24 -17 -50 -20 hhcurveto
            -10 -10 15 58 -8 hvcurveto
            7 -1 -2 3 -3 -10 -22 -70 -44 hhcurveto
            -19 -16 14 51 35 18 76 35 14 3 -25 -11 hvcurveto
            -15 -5 -19 -7 2 callgsubr
            -3 7 45 25 58 40 38 -18 11 -19 -29 -48 -26 -49 -41 vhcurveto
            -40 -49 -17 -49 -57 vvcurveto
            -51 27 -42 30 38 29 47 10 5 vhcurveto
            -39 callsubr
            1 hhcurveto
            1 1 -4 -1 1 hvcurveto
            -7 2 11 -49 32 hhcurveto
            return
          </CharString>
          <CharString index="4">
            144 436 -49 callsubr
            3 0 -27 callsubr
            5 -4 3 -4 -32 callsubr
            -28 -11 -19 -13 -24 hhcurveto
            -5 -6 1 1 -5 hvcurveto
            9 29 8 32 32 vvcurveto
            59 -27 33 -36 -29 -24 -34 -40 -17 4 -20 8 -17 vhcurveto
            11 -21 11 -17 11 -12 -8 -62 -22 -31 -13 -18 rrcurveto
            -27 40 -15 67 72 50 6 9 18 vvcurveto
            8 -4 4 -3 vhcurveto
            -7 -16 -16 -6 -3 -3 6 -4 hhcurveto
            -3 -47 callsubr
            -4 hvcurveto
            -8 -8 -12 -16 -53 vvcurveto
            -40 5 -30 5 -28 vhcurveto
            -11 -39 -14 -21 -11 -15 rrcurveto
            -27 40 -16 67 72 50 7 9 18 vvcurveto
            8 -4 4 -3 vhcurveto
            -8 -15 -16 -6 -3 -3 6 -4 hhcurveto
            -3 -47 callsubr
            -4 hvcurveto
            -8 -8 -12 -16 -53 vvcurveto
            -115 34 -58 17 -25 vhcurveto
            -9 7 5 -6 9 hhcurveto
            27 34 24 39 31 hvcurveto
            8 -23 10 -16 7 -9 rrcurveto
            -9 7 5 -6 9 hhcurveto
            38 58 51 72 32 hvcurveto
            -2 8 8 -1 8 hhcurveto
            33 28 23 37 13 hvcurveto
            -162 74 rmoveto
            13 0 19 12 9 4 -24 -33 -16 -1 -15 -1 -13 vhcurveto
            -15 21 -8 27 21 vvcurveto
            return
          </CharString>
          <CharString index="5">
            44 336 173 rmoveto
            1 1 15 callgsubr
            5 -2 2 -5 -6 -5 -4 -9 -4 vhcurveto
            -23 -67 -26 -50 -48 -40 6 96 rcurveline
            21 5 80 54 vvcurveto
            30 -6 5 -13 -11 -18 -9 -12 -8 vhcurveto
            -46 -27 -19 -168 -36 hhcurveto
            -19 -1 41 59 43 1 32 7 29 hvcurveto
            1 8 1 6 4 vvcurveto
            6 -2 3 -3 vhcurveto
            -8 -19 -15 -3 -5 -1 6 -5 hhcurveto
            -3 -23 callsubr
            -3 -3 7 callgsubr
            -7 rrcurveto
            -11 -32 -6 -53 -47 vvcurveto
            -116 32 -24 26 35 31 31 115 29 vhcurveto
            -1 -36 0 -45 -3 -39 -1 -15 0 -22 -3 -25 rrcurveto
            -58 -50 -67 -72 -88 vvcurveto
            -48 18 -33 29 11 14 4 8 16 vhcurveto
            29 16 49 32 21 158 9 94 rcurveline
            63 55 32 60 24 78 rrcurveto
            -200 -300 rmoveto
            -46 -4 -24 -120 -20 hhcurveto
            -4 -4 7 23 77 25 53 37 43 hvcurveto
            -1 -13 -2 -12 -3 -12 rrcurveto
            return
          </CharString>
          <CharString index="6">
            326 420 89 rmoveto
            -204 113 -91 91 -35 vhcurveto
            -1 4 4 -1 3 hhcurveto
            6 3 2 5 5 -4 3 -8 5 hvcurveto
            -89 73 -29 97 168 vvcurveto
            80 6 67 11 86 vhcurveto
            3 31 3 35 39 vvcurveto
            116 -29 127 -144 -3 -130 0 -180 -72 vhcurveto
            -1 55 -4 43 -1 32 -3 48 rcurveline
            19 -5 9 -9 -3 -5 -2 -3 -5 vhcurveto
            -11 -6 4 4 -23 -8 -8 -3 3 -11 -12 -9 -7 -7 -11 -7 1 -7 rrcurveto
            20 -114 1 -224 -52 vvcurveto
            -98 -34 -189 -4 -22 vhcurveto
            -6 vlineto
            -13 8 -5 12 5 6 1 3 6 vhcurveto
            17 9 36 -18 8 36 8 31 13 73 3 128 rrcurveto
            1 28 1 29 32 vvcurveto
            127 4 50 197 117 hhcurveto
            84 18 -84 -98 hvcurveto
            -110 -19 -102 -133 vvcurveto
            return
          </CharString>
          <CharString index="7">
            561 521 rmoveto
            96 -67 74 -105 -209 -148 -238 -229 -194 96 -91 108 71 61 43 70 35 vhcurveto
            -7 vlineto
            -112 -13 -32 -43 -52 vhcurveto
            -3 -4 -2 -2 -4 vvcurveto
            -4 -61 callsubr
            3 16 callgsubr
            vhcurveto
            101 56 26 102 49 vvcurveto
            3 69 13 109 5 33 -32 callgsubr
            8 -5 2 -5 -12 -12 -9 -8 -5 vhcurveto
            -1 -3 -52 callsubr
            rrcurveto
            -3 -1 21 callsubr
            hhcurveto
            -7 hlineto
            -12 -6 -3 -1 -5 hvcurveto
            -3 -1 21 callsubr
            -1 -8 -11 -6 -81 -8 -24 rrcurveto
            -55 -13 -54 -51 -61 hhcurveto
            -71 -80 60 167 220 101 175 121 59 64 -36 -93 -100 -72 -46 -21 -8 hvcurveto
            -9 15 callsubr
            vvcurveto
            -9 14 -4 15 33 71 30 62 35 vhcurveto
            19 33 9 34 35 vvcurveto
            return
          </CharString>
          <CharString index="8">
            286 308 696 rmoveto
            -110 -163 -89 -182 -133 93 -57 17 -8 hvcurveto
            -1 5 3 -1 -5 callgsubr
            2 5 6 callsubr
            -4 5 hvcurveto
            -13 20 -20 56 78 vvcurveto
            179 95 65 68 63 76 -42 -161 -274 -234 -57 -64 -24 vhcurveto
            -12 -5 -5 -4 19 callgsubr
            9 -4 11 vhcurveto
            13 54 12 42 hhcurveto
            58 48 -20 -80 3 hvcurveto
            4 -25 -28 3 -28 hhcurveto
            -61 -63 -12 -33 -57 hvcurveto
            -49 -28 -19 -39 -40 vvcurveto
            -64 56 -61 64 113 156 102 123 24 vhcurveto
            23 -5 rlineto
            -1 7 11 -2 25 callgsubr
            5 3 28 callgsubr
            3 hvcurveto
            -11 5 -15 6 -17 5 rrcurveto
            113 -105 35 -83 vhcurveto
            119 41 166 94 213 vvcurveto
            191 -113 60 -114 vhcurveto
            -194 -935 rmoveto
            -33 -10 16 17 47 79 63 83 19 hvcurveto
            5 28 32 3 29 hhcurveto
            27 hlineto
            -108 -20 -144 -62 -71 hhcurveto
            return
          </CharString>
          <CharString index="9">
            13 305 171 rmoveto
            1 -65 callsubr
            2 vvcurveto
            5 -3 2 -4 -7 -4 -4 -9 -3 vhcurveto
            -21 -55 -20 -53 -51 -46 -9 -11 -14 -9 -16 -12 -8 16 -11 13 -13 11 15 5 26 21 12 12 rrcurveto
            37 39 16 47 37 vvcurveto
            106 -62 18 -38 -72 -59 -69 -76 -56 39 -20 24 24 19 15 10 5 -5 4 -10 1 vhcurveto
            -15 -8 35 31 43 13 38 28 28 25 -34 -75 -23 -2 -35 -19 -27 hvcurveto
            -24 -38 -39 4 -18 vvcurveto
            -2 2 -4 4 -6 vhcurveto
            13 -19 8 -22 3 -25 rrcurveto
            -59 -48 -57 -67 -85 vvcurveto
            -48 16 -32 33 11 12 3 9 16 vhcurveto
            28 17 69 65 3 123 rrcurveto
            23 -3 26 -8 25 vhcurveto
            15 13 15 13 13 15 37 39 24 30 34 101 rrcurveto
            -246 -464 rmoveto
            -5 -6 8 24 81 27 46 34 40 hvcurveto
            -98 -31 -101 -19 vhcurveto
            return
          </CharString>
          <CharString index="10">
            rmoveto
            7 -48 callsubr
            -5 -4 -3 -7 -1 vhcurveto
            -27 -5 -37 -23 -45 hhcurveto
            -52 -11 39 14 -3 hvcurveto
            7 -4 2 -4 -11 -1 -14 -16 -36 16 -51 64 82 29 70 35 vhcurveto
            endchar
          </CharString>
          <CharString index="11">
            244 506 614 rmoveto
            19 -8 -55 65 -115 hhcurveto
            -154 -132 -129 -138 -79 46 -40 70 -32 hvcurveto
            131 -61 120 -9 -103 vvcurveto
            -53 -32 -43 -100 vhcurveto
            -119 -26 76 -32 hhcurveto
            -11 -7 -5 -11 -5 hvcurveto
            -8 -13 -12 2 -6 -9 rrcurveto
            -7 -12 -2 1 -8 vvcurveto
            -3 0 -5 3 -7 vhcurveto
            -21 10 55 -63 113 hhcurveto
            160 75 91 107 84 -59 61 -96 43 hvcurveto
            -98 43 -107 22 75 vvcurveto
            27 11 31 27 28 vhcurveto
            41 39 45 15 59 121 19 -57 32 hhcurveto
            11 9 5 11 5 hvcurveto
            5 12 15 -3 5 14 -41 callgsubr
            21 callgsubr
            7 vhcurveto
            return
          </CharString>
          <CharString index="12">
            15 -5 5 -17 -120 -217 -138 -178 -147 125 -29 61 16 7 5 5 -72 callsubr
            -2 2 vhcurveto
            -16 16 -98 38 126 vvcurveto
            114 75 80 100 3 3 -2 -5 vhcurveto
            -10 -5 -43 -30 vvcurveto
            -16 -280 -4 -75 -1 -21 -3 -20 -4 -17 rlinecurve
            8 -29 -34 4 -33 hhcurveto
            -53 -58 -12 -33 -59 hvcurveto
            -48 -27 -20 -41 -39 vvcurveto
            -66 52 -60 71 17 17 2 5 18 vhcurveto
            103 24 92 72 37 119 rrcurveto
            -1 7 5 -1 1 hhcurveto
            7 3 0 callgsubr
            -3 3 -6 3 hvcurveto
            -9 3 7 24 5 27 1 29 rlinecurve
            16 254 12 266 9 vvcurveto
            -345 -793 rmoveto
            -41 -18 15 23 46 80 64 82 19 hvcurveto
            7 32 29 3 28 9 9 -1 8 hhcurveto
            -130 -42 -110 -46 -66 hhcurveto
            return
          </CharString>
          <CharString index="13">
            rmoveto
            -3 5 -25 40 -2 -63 callsubr
            -1 -1 1 -19 callgsubr
            -2 -77 callgsubr
            hvcurveto
            -41 -38 rlineto
            -3 -77 callgsubr
            -3 vvcurveto
            -3 2 -59 callsubr
            return
          </CharString>
          <CharString index="14">
            430 342 669 rmoveto
            1 7 1 -14 callgsubr
            6 -48 callsubr
            vhcurveto
            -7 -7 -8 -7 -7 -8 -15 -9 -1 0 1 -5 hhcurveto
            -21 -15 -8 -21 -1 hvcurveto
            -17 -318 rlineto
            25 -48 -46 15 -39 hhcurveto
            -48 -40 -25 -59 -59 57 -54 105 16 17 1 3 17 hvcurveto
            -7 -107 -3 -61 -3 -35 -3 -43 rcurveline
            -3 -71 -36 -25 -14 -9 rrcurveto
            -5 -4 -3 -6 -5 vvcurveto
            -5 2 -5 7 4 3 2 1 4 vhcurveto
            108 55 18 84 5 50 3 17 4 84 8 104 7 1 6 2 8 3 59 -45 42 -34 74 -74 rrcurveto
            -42 42 17 -23 16 hhcurveto
            15 8 6 17 1 hvcurveto
            2 5 10 138 11 149 24 9 15 6 4 3 rrcurveto
            7 4 2 8 18 callgsubr
            28 callgsubr
            -1 -4 -1 -2 -5 vhcurveto
            -4 -3 -11 -3 -17 -5 rrcurveto
            16 183 13 195 12 vvcurveto
            11 -6 5 -8 -9 -15 -15 -3 -13 vhcurveto
            -10 -5 2 -12 -15 -2 -14 -3 0 -7 -3 -19 -25 -366 rcurveline
            -60 -17 -71 -19 -67 -16 -30 22 rcurveline
            12 182 14 210 8 vvcurveto
            46 -453 rmoveto
            56 19 53 16 45 15 -12 -171 rcurveline
            -48 48 -46 36 -48 37 rrcurveto
            -181 9 rmoveto
            -71 -30 27 25 19 13 10 23 20 29 -8 -23 37 hvcurveto
            -3 -50 rlineto
            return
          </CharString>
          <CharString index="15">
            241 590 665 rmoveto
            1 5 4 -67 callgsubr
            10 -8 17 -104 -55 -79 -4 -13 -69 vhcurveto
            -147 -16 -121 -105 -111 vvcurveto
            -117 95 -24 25 17 8 3 7 3 -2 -78 callsubr
            -17 17 -53 61 64 vvcurveto
            105 194 30 156 vhcurveto
            47 39 -3 16 hhcurveto
            17 17 11 15 1 hvcurveto
            3 13 15 5 3 13 rrcurveto
            -215 -85 rmoveto
            15 0 11 -5 -8 -16 -24 -5 -23 vhcurveto
            -23 -5 -8 -21 -1 -29 -11 -242 -7 -142 -3 -80 -3 -102 rcurveline
            -6 0 -13 5 10 14 19 3 23 vhcurveto
            28 5 4 17 15 50 24 517 17 vvcurveto
            return
          </CharString>
          <CharString index="16">
            -93 callgsubr
            -247 -51 rmoveto
            5 -5 5 -7 -12 -36 -4 -5 -49 vhcurveto
            5 79 10 94 21 87 rrcurveto
            1 7 -15 callsubr
            vvcurveto
            7 -12 3 -4 -16 -11 -9 -15 -7 vhcurveto
            -16 callgsubr
            -19 -10 -87 -8 -91 -80 -7 rcurveline
            -11 -1 -4 -4 -1 -7 rrcurveto
            -5 -13 -1 4 -10 vvcurveto
            -7 0 -4 4 -3 vhcurveto
            -3 3 41 -2 50 hhcurveto
            -1 -20 -2 -20 -17 vvcurveto
            -4 -65 -1 -50 -24 -71 callgsubr
            12 12 -16 16 hhcurveto
            12 -1 19 callsubr
            20 1 36 65 vvcurveto
            19 1 33 1 40 vhcurveto
            91 3 20 11 12 vvcurveto
            8 vlineto
            9 1 2 9 vvcurveto
            -61 callgsubr
            1 3 vhcurveto
            endchar
          </CharString>
          <CharString index="17">
            360 -59 callgsubr
            -5 -116 -6 -84 -3 -59 rrcurveto
            -35 -11 -23 -16 -15 vvcurveto
            -8 12 -10 31 vhcurveto
            10 hlineto
            -1 -12 -1 -10 -5 vvcurveto
            -1 -4 0 -3 -2 vvcurveto
            -5 -104 -12 -45 -45 -48 rrcurveto
            -4 -79 callsubr
            5 -65 callsubr
            vhcurveto
            101 59 28 97 5 51 4 58 rcurveline
            1 0 0 1 vhcurveto
            110 -49 -11 -146 96 -104 rrcurveto
            -71 63 92 -18 62 hhcurveto
            12 13 1 7 4 -5 3 -10 3 hvcurveto
            -103 29 -55 98 -46 89 -59 107 -50 55 -42 21 17 8 18 9 19 11 rrcurveto
            203 118 25 263 34 vvcurveto
            16 -18 -10 -8 11 vhcurveto
            -11 8 4 11 -11 5 -9 5 -10 -4 -16 8 rrcurveto
            2 -5 -5 1 -3 hhcurveto
            -9 -6 -13 -12 hvcurveto
            -9 2 -23 -16 vvcurveto
            -164 -88 -167 -154 -76 vhcurveto
            -1 hlineto
            8 125 6 185 4 11 rrcurveto
            39 5 56 9 vvcurveto
            return
          </CharString>
          <CharString index="18">
            1 2 0 2 -73 callsubr
            -3 3 return
          </CharString>
          <CharString index="19">
            77 352 170 rmoveto
            22 callgsubr
            -6 -76 callgsubr
            vhcurveto
            -68 -28 -15 -40 -20 hhcurveto
            -11 -9 10 53 hvcurveto
            59 6 33 43 vvcurveto
            31 -5 8 -15 -12 -16 -9 -13 -9 vhcurveto
            -42 -25 -19 -173 -39 hhcurveto
            -19 0 36 47 45 1 37 7 41 hvcurveto
            7 1 -14 callgsubr
            7 -2 4 -3 vhcurveto
            -6 -21 -16 0 callsubr
            6 -4 hhcurveto
            -4 -4 -6 -7 -8 hvcurveto
            -47 callsubr
            -13 -1 -8 -5 -20 -3 -27 -3 -24 rrcurveto
            -8 -64 -6 -149 -58 vvcurveto
            -21 0 -14 1 -7 vhcurveto
            -15 3 5 -5 7 hhcurveto
            1 2 0 1 2 hvcurveto
            4 9 5 0 7 hhcurveto
            1 hlineto
            5 -1 8 7 hhcurveto
            3 hlineto
            7 5 8 9 4 -1 -51 callgsubr
            hvcurveto
            -3 12 -9 52 -5 49 rrcurveto
            -4 7 8 -2 8 hhcurveto
            38 26 36 116 30 hvcurveto
            -1 -13 0 -17 -16 vvcurveto
            -17 1 -16 1 -13 vhcurveto
            -38 5 33 -21 28 hhcurveto
            41 25 60 116 42 hvcurveto
            endchar
          </CharString>
          <CharString index="20">
            23 309 -33 callgsubr
            -3 hvcurveto
            -53 -21 -25 -54 -24 hhcurveto
            -25 -27 18 44 -24 hvcurveto
            -12 21 -5 12 11 vvcurveto
            9 5 7 7 9 vhcurveto
            7 11 55 61 7 7 rrcurveto
            9 callgsubr
            -67 callgsubr
            6 -6 16 -8 -5 12 callgsubr
            -10 vhcurveto
            -19 -16 -1 -13 -5 -7 -7 -8 -21 -21 -23 -29 -14 -19 -5 -7 -13 -21 rrcurveto
            3 vlineto
            21 2 29 1 25 vhcurveto
            19 281 24 105 21 vvcurveto
            15 -5 4 -8 -11 -19 -18 -17 -19 vhcurveto
            -15 -15 -3 -17 -5 -49 rrcurveto
            -16 -133 -16 -135 -152 vvcurveto
            -32 1 -35 1 -29 vhcurveto
            -31 20 -9 12 20 2 17 2 9 vhcurveto
            5 1 8 1 7 vvcurveto
            10 -4 9 -3 77 vhcurveto
            -112 51 58 -6 15 hhcurveto
            46 36 78 97 35 hvcurveto
            -80 callsubr
            return
          </CharString>
          <CharString index="21">
            66 214 454 rmoveto
            13 -3 -4 6 -8 -4 -10 -5 -7 -1 -3 1 -3 -7 -15 -10 -9 -1 -1 1 -1 hhcurveto
            12 callgsubr
            -9 -4 1 -3 1 -2 hvcurveto
            4 -9 3 -28 3 -37 rrcurveto
            1 -45 -29 3 -67 callsubr
            2 -4 40 -8 57 -3 rrcurveto
            -17 vlineto
            -39 -1 -23 -7 vvcurveto
            -11 3 -6 5 -2 vhcurveto
            -3 8 6 0 4 hhcurveto
            7 6 1 11 3 hvcurveto
            3 13 7 27 9 55 rrcurveto
            88 12 14 11 hvcurveto
            11 vlineto
            1 8 2 -15 callsubr
            -1 7 18 callgsubr
            0 1 -24 callsubr
            4 -7 -10 -11 -7 -3 -59 vhcurveto
            3 29 1 24 17 11 -1 7 5 vvcurveto
            return
          </CharString>
          <CharString index="22">
            311 -45 callgsubr
            -70 -27 -17 -39 -20 hhcurveto
            -21 -5 34 46 68 9 114 13 108 hvcurveto
            13 97 20 84 5 19 -58 callgsubr
            1 -67 callgsubr
            9 -5 4 -8 -7 -11 -7 -16 -16 vhcurveto
            -18 -18 -13 -3 -8 -20 -15 -31 -6 -35 -13 -101 -5 -40 -2 -35 -3 -32 rrcurveto
            -8 hlineto
            -24 -32 -15 -32 -32 hvcurveto
            -38 -38 -26 -67 -69 vvcurveto
            -64 25 -45 35 46 28 44 42 22 vhcurveto
            -67 8 28 -18 28 hhcurveto
            35 18 22 35 17 hvcurveto
            15 29 15 41 17 51 -32 callgsubr
            5 -3 3 -4 vhcurveto
            -175 76 rmoveto
            -3 -24 0 -45 -45 vvcurveto
            -29 -3 -11 -42 -31 hhcurveto
            -28 -13 32 41 80 34 53 37 12 6 -7 -14 hvcurveto
            return
          </CharString>
          <CharString index="23">
            4 callsubr
            1 5 5 vvcurveto
            8 -2 7 -12 vhcurveto
            -10 4 7 -13 -8 -1 7 callgsubr
            28 callgsubr
            hhcurveto
            -8 -8 -10 -25 -11 hvcurveto
            -43 -97 -240 -466 -55 -77 rrcurveto
            -5 -7 -6 -7 19 callgsubr
            7 -3 12 9 17 3 9 11 vhcurveto
            35 28 326 570 14 63 rrcurveto
            return
          </CharString>
          <CharString index="24">
            -72 callsubr
            vhcurveto
            return
          </CharString>
          <CharString index="25">
            -1 -47 callgsubr
            -2 -53 callgsubr
            -2 return
          </CharString>
          <CharString index="26">
            rrcurveto
            3 -2 -2 return
          </CharString>
          <CharString index="27">
            -89 callsubr
            -4 vhcurveto
            return
          </CharString>
          <CharString index="28">
            -4 -2 -3 -31 callsubr
            -2 5 3 return
          </CharString>
          <CharString index="29">
            3 -3 3 vhcurveto
            return
          </CharString>
          <CharString index="30">
            8 5 2 -70 callgsubr
            return
          </CharString>
          <CharString index="31">
            31 callgsubr
            -4 hvcurveto
            -7 -7 -37 -41 -5 -8 rrcurveto
            -3 -5 -2 -4 -3 vvcurveto
            -8 17 -38 16 -30 vhcurveto
            -5 3 2 -1 4 hhcurveto
            return
          </CharString>
          <CharString index="32">
            -42 callsubr
            -8 -20 -8 -3 -54 vhcurveto
            3 105 1 79 5 vvcurveto
            15 0 11 -5 -14 0 -25 -5 -23 vhcurveto
            -23 -5 -8 -17 -1 -32 -3 -132 rcurveline
            -31 1 -27 2 -9 1 rrcurveto
            1 -4 -3 0 14 callgsubr
            -9 -9 -3 hvcurveto
            -3 -12 -1 -13 -7 vvcurveto
            -8 1 -5 -12 callsubr
            3 -4 36 -7 55 -3 return
          </CharString>
          <CharString index="33">
            14 228 219 rmoveto
            -8 -9 -11 -69 -41 -27 4 -3 hhcurveto
            -11 -2 -4 -7 -3 hvcurveto
            -5 -15 -1 -16 -7 vvcurveto
            -8 1 -5 -12 callsubr
            -4 2 46 -12 59 hhcurveto
            69 9 13 12 1 0 7 1 20 callgsubr
            8 2 1 5 5 -2 6 18 callgsubr
            -39 callsubr
            vhcurveto
            3 vlineto
            5 -6 4 -7 vhcurveto
            endchar
          </CharString>
          <CharString index="34">
            3 vvcurveto
            5 return
          </CharString>
          <CharString index="35">
            2 -1 2 return
          </CharString>
          <CharString index="36">
            rmoveto
            1 3 0 5 5 vvcurveto
            8 -1 7 -12 vhcurveto
            -10 3 7 -12 -8 -2 -4 -4 -1 -4 4 -5 hhcurveto
            -9 -7 -10 -25 -12 hvcurveto
            -38 -97 -245 -467 -54 -76 rrcurveto
            -5 32 callgsubr
            16 3 9 11 vhcurveto
            35 28 326 570 14 63 rrcurveto
            return
          </CharString>
          <CharString index="37">
            1 1 3 return
          </CharString>
          <CharString index="38">
            -2 -3 -3 return
          </CharString>
          <CharString index="39">
            -61 callgsubr
            3 vvcurveto
            return
          </CharString>
          <CharString index="40">
            14 callgsubr
            -4 -7 -3 hvcurveto
            -4 -15 -2 -16 -7 vvcurveto
            -8 1 -5 -12 callsubr
            return
          </CharString>
          <CharString index="41">
            -2 3 -3 3 return
          </CharString>
          <CharString index="42">
            3 1 3 return
          </CharString>
          <CharString index="43">
            rrcurveto
            -3 3 -29 callsubr
            hhcurveto
            return
          </CharString>
          <CharString index="44">
            7 rrcurveto
            3 return
          </CharString>
          <CharString index="45">
            185 rmoveto
            return
          </CharString>
          <CharString index="46">
            2 -2 5 return
          </CharString>
          <CharString index="47">
            -72 callgsubr
            2 return
          </CharString>
          <CharString index="48">
            -78 callgsubr
            vhcurveto
            return
          </CharString>
          <CharString index="49">
            -2 -3 vvcurveto
            return
          </CharString>
          <CharString index="50">
            -62 -10 -81 -43 -29 -22 37 53 vhcurveto
            89 60 28 16 vvcurveto
            9 -3 4 -7 -8 -9 -5 -12 -19 vhcurveto
            -50 -31 -33 -56 -59 vvcurveto
            -101 61 -14 35 104 45 133 94 return
          </CharString>
          <CharString index="51">
            -1 3 3 return
          </CharString>
          <CharString index="52">
            170 rmoveto
            return
          </CharString>
          <CharString index="53">
            1 -20 callsubr
            return
          </CharString>
          <CharString index="54">
            rmoveto
            -46 -8 -19 -120 -21 hhcurveto
            -5 -6 10 25 77 28 51 35 40 hvcurveto
            return
          </CharString>
          <CharString index="55">
            -1 -14 callsubr
            return
          </CharString>
          <CharString index="56">
            9 -20 callgsubr
            11 -50 callgsubr
            return
          </CharString>
          <CharString index="57">
            5 -54 callgsubr
            return
          </CharString>
          <CharString index="58">
            -55 callsubr
            1 return
          </CharString>
          <CharString index="59">
            -3 3 -5 return
          </CharString>
          <CharString index="60">
            -3 -4 -4 return
          </CharString>
          <CharString index="61">
            -2 2 -3 21 callsubr
            -2 -2 hvcurveto
            return
          </CharString>
          <CharString index="62">
            rrcurveto
            4 8 return
          </CharString>
          <CharString index="63">
            3 3 5 return
          </CharString>
          <CharString index="64">
            4 4 2 return
          </CharString>
          <CharString index="65">
            -33 callsubr
            -6 5 -7 return
          </CharString>
          <CharString index="66">
            vvcurveto
            -1 0 -1 1 -1 vhcurveto
            3 return
          </CharString>
          <CharString index="67">
            -4 -76 callgsubr
            vhcurveto
            return
          </CharString>
          <CharString index="68">
            1 -70 callsubr
            return
          </CharString>
          <CharString index="69">
            4 -1 5 3 vvcurveto
            4 2 6 1 5 vhcurveto
            -30 callsubr
            4 1 1 5 3 3 11 4 9 rrcurveto
            return
          </CharString>
          <CharString index="70">
            -3 -2 -1 return
          </CharString>
          <CharString index="71">
            -64 callsubr
            4 4 return
          </CharString>
          <CharString index="72">
            -19 vhcurveto
            -1 -3 -1 return
          </CharString>
          <CharString index="73">
            -27 -20 -16 -27 hvcurveto
            -29 -6 17 -8 hhcurveto
            -3 -2 return
          </CharString>
          <CharString index="74">
            -57 callgsubr
            5 return
          </CharString>
          <CharString index="75">
            -5 -40 callsubr
            return
          </CharString>
          <CharString index="76">
            -3 -53 callgsubr
            return
          </CharString>
          <CharString index="77">
            1 5 1 return
          </CharString>
          <CharString index="78">
            3 -2 3 return
          </CharString>
          <CharString index="79">
            rmoveto
            -3 6 return
          </CharString>
          <CharString index="80">
            2 2 vvcurveto
            return
          </CharString>
          <CharString index="81">
            2 rlineto
            -9 -4 -3 -12 -3 hvcurveto
            -4 -12 -1 -17 -5 vvcurveto
            -7 1 -4 -12 callsubr
            return
          </CharString>
          <CharString index="82">
            5 -1 6 -50 callsubr
            return
          </CharString>
          <CharString index="83">
            1 3 vhcurveto
            -33 callsubr
            -6 return
          </CharString>
          <CharString index="84">
            -2 7 callgsubr
            hvcurveto
            return
          </CharString>
          <CharString index="85">
            -69 callsubr
            vvcurveto
            return
          </CharString>
          <CharString index="86">
            3 11 callsubr
            return
          </CharString>
          <CharString index="87">
            8 vvcurveto
            3 return
          </CharString>
          <CharString index="88">
            vvcurveto
            4 -2 return
          </CharString>
          <CharString index="89">
            3 vhcurveto
            20 return
          </CharString>
          <CharString index="90">
            hhcurveto
            -11 -2 -5 -4 -3 hvcurveto
            -5 -8 -1 -9 -4 vvcurveto
            -8 1 -5 -12 callsubr
            return
          </CharString>
          <CharString index="91">
            -5 -4 -4 return
          </CharString>
          <CharString index="92">
            1 4 5 return
          </CharString>
          <CharString index="93">
            -1 -1 -1 return
          </CharString>
          <CharString index="94">
            rrcurveto
            1 3 0 return
          </CharString>
          <CharString index="95">
            2 -1 vhcurveto
            return
          </CharString>
          <CharString index="96">
            -3 6 -28 44 -3 8 -81 callsubr
            2 -9 callsubr
            -1 -2 -3 return
          </CharString>
          <CharString index="97">
            -5 8 13 rrcurveto
            4 return
          </CharString>
          <CharString index="98">
            -3 hhcurveto
            -5 return
          </CharString>
          <CharString index="99">
            -3 -3 hvcurveto
            return
          </CharString>
          <CharString index="100">
            -44 9 callsubr
            -2 -3 -4 vvcurveto
            -3 2 -3 3 -4 -29 callgsubr
            return
          </CharString>
          <CharString index="101">
            -50 callsubr
            1 return
          </CharString>
          <CharString index="102">
            5 3 5 return
          </CharString>
          <CharString index="103">
            -3 -2 1 return
          </CharString>
          <CharString index="104">
            -5 -3 vhcurveto
            -20 -13 -16 -10 -20 -43 -32 40 -42 hhcurveto
            -58 -24 return
          </CharString>
          <CharString index="105">
            -15 -8 -35 callsubr
            -3 -1 vvcurveto
            -4 1 -2 3 2 return
          </CharString>
          <CharString index="106">
            hvcurveto
            35 48 24 61 11 vvcurveto
            5 -3 3 -4 -5 -6 -4 -8 return
          </CharString>
          <CharString index="107">
            -4 -4 -2 return
          </CharString>
          <CharString index="108">
            5 3 1 return
          </CharString>
          <CharString index="109">
            rrcurveto
            1 9 6 15 9 vvcurveto
            5 21 callgsubr
            1 vhcurveto
            2 return
          </CharString>
          <CharString index="110">
            8 5 3 -70 callgsubr
            endchar
          </CharString>
          <CharString index="111">
            661 rmoveto
            1 3 return
          </CharString>
          <CharString index="112">
            9 vvcurveto
            9 return
          </CharString>
          <CharString index="113">
            4 -2 4 return
          </CharString>
          <CharString index="114">
            -1 -3 -2 -4 hhcurveto
            -8 -1 -7 -5 -1 -13 -3 -8 return
          </CharString>
          <CharString index="115">
            vvcurveto
            -44 33 -31 39 vhcurveto
            endchar
          </CharString>
          <CharString index="116">
            rlineto
            -3 -3 return
          </CharString>
          <CharString index="117">
            -3 -4 hvcurveto
            return
          </CharString>
          <CharString index="118">
            0 2 1 return
          </CharString>
          <CharString index="119">
            -11 1 -21 -3 -19 vhcurveto
            -24 -5 -3 -25 -14 vvcurveto
            return
          </CharString>
          <CharString index="120">
            3 -44 callsubr
            return
          </CharString>
          <CharString index="121">
            rrcurveto
            -3 2 2 return
          </CharString>
          <CharString index="122">
            -5 16 callsubr
            return
          </CharString>
          <CharString index="123">
            -3 -3 -5 return
          </CharString>
          <CharString index="124">
            vhcurveto
            -132 return
          </CharString>
          <CharString index="125">
            hhcurveto
            9 8 return
          </CharString>
          <CharString index="126">
            15 5 hvcurveto
            return
          </CharString>
          <CharString index="127" raw="1">
            8d8f8f0b   
          </CharString>
          <CharString index="128">
            -2 -2 -1 return
          </CharString>
          <CharString index="129">
            -2 -27 callgsubr
            hhcurveto
            -3 31 callgsubr
            -4 hvcurveto
            return
          </CharString>
          <CharString index="130">
            -73 callgsubr
            -5 return
          </CharString>
          <CharString index="131">
            -62 callgsubr
            -3 return
          </CharString>
          <CharString index="132">
            11 4 5 5 4 return
          </CharString>
          <CharString index="133">
            vvcurveto
            -11 -1 return
          </CharString>
          <CharString index="134">
            3 7 3 return
          </CharString>
          <CharString index="135">
            9 -20 8 return
          </CharString>
          <CharString index="136">
            vvcurveto
            -7 3 return
          </CharString>
          <CharString index="137">
            hvcurveto
            8 5 return
          </CharString>
          <CharString index="138">
            vvcurveto
            -15 5 -5 11 -3 vhcurveto
            68 -24 107 return
          </CharString>
          <CharString index="139">
            10 vvcurveto
            7 -3 4 -7 -27 -59 -38 -60 return
          </CharString>
        <CharString name=".notdef">
          -26 endchar
        </CharString>
        <CharString name="A">
          -107 callsubr
          endchar
        </CharString>
        <CharString name="AE">
          657 739 696 rmoveto
          -88 -82 -45 -61 -53 hvcurveto
          75 -21 -76 34 -59 hhcurveto
          -55 -53 -26 -26 -32 hvcurveto
          -70 -55 -121 -143 -226 vvcurveto
          -188 76 -96 103 59 43 43 63 32 vhcurveto
          -49 5 20 -42 52 hhcurveto
          28 25 18 23 20 hvcurveto
          -40 32 60 -17 50 hhcurveto
          87 81 53 66 45 -1 callsubr
          -3 vhcurveto
          -15 -36 -13 -24 -9 -13 rrcurveto
          -60 -41 -65 -37 -79 hhcurveto
          -69 -48 43 52 78 92 28 37 13 hvcurveto
          26 8 28 9 20 5 -2 5 5 11 5 11 5 callsubr
          -4 28 callsubr
          vhcurveto
          -43 19 -104 39 -31 39 rrcurveto
          -11 13 -5 15 17 vvcurveto
          29 15 32 29 27 vhcurveto
          32 33 38 16 52 143 18 -71 33 hhcurveto
          10 7 5 10 5 hvcurveto
          8 13 13 -5 8 13 rrcurveto
          5 8 4 -54 callsubr
          1 5 -3 5 vhcurveto
          23 -10 -55 74 -129 hhcurveto
          -318 -624 rmoveto
          69 11 110 -2 callgsubr
          -3 -6 rlineto
          -3 -1 -37 callsubr
          -3 -3 1 -1 hhcurveto
          -11 -6 -1 10 callsubr
          -6 -3 -10 -10 -5 -111 -4 -24 rlinecurve
          -61 -16 -29 -45 -48 hhcurveto
          -64 -64 56 154 36 3 42 9 49 hvcurveto
          149 24 90 153 96 hhcurveto
          44 49 -27 -97 -93 -80 -15 -20 -7 hvcurveto
          -8 -3 -5 -6 -4 vvcurveto
          -8 13 -8 27 25 38 8 24 32 vhcurveto
          5 -59 41 -36 59 -32 rrcurveto
          40 -21 41 -10 -9 -16 -183 -13 -143 vvcurveto
          -24 6 -21 11 -18 vhcurveto
          -3 -5 -6 -1 -6 hhcurveto
          -19 -20 17 44 hvcurveto
          endchar
        </CharString>
        <CharString name="AEacute">
          657 739 696 rmoveto
          -88 -82 -45 -61 -53 hvcurveto
          75 -21 -76 34 -59 hhcurveto
          -55 -53 -26 -26 -32 hvcurveto
          -70 -55 -121 -143 -226 vvcurveto
          -188 76 -96 103 59 43 43 63 32 vhcurveto
          -49 5 20 -42 52 hhcurveto
          28 25 18 23 20 hvcurveto
          -40 32 60 -17 50 hhcurveto
          87 81 53 66 45 -1 callsubr
          -3 vhcurveto
          -15 -36 -13 -24 -9 -13 rrcurveto
          -60 -41 -65 -37 -79 hhcurveto
          -69 -48 43 52 78 92 28 37 13 hvcurveto
          26 8 28 9 20 5 -2 5 5 11 5 11 5 callsubr
          -4 28 callsubr
          vhcurveto
          -43 19 -104 39 -31 39 rrcurveto
          -11 13 -5 15 17 vvcurveto
          29 15 32 29 27 vhcurveto
          32 33 38 16 52 143 18 -71 33 hhcurveto
          10 7 5 10 5 hvcurveto
          8 13 13 -5 8 13 rrcurveto
          5 8 4 -54 callsubr
          1 5 -3 5 vhcurveto
          23 -10 -55 74 -129 hhcurveto
          -318 -624 rmoveto
          69 11 110 -2 callgsubr
          -3 -6 rlineto
          -3 -1 -37 callsubr
          -3 -3 1 -1 hhcurveto
          -11 -6 -1 10 callsubr
          -6 -3 -10 -10 -5 -111 -4 -24 rlinecurve
          -61 -16 -29 -45 -48 hhcurveto
          -64 -64 56 154 36 3 42 9 49 hvcurveto
          149 24 90 153 96 hhcurveto
          44 49 -27 -97 -93 -80 -15 -20 -7 hvcurveto
          -8 -3 -5 -6 -4 vvcurveto
          -8 13 -8 27 25 38 8 24 32 vhcurveto
          5 -59 41 -36 59 -32 rrcurveto
          40 -21 41 -10 -9 -16 -183 -13 -143 vvcurveto
          -24 6 -21 11 -18 vhcurveto
          -3 -5 -6 -1 -6 hhcurveto
          -19 -20 17 44 hvcurveto
          210 767 rmoveto
          -9 8 -4 1 -7 5 -107 callgsubr
          endchar
        </CharString>
        <CharString name="Aacute">
          -107 callsubr
          -8 771 rmoveto
          -9 8 -4 1 -7 5 -107 callgsubr
          endchar
        </CharString>
        <CharString name="Abreve">
          -107 callsubr
          16 782 -97 callsubr
        </CharString>
        <CharString name="Acircumflex">
          -107 callsubr
          7 682 rmoveto
          -8 8 -46 54 -24 42 rrcurveto
          9 -5 -4 3 -7 hhcurveto
          -5 -4 -3 -5 -5 hvcurveto
          -51 -67 -24 -23 -11 -13 rrcurveto
          -3 -4 -2 -3 -31 callsubr
          -2 5 2 3 -70 callsubr
          vhcurveto
          15 6 46 26 24 24 38 -43 37 -13 11 -3 rrcurveto
          -1 3 -51 callgsubr
          hhcurveto
          -74 callgsubr
          3 2 -66 callsubr
          hvcurveto
          endchar
        </CharString>
        <CharString name="Adieresis">
          -107 callsubr
          -108 732 -94 callsubr
          4 -7 6 -13 8 -12 rrcurveto
          -8 5 2 -7 7 hhcurveto
          -74 callgsubr
          4 5 hvcurveto
          9 5 6 8 15 11 rrcurveto
          7 -43 callsubr
          7 vvcurveto
          2 0 -83 callsubr
          124 hmoveto
          -3 5 -25 40 -2 -63 callsubr
          -1 -1 1 -19 callgsubr
          -2 -77 callgsubr
          hvcurveto
          -41 -38 rlineto
          -3 -77 callgsubr
          -3 vvcurveto
          -3 2 -59 callsubr
          4 -7 6 -13 8 -12 rrcurveto
          -8 5 2 -7 7 hhcurveto
          -74 callgsubr
          4 5 hvcurveto
          9 5 6 8 15 11 rrcurveto
          7 -43 callsubr
          7 vvcurveto
          2 0 -83 callsubr
          endchar
        </CharString>
        <CharString name="Agrave">
          -107 callsubr
          -66 683 rmoveto
          -7 9 -34 42 -13 56 rrcurveto
          7 -2 -48 callsubr
          hhcurveto
          -4 -2 -16 callsubr
          hvcurveto
          -4 -4 callsubr
          -4 -3 rrcurveto
          -20 -13 -4 -4 -9 vvcurveto
          -19 36 -42 62 -30 vhcurveto
          -1 2 2 0 1 hhcurveto
          4 -44 callsubr
          -60 callsubr
          hvcurveto
          endchar
        </CharString>
        <CharString name="Amacron">
          -107 callsubr
          18 774 -101 callgsubr
        </CharString>
        <CharString name="Aogonek">
          470 -213 rmoveto
          61 15 61 9 5 -2 2 -3 21 callsubr
          -3 -2 hvcurveto
          -13 -11 -10 -18 -24 hhcurveto
          -21 -24 16 40 71 50 3 45 53 hvcurveto
          13 callsubr
          4 vvcurveto
          5 -2 2 -4 vhcurveto
          -10 -15 -20 -20 hhcurveto
          -20 -19 17 44 69 17 166 8 31 hvcurveto
          13 callgsubr
          -1 -3 -52 callsubr
          rrcurveto
          -3 -1 -37 callsubr
          hhcurveto
          -7 hlineto
          -11 -6 -1 10 callsubr
          -6 -3 -9 -9 -13 -169 -4 -23 rlinecurve
          -61 -16 -62 -45 -49 hhcurveto
          -64 -64 56 154 36 3 42 9 49 hvcurveto
          149 24 90 153 96 hhcurveto
          44 49 -27 -97 -93 -80 -15 -20 -7 hvcurveto
          -8 -3 -5 -6 -4 vvcurveto
          -8 13 -8 27 38 57 18 53 37 vhcurveto
          20 31 8 31 29 vvcurveto
          107 -95 45 -67 -55 -53 -26 -26 -32 vhcurveto
          -70 -55 -121 -143 -226 vvcurveto
          -188 76 -96 103 47 35 21 31 32 vhcurveto
          17 17 20 24 16 33 rrcurveto
          -41 12 -60 58 -10 vhcurveto
          -29 -25 -18 -32 -35 8 callsubr
        </CharString>
        <CharString name="Aring">
          -107 callsubr
          -14 743 -87 callgsubr
        </CharString>
        <CharString name="Atilde">
          -107 callsubr
          -53 687 -99 callgsubr
        </CharString>
        <CharString name="B">
          341 595 474 rmoveto
          104 -78 118 -184 -199 -119 -134 -100 -94 81 -42 32 25 callsubr
          -3 6 -4 4 vhcurveto
          -11 14 -33 49 58 vvcurveto
          109 116 38 96 106 84 -68 -92 -123 -61 -59 -126 -11 vhcurveto
          12 callgsubr
          -7 -7 4 -6 9 hvcurveto
          51 -5 93 -24 -107 vvcurveto
          -51 -35 -56 -61 -33 -31 21 33 -11 vhcurveto
          5 -3 -3 6 -4 26 callgsubr
          -5 -12 -65 52 -38 54 100 70 75 86 107 -66 35 -66 8 hvcurveto
          108 16 78 85 123 vvcurveto
          -358 66 -86 callgsubr
          endchar
        </CharString>
        <CharString name="C">
          -95 callgsubr
          endchar
        </CharString>
        <CharString name="Cacute">
          -95 callgsubr
          -90 312 rmoveto
          -9 8 -4 1 -7 5 -107 callgsubr
          endchar
        </CharString>
        <CharString name="Ccaron">
          -95 callgsubr
          -266 325 -105 callsubr
        </CharString>
        <CharString name="Ccedilla">
          278 349 -154 rmoveto
          36 -19 25 -40 4 callgsubr
          10 36 76 5 57 38 45 69 rlinecurve
          32 51 24 62 10 vvcurveto
          5 -2 3 -5 -5 -6 -76 callgsubr
          vhcurveto
          -90 -37 -55 -76 -99 hhcurveto
          -82 -104 79 214 192 73 153 119 56 61 -35 -91 -103 -73 -46 -20 -7 hvcurveto
          -8 -3 27 callgsubr
          vvcurveto
          -8 10 -6 17 39 65 32 60 37 vhcurveto
          19 33 8 35 35 vvcurveto
          92 -66 77 -104 -67 -60 -33 -27 -35 vhcurveto
          -65 -51 -93 -128 -204 vvcurveto
          -171 81 -146 155 vhcurveto
          -19 -43 -20 -14 -8 vvcurveto
          -4 -78 callsubr
          5 5 10 25 hhcurveto
          12 18 -9 -20 -34 callsubr
          -3 -5 -13 16 -32 45 43 40 25 50 hvcurveto
          endchar
        </CharString>
        <CharString name="Ccircumflex">
          -95 callgsubr
          -75 223 rmoveto
          -8 8 -46 54 -24 42 rrcurveto
          9 -5 -4 3 -7 hhcurveto
          -5 -4 -3 -5 -5 hvcurveto
          -51 -67 -24 -23 -11 -13 rrcurveto
          -3 -4 -2 -3 -31 callsubr
          -2 5 2 3 -70 callsubr
          vhcurveto
          15 6 46 26 24 24 38 -43 37 -13 11 -3 rrcurveto
          -1 3 -51 callgsubr
          hhcurveto
          -74 callgsubr
          3 2 -66 callsubr
          hvcurveto
          endchar
        </CharString>
        <CharString name="Cdotaccent">
          -95 callgsubr
          -118 273 -94 callsubr
          5 -8 28 callsubr
          -11 rrcurveto
          -5 3 2 -3 5 hhcurveto
          9 callgsubr
          3 4 30 callsubr
          11 11 16 12 rrcurveto
          6 4 3 -67 callgsubr
          2 0 -83 callsubr
          endchar
        </CharString>
        <CharString name="D">
          -93 callgsubr
          -368 212 -86 callgsubr
          endchar
        </CharString>
        <CharString name="Dcaron">
          -93 callgsubr
          -368 212 -86 callgsubr
          -18 337 -105 callsubr
        </CharString>
        <CharString name="Dcroat">
          -91 callsubr
        </CharString>
        <CharString name="E">
          -106 callgsubr
          endchar
        </CharString>
        <CharString name="Eacute">
          -106 callgsubr
          81 143 rmoveto
          -9 8 -4 1 -7 5 -107 callgsubr
          endchar
        </CharString>
        <CharString name="Ebreve">
          -106 callgsubr
          106 154 -97 callsubr
        </CharString>
        <CharString name="Ecaron">
          -106 callgsubr
          -95 156 -105 callsubr
        </CharString>
        <CharString name="Ecircumflex">
          -106 callgsubr
          96 54 rmoveto
          -8 8 -46 54 -24 42 rrcurveto
          9 -5 -4 3 -7 hhcurveto
          -5 -4 -3 -5 -5 hvcurveto
          -51 -67 -24 -23 -11 -13 rrcurveto
          -3 -4 -2 -3 -31 callsubr
          -2 5 2 3 -70 callsubr
          vhcurveto
          15 6 46 26 24 24 38 -43 37 -13 11 -3 rrcurveto
          -1 3 -51 callgsubr
          hhcurveto
          -74 callgsubr
          3 2 -66 callsubr
          hvcurveto
          endchar
        </CharString>
        <CharString name="Edieresis">
          -106 callgsubr
          -19 104 -94 callsubr
          4 -7 6 -13 8 -12 rrcurveto
          -8 5 2 -7 7 hhcurveto
          -74 callgsubr
          4 5 hvcurveto
          9 5 6 8 15 11 rrcurveto
          7 -43 callsubr
          7 vvcurveto
          2 0 -83 callsubr
          124 hmoveto
          -3 5 -25 40 -2 -63 callsubr
          -1 -1 1 -19 callgsubr
          -2 -77 callgsubr
          hvcurveto
          -41 -38 rlineto
          -3 -77 callgsubr
          -3 vvcurveto
          -3 2 -59 callsubr
          4 -7 6 -13 8 -12 rrcurveto
          -8 5 2 -7 7 hhcurveto
          -74 callgsubr
          4 5 hvcurveto
          9 5 6 8 15 11 rrcurveto
          7 -43 callsubr
          7 vvcurveto
          2 0 -83 callsubr
          endchar
        </CharString>
        <CharString name="Edotaccent">
          -106 callgsubr
          53 104 -94 callsubr
          5 -8 28 callsubr
          -11 rrcurveto
          -5 3 2 -3 5 hhcurveto
          9 callgsubr
          3 4 30 callsubr
          11 11 16 12 rrcurveto
          6 4 3 -67 callgsubr
          2 0 -83 callsubr
          endchar
        </CharString>
        <CharString name="Egrave">
          -106 callgsubr
          23 55 rmoveto
          -7 9 -34 42 -13 56 rrcurveto
          7 -2 -48 callsubr
          hhcurveto
          -4 -2 -16 callsubr
          hvcurveto
          -4 -4 callsubr
          -4 -3 rrcurveto
          -20 -13 -4 -4 -9 vvcurveto
          -19 36 -42 62 -30 vhcurveto
          -1 2 2 0 1 hhcurveto
          4 -44 callsubr
          -60 callsubr
          hvcurveto
          endchar
        </CharString>
        <CharString name="Emacron">
          -106 callgsubr
          107 146 -101 callgsubr
        </CharString>
        <CharString name="Eng">
          326 166 292 rmoveto
          127 55 197 116 119 -16 -166 -147 -97 -1 -115 -16 -89 vhcurveto
          -192 -29 -111 -74 -79 hhcurveto
          -41 -18 15 23 58 99 62 95 8 hvcurveto
          8 7 3 5 -15 callgsubr
          -5 3 hvcurveto
          11 -32 -27 7 -43 hhcurveto
          -57 -91 -54 -83 -57 52 -65 71 16 19 3 4 17 hvcurveto
          263 56 3 339 347 vvcurveto
          121 -15 148 -158 vhcurveto
          0 -137 -1 -68 -180 vhcurveto
          -3 109 -6 70 0 vvcurveto
          19 -5 9 -9 -7 -5 -7 -8 -31 vhcurveto
          -8 -3 3 -11 -12 -9 -7 -7 -11 -9 1 -5 rrcurveto
          20 -114 1 -224 -52 vvcurveto
          -98 -34 -189 -4 -22 vhcurveto
          -6 vlineto
          -13 8 -5 12 5 6 1 3 6 vhcurveto
          17 9 36 -18 8 36 rrcurveto
          8 32 18 140 149 vvcurveto
          endchar
        </CharString>
        <CharString name="Eogonek">
          230 394 -160 rmoveto
          60 16 63 8 4 -46 callsubr
          -13 -10 -12 -18 -23 24 callgsubr
          57 20 19 32 43 -1 callsubr
          -4 vhcurveto
          -13 -36 -14 -24 -9 -13 rrcurveto
          -60 -41 -66 -37 -79 hhcurveto
          -69 -47 43 52 78 89 28 40 13 hvcurveto
          26 9 27 8 20 5 -2 5 5 11 6 11 5 callsubr
          -5 -21 callgsubr
          -42 18 -107 40 -29 39 rrcurveto
          -11 13 -6 15 17 vvcurveto
          29 15 32 29 27 vhcurveto
          32 35 37 16 52 142 19 -71 33 18 callsubr
          5 10 5 hvcurveto
          8 13 13 -5 8 13 -41 callgsubr
          0 5 -3 5 vhcurveto
          23 -8 -57 74 -129 hhcurveto
          -149 -134 -127 -135 -67 42 -42 64 -35 hvcurveto
          41 -22 41 -9 -9 -16 -183 -13 -143 vvcurveto
          -94 93 -46 81 48 49 16 29 41 vhcurveto
          -16 -23 -8 -29 -23 vvcurveto
          -42 32 -26 40 vhcurveto
          endchar
        </CharString>
        <CharString name="Eth">
          -91 callsubr
        </CharString>
        <CharString name="Euro">
          251 292 324 rmoveto
          -13 -45 1 -40 hhcurveto
          -38 6 hlineto
          15 1 14 1 15 vhcurveto
          25 hlineto
          112 32 -4 12 0 0 8 1 20 callgsubr
          5 2 -1 4 3 -2 4 3 vvcurveto
          3 1 1 -37 callgsubr
          0 1 1 5 -7 5 -9 hvcurveto
          -12 -29 1 -111 hhcurveto
          125 19 59 90 79 hhcurveto
          46 50 -19 -60 -66 -38 -30 -10 -5 hvcurveto
          -5 -3 -2 -4 -5 vvcurveto
          -8 8 -6 12 28 47 22 45 26 vhcurveto
          13 24 7 25 27 vvcurveto
          68 -59 51 -88 -61 -51 -31 -24 -33 vhcurveto
          -43 -38 -53 -68 -30 -113 rrcurveto
          -3 -29 -17 -2 -3 hhcurveto
          -12 -23 callsubr
          -4 -8 0 -12 -4 vvcurveto
          -7 2 -8 1 -1 vhcurveto
          3 -3 19 1 35 1 -1 -17 -3 -16 -1 -19 -39 -2 rcurveline
          -12 -23 callsubr
          -3 -8 2 -15 -3 vvcurveto
          -8 2 -7 1 -1 vhcurveto
          3 -3 19 1 32 1 rrcurveto
          -147 8 72 -122 131 hhcurveto
          77 55 38 75 44 hvcurveto
          27 51 23 63 9 vvcurveto
          5 -2 3 -5 -5 -6 -4 -8 -4 vhcurveto
          -89 -29 -53 -79 -84 hhcurveto
          -66 -75 59 148 -19 hvcurveto
          21 hlineto
          113 10 1 12 hvcurveto
          0 0 6 3 vvcurveto
          1 4 1 2 4 5 2 3 4 vvcurveto
          5 -7 5 -8 vhcurveto
          endchar
        </CharString>
        <CharString name="F">
          248 306 563 rmoveto
          11 0 15 -6 -10 -13 -24 -5 -24 vhcurveto
          -29 -5 -4 -35 -15 vvcurveto
          -13 -235 -71 -13 -26 -25 -7 -7 rlinecurve
          -7 -8 -3 -7 -5 vvcurveto
          -12 20 -8 10 11 -6 11 2 7 vhcurveto
          4 3 20 3 45 1 -4 -63 -2 -39 -1 -25 rrcurveto
          -1 -14 0 -11 -8 vvcurveto
          -8 -110 -9 -37 -47 -49 rrcurveto
          -3 -79 callsubr
          -61 callgsubr
          5 vhcurveto
          100 58 29 99 5 50 rrcurveto
          18 5 67 5 79 vhcurveto
          96 3 44 1 19 1 7 3 rlinecurve
          4 1 5 5 5 vvcurveto
          8 -16 4 -5 8 vhcurveto
          -7 10 -7 3 -43 8 -25 4 -32 4 -37 1 rrcurveto
          4 135 10 142 10 vvcurveto
          287 102 rmoveto
          1 5 3 -67 callgsubr
          10 -6 17 -105 -57 -72 -4 -16 -85 vhcurveto
          -145 -27 -112 -91 -111 vvcurveto
          -74 46 -68 74 16 9 6 5 vhcurveto
          12 -76 47 95 vvcurveto
          99 194 33 157 vhcurveto
          47 38 -3 16 hhcurveto
          19 14 11 15 3 hvcurveto
          13 18 5 3 13 vhcurveto
          endchar
        </CharString>
        <CharString name="G">
          -100 callsubr
          endchar
        </CharString>
        <CharString name="Gbreve">
          -100 callsubr
          -67 323 -97 callsubr
        </CharString>
        <CharString name="Gcircumflex">
          -100 callsubr
          -76 223 rmoveto
          -8 8 -46 54 -24 42 rrcurveto
          9 -5 -4 3 -7 hhcurveto
          -5 -4 -3 -5 -5 hvcurveto
          -51 -67 -24 -23 -11 -13 rrcurveto
          -3 -4 -2 -3 -31 callsubr
          -2 5 2 3 -70 callsubr
          vhcurveto
          15 6 46 26 24 24 38 -43 37 -13 11 -3 rrcurveto
          -1 3 -51 callgsubr
          hhcurveto
          -74 callgsubr
          3 2 -66 callsubr
          hvcurveto
          endchar
        </CharString>
        <CharString name="Gcommaaccent">
          -100 callsubr
          -256 -696 -28 callsubr
          -25 38 -2 7 -81 callsubr
          1 -19 callgsubr
          0 -1 -8 callsubr
          -42 -39 rlineto
          -3 -77 callgsubr
          -3 vvcurveto
          -78 callgsubr
          3 -3 -29 callgsubr
          22 -28 -34 vvcurveto
          -13 -5 -14 -7 -15 vhcurveto
          -82 callsubr
          3 4 -70 callsubr
          -18 callsubr
          17 26 43 13 32 -45 callsubr
          1 6 7 vvcurveto
          3 0 -83 callsubr
          endchar
        </CharString>
        <CharString name="Gdotaccent">
          -100 callsubr
          -120 273 -94 callsubr
          5 -8 28 callsubr
          -11 rrcurveto
          -5 3 2 -3 5 hhcurveto
          9 callgsubr
          3 4 30 callsubr
          11 11 16 12 rrcurveto
          6 4 3 -67 callgsubr
          2 0 -83 callsubr
          endchar
        </CharString>
        <CharString name="H">
          -93 callsubr
          endchar
        </CharString>
        <CharString name="Hbar">
          459 342 669 rmoveto
          1 7 1 -14 callgsubr
          6 -48 callsubr
          vhcurveto
          -7 -7 -8 -7 -7 -8 -15 -9 -1 0 1 -5 hhcurveto
          -21 -15 -8 -21 -1 hvcurveto
          -9 -165 -74 -2 rlineto
          -12 -2 -4 -7 -3 hvcurveto
          -3 -16 -2 9 -12 vvcurveto
          -8 0 -4 3 -3 vhcurveto
          4 -1 35 -1 51 -1 -5 -103 rcurveline
          25 -48 -46 15 -39 hhcurveto
          -48 -40 -25 -59 -59 57 -54 105 16 17 1 3 17 hvcurveto
          -7 -107 -3 -61 -3 -35 -3 -43 rcurveline
          -3 -71 -36 -25 -14 -9 rrcurveto
          -5 -4 -3 -6 -5 vvcurveto
          -5 2 -5 7 4 3 2 1 4 vhcurveto
          108 55 18 84 5 50 3 17 4 84 8 104 7 1 6 2 8 3 59 -45 42 -34 74 -74 rrcurveto
          -42 42 17 -23 16 hhcurveto
          15 8 6 17 1 hvcurveto
          2 5 10 138 11 149 24 9 15 6 4 3 rrcurveto
          7 4 2 8 18 callgsubr
          28 callgsubr
          -1 -4 -1 -2 -5 vhcurveto
          -4 -3 -11 -3 -17 -5 9 106 rcurveline
          61 5 19 7 8 vvcurveto
          8 vlineto
          10 2 -4 10 -39 callgsubr
          2 vhcurveto
          -42 callsubr
          -13 -21 -1 -1 -32 vhcurveto
          8 117 7 97 8 vvcurveto
          11 -6 5 -8 -9 -15 -15 -3 -13 vhcurveto
          -10 -5 2 -12 -15 -2 -14 -3 0 -7 -3 -19 -12 -177 rcurveline
          -56 -3 -73 -2 -99 -3 rrcurveto
          8 102 5 81 6 vvcurveto
          117 -243 rmoveto
          36 30 0 1 28 hvcurveto
          -9 -128 -60 -17 -71 -19 -67 -16 rlinecurve
          -30 22 10 157 rlineto
          62 -210 rmoveto
          56 19 53 16 45 15 -12 -171 rcurveline
          -48 48 -46 36 -48 37 rrcurveto
          -181 9 rmoveto
          -71 -30 27 25 19 13 10 23 20 29 -8 -23 37 hvcurveto
          -3 -50 rlineto
          endchar
        </CharString>
        <CharString name="Hcircumflex">
          -93 callsubr
          324 521 rmoveto
          -8 8 -46 54 -24 42 rrcurveto
          9 -5 -4 3 -7 hhcurveto
          -5 -4 -3 -5 -5 hvcurveto
          -51 -67 -24 -23 -11 -13 rrcurveto
          -3 -4 -2 -3 -31 callsubr
          -2 5 2 3 -70 callsubr
          vhcurveto
          15 6 46 26 24 24 38 -43 37 -13 11 -3 rrcurveto
          -1 3 -51 callgsubr
          hhcurveto
          -74 callgsubr
          3 2 -66 callsubr
          hvcurveto
          endchar
        </CharString>
        <CharString name="I">
          84 -59 callgsubr
          -7 -123 -4 -87 -4 -59 -7 -86 rcurveline
          -5 -104 -12 -45 -45 -48 rrcurveto
          -4 -79 callsubr
          5 -65 callsubr
          vhcurveto
          101 59 28 97 5 51 rrcurveto
          5 51 19 357 17 39 5 56 9 vvcurveto
          endchar
        </CharString>
        <CharString name="IJ">
          539 -59 callgsubr
          -7 -123 -4 -87 -4 -59 -7 -86 rcurveline
          -5 -104 -12 -45 -45 -48 rrcurveto
          -4 -79 callsubr
          5 -65 callsubr
          vhcurveto
          101 59 28 97 5 51 rrcurveto
          5 51 19 357 17 39 5 56 9 vvcurveto
          453 hmoveto
          -95 callsubr
          endchar
        </CharString>
        <CharString name="Iacute">
          84 -59 callgsubr
          -7 -123 -4 -87 -4 -59 -7 -86 rcurveline
          -5 -104 -12 -45 -45 -48 rrcurveto
          -4 -79 callsubr
          5 -65 callsubr
          vhcurveto
          101 59 28 97 5 51 rrcurveto
          5 51 19 357 17 39 5 56 9 vvcurveto
          -7 163 rmoveto
          -9 8 -4 1 -7 5 -107 callgsubr
          endchar
        </CharString>
        <CharString name="Ibreve">
          84 -59 callgsubr
          -7 -123 -4 -87 -4 -59 -7 -86 rcurveline
          -5 -104 -12 -45 -45 -48 rrcurveto
          -4 -79 callsubr
          5 -65 callsubr
          vhcurveto
          101 59 28 97 5 51 rrcurveto
          5 51 19 357 17 39 5 56 9 vvcurveto
          18 174 -97 callsubr
        </CharString>
        <CharString name="Icircumflex">
          84 -59 callgsubr
          -7 -123 -4 -87 -4 -59 -7 -86 rcurveline
          -5 -104 -12 -45 -45 -48 rrcurveto
          -4 -79 callsubr
          5 -65 callsubr
          vhcurveto
          101 59 28 97 5 51 rrcurveto
          5 51 19 357 17 39 5 56 5 callsubr
          74 rmoveto
          -8 8 -46 54 -24 42 rrcurveto
          9 -5 -4 3 -7 hhcurveto
          -5 -4 -3 -5 -5 hvcurveto
          -51 -67 -24 -23 -11 -13 rrcurveto
          -3 -4 -2 -3 -31 callsubr
          -2 5 2 3 -70 callsubr
          vhcurveto
          15 6 46 26 24 24 38 -43 37 -13 11 -3 rrcurveto
          -1 3 -51 callgsubr
          hhcurveto
          -74 callgsubr
          3 2 -66 callsubr
          hvcurveto
          endchar
        </CharString>
        <CharString name="Idieresis">
          84 -59 callgsubr
          -7 -123 -4 -87 -4 -59 -7 -86 rcurveline
          -5 -104 -12 -45 -45 -48 rrcurveto
          -4 -79 callsubr
          5 -65 callsubr
          vhcurveto
          101 59 28 97 5 51 rrcurveto
          5 51 19 357 17 39 5 56 9 vvcurveto
          -106 124 -94 callsubr
          4 -7 6 -13 8 -12 rrcurveto
          -8 5 2 -7 7 hhcurveto
          -74 callgsubr
          4 5 hvcurveto
          9 5 6 8 15 11 rrcurveto
          7 -43 callsubr
          7 vvcurveto
          2 0 -83 callsubr
          124 hmoveto
          -3 5 -25 40 -2 -63 callsubr
          -1 -1 1 -19 callgsubr
          -2 -77 callgsubr
          hvcurveto
          -41 -38 rlineto
          -3 -77 callgsubr
          -3 vvcurveto
          -3 2 -59 callsubr
          4 -7 6 -13 8 -12 rrcurveto
          -8 5 2 -7 7 hhcurveto
          -74 callgsubr
          4 5 hvcurveto
          9 5 6 8 15 11 rrcurveto
          7 -43 callsubr
          7 vvcurveto
          2 0 -83 callsubr
          endchar
        </CharString>
        <CharString name="Idotaccent">
          84 -59 callgsubr
          -7 -123 -4 -87 -4 -59 -7 -86 rcurveline
          -5 -104 -12 -45 -45 -48 rrcurveto
          -4 -79 callsubr
          5 -65 callsubr
          vhcurveto
          101 59 28 97 5 51 rrcurveto
          5 51 19 357 17 39 5 56 9 vvcurveto
          -35 124 -94 callsubr
          5 -8 28 callsubr
          -11 rrcurveto
          -5 3 2 -3 5 hhcurveto
          9 callgsubr
          3 4 30 callsubr
          11 11 16 12 rrcurveto
          6 4 3 -67 callgsubr
          2 0 -83 callsubr
          endchar
        </CharString>
        <CharString name="Igrave">
          84 -59 callgsubr
          -7 -123 -4 -87 -4 -59 -7 -86 rcurveline
          -5 -104 -12 -45 -45 -48 rrcurveto
          -4 -79 callsubr
          5 -65 callsubr
          vhcurveto
          101 59 28 97 5 51 rrcurveto
          5 51 19 357 17 39 5 56 9 vvcurveto
          -65 75 rmoveto
          -7 9 -34 42 -13 56 rrcurveto
          7 -2 -48 callsubr
          hhcurveto
          -4 -2 -16 callsubr
          hvcurveto
          -4 -4 callsubr
          -4 -3 rrcurveto
          -20 -13 -4 -4 -9 vvcurveto
          -19 36 -42 62 -30 vhcurveto
          -1 2 2 0 1 hhcurveto
          4 -44 callsubr
          -60 callsubr
          hvcurveto
          endchar
        </CharString>
        <CharString name="Imacron">
          84 -59 callgsubr
          -7 -123 -4 -87 -4 -59 -7 -86 rcurveline
          -5 -104 -12 -45 -45 -48 rrcurveto
          -4 -79 callsubr
          5 -65 callsubr
          vhcurveto
          101 59 28 97 5 51 rrcurveto
          5 51 19 357 17 39 5 56 9 vvcurveto
          19 166 -101 callgsubr
        </CharString>
        <CharString name="Iogonek">
          84 237 -155 rmoveto
          61 16 63 8 4 -46 callsubr
          -13 -11 -10 -18 -24 24 callgsubr
          32 10 24 9 15 hvcurveto
          33 51 13 50 4 33 rrcurveto
          5 51 19 357 17 39 5 56 9 vvcurveto
          15 -7 5 -16 -98 -175 -96 -146 -76 54 -64 69 16 6 5 5 vhcurveto
          12 -75 48 91 vvcurveto
          93 103 26 30 4 2 -2 -4 vhcurveto
          -10 -4 -42 -32 vvcurveto
          -7 -123 -4 -87 -4 -59 -7 -86 rcurveline
          -5 -104 -12 -45 -45 -48 rrcurveto
          -4 -79 callsubr
          5 -65 callsubr
          vhcurveto
          8 5 21 16 8 5 rrcurveto
          -13 -23 -4 -24 -12 vvcurveto
          -39 26 -24 43 vhcurveto
          endchar
        </CharString>
        <CharString name="Itilde">
          84 -59 callgsubr
          -7 -123 -4 -87 -4 -59 -7 -86 rcurveline
          -5 -104 -12 -45 -45 -48 rrcurveto
          -4 -79 callsubr
          5 -65 callsubr
          vhcurveto
          101 59 28 97 5 51 rrcurveto
          5 51 19 357 17 39 5 56 9 vvcurveto
          -51 79 -99 callgsubr
        </CharString>
        <CharString name="J">
          179 404 677 rmoveto
          -95 callsubr
          endchar
        </CharString>
        <CharString name="Jcircumflex">
          179 404 677 rmoveto
          -95 callsubr
          315 867 rmoveto
          -8 8 -46 54 -24 42 rrcurveto
          9 -5 -4 3 -7 hhcurveto
          -5 -4 -3 -5 -5 hvcurveto
          -51 -67 -24 -23 -11 -13 rrcurveto
          -3 -4 -2 -3 -31 callsubr
          -2 5 2 3 -70 callsubr
          vhcurveto
          15 6 46 26 24 24 38 -43 37 -13 11 -3 rrcurveto
          -1 3 -51 callgsubr
          hhcurveto
          -74 callgsubr
          3 2 -66 callsubr
          hvcurveto
          endchar
        </CharString>
        <CharString name="K">
          -90 callsubr
          endchar
        </CharString>
        <CharString name="Kcommaaccent">
          -90 callsubr
          51 -784 -28 callsubr
          -25 38 -2 7 -81 callsubr
          1 -19 callgsubr
          0 -1 -8 callsubr
          -42 -39 rlineto
          -3 -77 callgsubr
          -3 vvcurveto
          -78 callgsubr
          3 -3 -29 callgsubr
          22 -28 -34 vvcurveto
          -13 -5 -14 -7 -15 vhcurveto
          -82 callsubr
          3 4 -70 callsubr
          -18 callsubr
          17 26 43 13 32 -45 callsubr
          1 6 7 vvcurveto
          3 0 -83 callsubr
          endchar
        </CharString>
        <CharString name="L">
          302 -100 callgsubr
          endchar
        </CharString>
        <CharString name="Lacute">
          302 -100 callgsubr
          341 860 rmoveto
          -9 8 -4 1 -7 5 -107 callgsubr
          endchar
        </CharString>
        <CharString name="Lcaron">
          319 -100 callgsubr
          567 625 -28 callsubr
          -25 38 -2 7 -81 callsubr
          1 -19 callgsubr
          0 -1 -8 callsubr
          -42 -39 rlineto
          -3 -77 callgsubr
          -3 vvcurveto
          -78 callgsubr
          3 -3 -29 callgsubr
          22 -28 -34 vvcurveto
          -13 -5 -14 -7 -15 vhcurveto
          -82 callsubr
          3 4 -70 callsubr
          -18 callsubr
          17 26 43 13 32 -45 callsubr
          1 6 7 vvcurveto
          3 0 -83 callsubr
          endchar
        </CharString>
        <CharString name="Lcommaaccent">
          302 -100 callgsubr
          297 -145 -28 callsubr
          -25 38 -2 7 -81 callsubr
          1 -19 callgsubr
          0 -1 -8 callsubr
          -42 -39 rlineto
          -3 -77 callgsubr
          -3 vvcurveto
          -78 callgsubr
          3 -3 -29 callgsubr
          22 -28 -34 vvcurveto
          -13 -5 -14 -7 -15 vhcurveto
          -82 callsubr
          3 4 -70 callsubr
          -18 callsubr
          17 26 43 13 32 -45 callsubr
          1 6 7 vvcurveto
          3 0 -83 callsubr
          endchar
        </CharString>
        <CharString name="Ldot">
          302 -100 callgsubr
          479 275 rmoveto
          -2 7 -27 46 -6 8 rrcurveto
          3 -1 -3 2 -3 hhcurveto
          -3 -3 -2 -3 -3 -55 callgsubr
          -22 callsubr
          -3 3 -3 1 -4 vhcurveto
          5 -8 17 -33 6 -8 -36 callsubr
          -31 callgsubr
          1 32 25 7 9 hvcurveto
          -77 callsubr
          endchar
        </CharString>
        <CharString name="Lslash">
          302 274 600 rmoveto
          77 59 -57 -6 9 hvcurveto
          -3 4 5 -1 5 hhcurveto
          9 9 6 9 4 hvcurveto
          5 13 15 -10 callsubr
          7 5 2 7 vvcurveto
          5 -1 5 -3 5 vhcurveto
          25 -11 -64 71 -104 hhcurveto
          -113 -70 -98 -136 -65 17 -65 8 -64 hvcurveto
          -61 -25 -17 -7 -4 -3 -1 -4 rlinecurve
          -1 1 -3 -1 -1 hvcurveto
          1 -11 4 -7 6 -2 rrcurveto
          1 0 0 0 hvcurveto
          -1 -38 callgsubr
          hhcurveto
          8 1 22 3 43 12 rrcurveto
          -14 vlineto
          -55 -8 -54 -19 -41 vhcurveto
          3 -15 -15 1 -16 hhcurveto
          -68 -29 -25 -31 -29 24 -21 44 35 36 13 19 29 hvcurveto
          -22 62 86 -29 74 hhcurveto
          133 31 104 47 43 -15 15 -5 -5 -3 -4 -8 hvcurveto
          -8 1 -6 -5 vvcurveto
          -77 -71 -24 -75 -23 -22 1 4 -20 vhcurveto
          -36 5 -30 9 -28 8 rrcurveto
          24 39 16 53 69 vvcurveto
          16 -1 16 -1 15 vhcurveto
          40 15 30 11 11 7 9 7 2 3 9 callgsubr
          4 -1 -51 callgsubr
          rrcurveto
          -5 7 -1 2 7 8 -12 7 10 vvcurveto
          -1 -72 callsubr
          -3 2 -12 3 -21 -20 -47 -25 rrcurveto
          -16 90 -29 74 49 vvcurveto
          68 47 10 36 vhcurveto
          -233 -621 rmoveto
          -21 -10 11 11 7 3 16 27 13 18 -4 -12 28 hvcurveto
          -17 -16 -19 -12 -23 hhcurveto
          endchar
        </CharString>
        <CharString name="M">
          457 578 565 rmoveto
          -110 -3 -156 -162 -28 hvcurveto
          -130 -19 -5 -15 -12 hhcurveto
          -4 -3 4 7 hvcurveto
          57 14 72 179 vvcurveto
          131 -12 144 -82 -24 -114 -25 -178 -32 vhcurveto
          -26 58 rlineto
          -48 87 -4 62 32 vvcurveto
          22 vlineto
          15 -4 12 -9 -14 -19 -52 -64 -32 4 -35 12 -35 vhcurveto
          24 -83 37 -32 -164 vvcurveto
          -99 -32 -198 -4 -25 vhcurveto
          -1 -2 0 -2 -2 vvcurveto
          -13 8 -5 12 5 6 1 3 6 vhcurveto
          18 8 35 -13 8 33 4 20 7 37 5 59 rrcurveto
          8 66 5 110 98 vvcurveto
          141 5 18 113 46 hhcurveto
          50 7 -57 -94 hvcurveto
          -125 -4 -125 -131 vvcurveto
          -40 3 -59 59 39 24 31 69 17 vhcurveto
          12 48 28 176 12 72 rrcurveto
          77 13 18 18 15 hhcurveto
          12 14 -3 -38 hvcurveto
          -72 -22 -135 -140 vvcurveto
          -202 115 -93 89 -32 vhcurveto
          -1 4 4 -1 3 hhcurveto
          6 3 2 4 5 -4 2 -7 7 hvcurveto
          -91 69 -29 101 167 vvcurveto
          75 6 79 9 80 vhcurveto
          3 36 3 33 29 vvcurveto
          70 -18 49 -71 vhcurveto
          endchar
        </CharString>
        <CharString name="N">
          -101 callsubr
          endchar
        </CharString>
        <CharString name="Nacute">
          -101 callsubr
          -22 750 rmoveto
          -9 8 -4 1 -7 5 -107 callgsubr
          endchar
        </CharString>
        <CharString name="Ncaron">
          -101 callsubr
          -198 763 -105 callsubr
        </CharString>
        <CharString name="Ncommaaccent">
          -101 callsubr
          -80 -211 -28 callsubr
          -25 38 -2 7 -81 callsubr
          1 -19 callgsubr
          0 -1 -8 callsubr
          -42 -39 rlineto
          -3 -77 callgsubr
          -3 vvcurveto
          -78 callgsubr
          3 -3 -29 callgsubr
          22 -28 -34 vvcurveto
          -13 -5 -14 -7 -15 vhcurveto
          -82 callsubr
          3 4 -70 callsubr
          -18 callsubr
          17 26 43 13 32 -45 callsubr
          1 6 7 vvcurveto
          3 0 -83 callsubr
          endchar
        </CharString>
        <CharString name="Ntilde">
          -101 callsubr
          -67 666 -99 callgsubr
        </CharString>
        <CharString name="O">
          -102 callgsubr
          endchar
        </CharString>
        <CharString name="OE">
          686 768 696 rmoveto
          -105 -98 -62 -84 -47 hvcurveto
          93 -40 -56 40 -53 hhcurveto
          -77 -82 -80 -134 -182 128 -109 54 11 -5 callsubr
          2 -1 3 -3 3 hvcurveto
          -65 76 -38 158 99 vvcurveto
          72 22 33 32 39 78 -64 -220 -266 -109 -74 -65 -96 -77 95 215 261 104 93 11 11 vhcurveto
          3 -68 callsubr
          5 -3 2 -5 -3 -4 -1 -2 -3 vhcurveto
          -138 -90 -56 -167 -160 vvcurveto
          -243 152 -97 104 79 72 46 81 51 vhcurveto
          -85 8 89 -42 76 hhcurveto
          88 80 53 66 45 hvcurveto
          35 48 25 61 11 vvcurveto
          5 -4 3 -4 -5 -5 -4 -8 -4 vhcurveto
          -15 -36 -13 -24 -9 -13 rrcurveto
          -60 -40 -66 -37 -79 hhcurveto
          -70 -46 43 52 78 90 27 38 14 hvcurveto
          27 8 27 9 20 5 -2 5 5 11 5 11 5 callsubr
          -4 -21 callgsubr
          -44 19 -104 39 -31 39 rrcurveto
          -11 13 -5 15 17 vvcurveto
          29 15 32 29 27 vhcurveto
          32 33 38 16 52 143 17 -71 35 18 callsubr
          5 10 5 hvcurveto
          5 13 16 -4 7 12 rrcurveto
          5 8 4 -54 callsubr
          1 5 -3 5 vhcurveto
          23 -10 -55 74 -129 hhcurveto
          -177 -406 rmoveto
          40 -21 41 -10 -9 vvcurveto
          -10 -79 -11 -55 -45 vhcurveto
          9 39 6 43 1 47 11 -8 13 -8 13 -7 rrcurveto
          endchar
        </CharString>
        <CharString name="Oacute">
          -102 callgsubr
          -155 520 rmoveto
          -9 8 -4 1 -7 5 -107 callgsubr
          endchar
        </CharString>
        <CharString name="Obreve">
          -102 callgsubr
          -131 531 -97 callsubr
        </CharString>
        <CharString name="Ocircumflex">
          -102 callgsubr
          -140 431 rmoveto
          -8 8 -46 54 -24 42 rrcurveto
          9 -5 -4 3 -7 hhcurveto
          -5 -4 -3 -5 -5 hvcurveto
          -51 -67 -24 -23 -11 -13 rrcurveto
          -3 -4 -2 -3 -31 callsubr
          -2 5 2 3 -70 callsubr
          vhcurveto
          15 6 46 26 24 24 38 -43 37 -13 11 -3 rrcurveto
          -1 3 -51 callgsubr
          hhcurveto
          -74 callgsubr
          3 2 -66 callsubr
          hvcurveto
          endchar
        </CharString>
        <CharString name="Odieresis">
          -102 callgsubr
          -255 481 -94 callsubr
          4 -7 6 -13 8 -12 rrcurveto
          -8 5 2 -7 7 hhcurveto
          -74 callgsubr
          4 5 hvcurveto
          9 5 6 8 15 11 rrcurveto
          7 -43 callsubr
          7 vvcurveto
          2 0 -83 callsubr
          124 hmoveto
          -3 5 -25 40 -2 -63 callsubr
          -1 -1 1 -19 callgsubr
          -2 -77 callgsubr
          hvcurveto
          -41 -38 rlineto
          -3 -77 callgsubr
          -3 vvcurveto
          -3 2 -59 callsubr
          4 -7 6 -13 8 -12 rrcurveto
          -8 5 2 -7 7 hhcurveto
          -74 callgsubr
          4 5 hvcurveto
          9 5 6 8 15 11 rrcurveto
          7 -43 callsubr
          7 vvcurveto
          2 0 -83 callsubr
          endchar
        </CharString>
        <CharString name="Ograve">
          -102 callgsubr
          -213 432 rmoveto
          -7 9 -34 42 -13 56 rrcurveto
          7 -2 -48 callsubr
          hhcurveto
          -4 -2 -16 callsubr
          hvcurveto
          -4 -4 callsubr
          -4 -3 rrcurveto
          -20 -13 -4 -4 -9 vvcurveto
          -19 36 -42 62 -30 vhcurveto
          -1 2 2 0 1 hhcurveto
          4 -44 callsubr
          -60 callsubr
          hvcurveto
          endchar
        </CharString>
        <CharString name="Ohungarumlaut">
          -102 callgsubr
          -210 534 rmoveto
          -107 callgsubr
          80 hmoveto
          -9 8 -4 1 -7 5 -107 callgsubr
          endchar
        </CharString>
        <CharString name="Omacron">
          -102 callgsubr
          -130 523 -101 callgsubr
        </CharString>
        <CharString name="Oslash">
          -90 callgsubr
          endchar
        </CharString>
        <CharString name="Oslashacute">
          -90 callgsubr
          94 421 rmoveto
          -9 8 -4 1 -7 5 -107 callgsubr
          endchar
        </CharString>
        <CharString name="Otilde">
          -102 callgsubr
          -200 436 -99 callgsubr
        </CharString>
        <CharString name="P">
          328 232 540 rmoveto
          -9 -9 27 callgsubr
          hvcurveto
          -3 -3 -18 callgsubr
          -3 -7 -7 -4 -22 -4 -28 -4 -26 -21 -172 -4 -113 rrcurveto
          -3 -66 -2 -88 -25 -71 callgsubr
          13 10 -16 18 hhcurveto
          10 0 19 callsubr
          19 1 78 64 vvcurveto
          60 7 193 36 165 vhcurveto
          1 7 -15 callsubr
          vvcurveto
          7 -11 3 -5 -16 -11 -9 -15 -7 vhcurveto
          67 78 rmoveto
          107 87 -57 -144 -113 -57 -87 -167 -13 hvcurveto
          -8 -4 -8 -8 -14 20 1 15 189 113 104 163 132 -88 122 -178 -199 -119 -134 -100 -94 81 -42 32 25 callsubr
          -3 6 -4 4 hvcurveto
          -11 14 -33 49 58 vvcurveto
          109 116 38 96 vhcurveto
          endchar
        </CharString>
        <CharString name="Q">
          329 125 318 rmoveto
          261 104 93 11 11 vhcurveto
          3 -68 callsubr
          5 -3 2 -5 -3 -4 -1 -2 -3 vhcurveto
          -138 -90 -56 -167 -160 vvcurveto
          -243 152 -97 104 19 18 3 5 19 vhcurveto
          78 -75 81 -36 35 -19 rrcurveto
          -1 3 4 -3 8 hhcurveto
          8 4 6 5 6 -3 5 -5 3 hvcurveto
          -47 32 -51 43 -49 64 rrcurveto
          92 57 71 120 167 vvcurveto
          256 -120 92 -83 -75 -119 -80 -212 -166 51 -118 63 -84 vhcurveto
          -93 5 -72 96 209 vvcurveto
          231 301 rmoveto
          39 77 -61 -210 -179 -50 -93 -52 -41 hvcurveto
          -20 33 -17 34 -15 41 rrcurveto
          -35 92 -22 116 88 vvcurveto
          140 58 40 37 vhcurveto
          endchar
        </CharString>
        <CharString name="R">
          341 237 540 rmoveto
          -16 callgsubr
          -21 -12 -103 -8 -100 rrcurveto
          -28 -11 -16 -13 -11 vvcurveto
          -9 15 -9 25 -4 vhcurveto
          -1 -30 rlineto
          -3 -66 -2 -88 -25 -71 callgsubr
          12 12 -16 16 hhcurveto
          12 -1 19 callsubr
          19 1 78 64 vvcurveto
          13 0 22 1 25 vhcurveto
          16 1 18 1 20 3 73 -60 2 -129 88 -88 rrcurveto
          -82 82 89 -5 42 hhcurveto
          13 12 1 7 -15 callgsubr
          -11 4 hvcurveto
          -105 27 -50 102 -48 87 -39 72 -34 47 -32 29 rrcurveto
          109 32 115 73 152 vvcurveto
          124 -86 112 -171 -216 -112 -134 -100 -94 81 -42 32 11 4 5 5 7 -3 3 -4 4 vhcurveto
          -11 14 -33 49 58 vvcurveto
          109 112 40 110 106 79 -58 -128 -101 -45 -69 -125 -27 vhcurveto
          17 -32 -27 1 -23 hhcurveto
          5 82 12 106 21 95 rrcurveto
          1 7 -15 callsubr
          vvcurveto
          7 -12 3 -4 -16 -11 -9 -15 -7 vhcurveto
          endchar
        </CharString>
        <CharString name="Racute">
          341 237 540 rmoveto
          -16 callgsubr
          -21 -12 -103 -8 -100 rrcurveto
          -28 -11 -16 -13 -11 vvcurveto
          -9 15 -9 25 -4 vhcurveto
          -1 -30 rlineto
          -3 -66 -2 -88 -25 -71 callgsubr
          12 12 -16 16 hhcurveto
          12 -1 19 callsubr
          19 1 78 64 vvcurveto
          13 0 22 1 25 vhcurveto
          16 1 18 1 20 3 73 -60 2 -129 88 -88 rrcurveto
          -82 82 89 -5 42 hhcurveto
          13 12 1 7 -15 callgsubr
          -11 4 hvcurveto
          -105 27 -50 102 -48 87 -39 72 -34 47 -32 29 rrcurveto
          109 32 115 73 152 vvcurveto
          124 -86 112 -171 -216 -112 -134 -100 -94 81 -42 32 11 4 5 5 7 -3 3 -4 4 vhcurveto
          -11 14 -33 49 58 vvcurveto
          109 112 40 110 106 79 -58 -128 -101 -45 -69 -125 -27 vhcurveto
          17 -32 -27 1 -23 hhcurveto
          5 82 12 106 21 95 rrcurveto
          1 7 -15 callsubr
          vvcurveto
          7 -12 3 -4 -16 -11 -9 -15 -7 vhcurveto
          189 299 rmoveto
          -9 8 -4 1 -7 5 -107 callgsubr
          endchar
        </CharString>
        <CharString name="Rcaron">
          341 237 540 rmoveto
          -16 callgsubr
          -21 -12 -103 -8 -100 rrcurveto
          -28 -11 -16 -13 -11 vvcurveto
          -9 15 -9 25 -4 vhcurveto
          -1 -30 rlineto
          -3 -66 -2 -88 -25 -71 callgsubr
          12 12 -16 16 hhcurveto
          12 -1 19 callsubr
          19 1 78 64 vvcurveto
          13 0 22 1 25 vhcurveto
          16 1 18 1 20 3 73 -60 2 -129 88 -88 rrcurveto
          -82 82 89 -5 42 hhcurveto
          13 12 1 7 -15 callgsubr
          -11 4 hvcurveto
          -105 27 -50 102 -48 87 -39 72 -34 47 -32 29 rrcurveto
          109 32 115 73 152 vvcurveto
          124 -86 112 -171 -216 -112 -134 -100 -94 81 -42 32 11 4 5 5 7 -3 3 -4 4 vhcurveto
          -11 14 -33 49 58 vvcurveto
          109 112 40 110 106 79 -58 -128 -101 -45 -69 -125 -27 vhcurveto
          17 -32 -27 1 -23 hhcurveto
          5 82 12 106 21 95 rrcurveto
          1 7 -15 callsubr
          vvcurveto
          7 -12 3 -4 -16 -11 -9 -15 -7 vhcurveto
          13 312 -105 callsubr
        </CharString>
        <CharString name="Rcommaaccent">
          341 237 540 rmoveto
          -16 callgsubr
          -21 -12 -103 -8 -100 rrcurveto
          -28 -11 -16 -13 -11 vvcurveto
          -9 15 -9 25 -4 vhcurveto
          -1 -30 rlineto
          -3 -66 -2 -88 -25 -71 callgsubr
          12 12 -16 16 hhcurveto
          12 -1 19 callsubr
          19 1 78 64 vvcurveto
          13 0 22 1 25 vhcurveto
          16 1 18 1 20 3 73 -60 2 -129 88 -88 rrcurveto
          -82 82 89 -5 42 hhcurveto
          13 12 1 7 -15 callgsubr
          -11 4 hvcurveto
          -105 27 -50 102 -48 87 -39 72 -34 47 -32 29 rrcurveto
          109 32 115 73 152 vvcurveto
          124 -86 112 -171 -216 -112 -134 -100 -94 81 -42 32 11 4 5 5 7 -3 3 -4 4 vhcurveto
          -11 14 -33 49 58 vvcurveto
          109 112 40 110 106 79 -58 -128 -101 -45 -69 -125 -27 vhcurveto
          17 -32 -27 1 -23 hhcurveto
          5 82 12 106 21 95 rrcurveto
          1 7 -15 callsubr
          vvcurveto
          7 -12 3 -4 -16 -11 -9 -15 -7 vhcurveto
          135 -662 -28 callsubr
          -25 38 -2 7 -81 callsubr
          1 -19 callgsubr
          0 -1 -8 callsubr
          -42 -39 rlineto
          -3 -77 callgsubr
          -3 vvcurveto
          -78 callgsubr
          3 -3 -29 callgsubr
          22 -28 -34 vvcurveto
          -13 -5 -14 -7 -15 vhcurveto
          -82 callsubr
          3 4 -70 callsubr
          -18 callsubr
          17 26 43 13 32 -45 callsubr
          1 6 7 vvcurveto
          3 0 -83 callsubr
          endchar
        </CharString>
        <CharString name="S">
          -96 callsubr
          endchar
        </CharString>
        <CharString name="Sacute">
          -96 callsubr
          -110 227 rmoveto
          -9 8 -4 1 -7 5 -107 callgsubr
          endchar
        </CharString>
        <CharString name="Scaron">
          -96 callsubr
          -286 240 -105 callsubr
        </CharString>
        <CharString name="Scedilla">
          244 322 -164 rmoveto
          36 -19 25 -40 4 callgsubr
          11 39 rlineto
          133 13 64 84 99 vvcurveto
          84 -59 61 -96 43 vhcurveto
          -98 43 -107 22 75 vvcurveto
          27 11 31 27 28 vhcurveto
          41 39 45 15 59 121 19 -57 32 hhcurveto
          11 9 5 11 5 hvcurveto
          5 12 15 -3 5 14 -41 callgsubr
          21 callgsubr
          7 vhcurveto
          19 -8 -55 65 -115 hhcurveto
          -154 -132 -129 -138 -79 46 -40 70 -32 hvcurveto
          131 -61 120 -9 -103 vvcurveto
          -53 -32 -43 -100 vhcurveto
          -119 -26 76 -32 hhcurveto
          -11 -7 -5 -11 -5 hvcurveto
          -8 -13 -12 2 -6 -9 rrcurveto
          -7 -12 -2 1 -8 vvcurveto
          -3 0 -5 3 -7 vhcurveto
          -21 10 55 -63 113 7 5 1 7 hhcurveto
          -19 -46 -21 -13 -9 vvcurveto
          -4 -78 callsubr
          5 5 10 25 hhcurveto
          12 18 -8 -21 -34 callsubr
          -2 -5 -14 17 -32 44 43 40 27 48 hvcurveto
          endchar
        </CharString>
        <CharString name="Scircumflex">
          -96 callsubr
          -95 138 rmoveto
          -8 8 -46 54 -24 42 rrcurveto
          9 -5 -4 3 -7 hhcurveto
          -5 -4 -3 -5 -5 hvcurveto
          -51 -67 -24 -23 -11 -13 rrcurveto
          -3 -4 -2 -3 -31 callsubr
          -2 5 2 3 -70 callsubr
          vhcurveto
          15 6 46 26 24 24 38 -43 37 -13 11 -3 rrcurveto
          -1 3 -51 callgsubr
          hhcurveto
          -74 callgsubr
          3 2 -66 callsubr
          hvcurveto
          endchar
        </CharString>
        <CharString name="T">
          -92 callsubr
          endchar
        </CharString>
        <CharString name="Tbar">
          241 375 580 rmoveto
          15 0 11 -5 -8 -16 -24 -5 -23 vhcurveto
          -23 -5 -8 -21 -1 -29 -5 -93 -3 -78 -4 -65 -97 -9 rcurveline
          -12 -1 -3 -3 -1 -7 rrcurveto
          -6 -14 0 5 -10 vvcurveto
          -7 0 -5 4 -3 vhcurveto
          3 -3 53 1 57 -3 -5 -112 -3 -68 -1 -40 rrcurveto
          -1 -23 0 -17 -11 vvcurveto
          -6 0 -13 5 10 14 19 3 23 vhcurveto
          28 5 4 17 15 vvcurveto
          20 4 101 5 111 vhcurveto
          86 31 15 9 hvcurveto
          8 vlineto
          11 2 1 9 -54 callgsubr
          3 vlineto
          4 -5 5 -7 -12 -41 -3 -5 -52 vhcurveto
          5 141 7 135 11 vvcurveto
          215 85 rmoveto
          1 5 4 -67 callgsubr
          10 -8 17 -104 -55 -79 -4 -13 -69 vhcurveto
          -147 -16 -121 -105 -111 vvcurveto
          -117 95 -24 25 17 8 3 7 3 -2 -78 callsubr
          -17 17 -53 61 64 vvcurveto
          105 194 30 156 vhcurveto
          47 39 -3 16 hhcurveto
          17 17 11 15 1 hvcurveto
          3 13 15 5 3 13 rrcurveto
          endchar
        </CharString>
        <CharString name="Tcaron">
          -92 callsubr
          -123 278 -105 callsubr
        </CharString>
        <CharString name="Tcommaaccent">
          -92 callsubr
          -31 -736 -28 callsubr
          -25 38 -2 7 -81 callsubr
          1 -19 callgsubr
          0 -1 -8 callsubr
          -42 -39 rlineto
          -3 -77 callgsubr
          -3 vvcurveto
          -78 callgsubr
          3 -3 -29 callgsubr
          22 -28 -34 vvcurveto
          -13 -5 -14 -7 -15 vhcurveto
          -82 callsubr
          3 4 -70 callsubr
          -18 callsubr
          17 26 43 13 32 -45 callsubr
          1 6 7 vvcurveto
          3 0 -83 callsubr
          endchar
        </CharString>
        <CharString name="Thorn">
          352 309 518 rmoveto
          107 86 -56 -144 -113 -56 -88 -168 -13 hvcurveto
          -8 -3 -8 -7 -16 18 3 16 188 115 103 163 132 -90 123 -177 -13 -15 -1 -1 -13 hvcurveto
          4 20 4 20 5 19 rrcurveto
          1 9 1 4 7 vvcurveto
          9 -12 4 -5 -15 -11 -10 -13 -7 vhcurveto
          -11 -7 -5 -4 -5 hvcurveto
          -9 -8 -5 -7 -5 -21 -5 -29 rlinecurve
          -3 -13 rlineto
          -121 -43 -71 -94 -77 vvcurveto
          -94 82 -42 31 12 3 0 callgsubr
          -3 6 -3 4 vhcurveto
          -12 12 -33 54 55 vvcurveto
          69 46 41 57 19 vhcurveto
          -11 -85 -17 -133 -5 -126 rrcurveto
          -3 -66 -2 -88 -25 vvcurveto
          -11 1 -18 15 vhcurveto
          7 3 7 7 13 12 -16 16 hhcurveto
          11 -1 19 callsubr
          19 1 78 64 vvcurveto
          47 9 172 27 178 vhcurveto
          1 9 9 0 9 hhcurveto
          endchar
        </CharString>
        <CharString name="U">
          474 628 73 rmoveto
          70 57 459 5 33 vhcurveto
          1 9 rlineto
          5 5 callgsubr
          vhcurveto
          -24 -7 -27 -5 -35 callgsubr
          -21 -6 -6 -3 -1 hvcurveto
          -10 -15 -43 -420 -5 -23 rrcurveto
          -79 -21 -47 -68 -78 hhcurveto
          -51 -43 34 123 hvcurveto
          118 38 116 120 vvcurveto
          123 -70 48 -75 -100 -89 -96 -105 -138 116 -19 20 10 5 2 4 -15 callgsubr
          -3 3 vhcurveto
          -10 5 -53 52 92 vvcurveto
          100 50 45 43 36 33 -33 -85 17 callsubr
          -42 -135 -104 vvcurveto
          -144 78 -72 88 26 84 7 135 56 vhcurveto
          -1 -8 rlineto
          -48 17 -71 60 45 29 40 21 16 vhcurveto
          3 -81 callgsubr
          vhcurveto
          -8 -15 -20 -22 hhcurveto
          -19 -20 15 45 hvcurveto
          endchar
        </CharString>
        <CharString name="Uacute">
          474 628 73 rmoveto
          70 57 459 5 33 vhcurveto
          1 9 rlineto
          5 5 callgsubr
          vhcurveto
          -24 -7 -27 -5 -35 callgsubr
          -21 -6 -6 -3 -1 hvcurveto
          -10 -15 -43 -420 -5 -23 rrcurveto
          -79 -21 -47 -68 -78 hhcurveto
          -51 -43 34 123 hvcurveto
          118 38 116 120 vvcurveto
          123 -70 48 -75 -100 -89 -96 -105 -138 116 -19 20 10 5 2 4 -15 callgsubr
          -3 3 vhcurveto
          -10 5 -53 52 92 vvcurveto
          100 50 45 43 36 33 -33 -85 17 callsubr
          -42 -135 -104 vvcurveto
          -144 78 -72 88 26 84 7 135 56 vhcurveto
          -1 -8 rlineto
          -48 17 -71 60 45 29 40 21 16 vhcurveto
          3 -81 callgsubr
          vhcurveto
          -8 -15 -20 -22 hhcurveto
          -19 -20 15 45 hvcurveto
          -74 734 rmoveto
          -9 8 -4 1 -7 5 -107 callgsubr
          endchar
        </CharString>
        <CharString name="Ubreve">
          474 628 73 rmoveto
          70 57 459 5 33 vhcurveto
          1 9 rlineto
          5 5 callgsubr
          vhcurveto
          -24 -7 -27 -5 -35 callgsubr
          -21 -6 -6 -3 -1 hvcurveto
          -10 -15 -43 -420 -5 -23 rrcurveto
          -79 -21 -47 -68 -78 hhcurveto
          -51 -43 34 123 hvcurveto
          118 38 116 120 vvcurveto
          123 -70 48 -75 -100 -89 -96 -105 -138 116 -19 20 10 5 2 4 -15 callgsubr
          -3 3 vhcurveto
          -10 5 -53 52 92 vvcurveto
          100 50 45 43 36 33 -33 -85 17 callsubr
          -42 -135 -104 vvcurveto
          -144 78 -72 88 26 84 7 135 56 vhcurveto
          -1 -8 rlineto
          -48 17 -71 60 45 29 40 21 16 vhcurveto
          3 -81 callgsubr
          vhcurveto
          -8 -15 -20 -22 hhcurveto
          -19 -20 15 45 hvcurveto
          -49 745 -97 callsubr
        </CharString>
        <CharString name="Ucircumflex">
          474 628 73 rmoveto
          70 57 459 5 33 vhcurveto
          1 9 rlineto
          5 5 callgsubr
          vhcurveto
          -24 -7 -27 -5 -35 callgsubr
          -21 -6 -6 -3 -1 hvcurveto
          -10 -15 -43 -420 -5 -23 rrcurveto
          -79 -21 -47 -68 -78 hhcurveto
          -51 -43 34 123 hvcurveto
          118 38 116 120 vvcurveto
          123 -70 48 -75 -100 -89 -96 -105 -138 116 -19 20 10 5 2 4 -15 callgsubr
          -3 3 vhcurveto
          -10 5 -53 52 92 vvcurveto
          100 50 45 43 36 33 -33 -85 17 callsubr
          -42 -135 -104 vvcurveto
          -144 78 -72 88 26 84 7 135 56 vhcurveto
          -1 -8 rlineto
          -48 17 -71 60 45 29 40 21 16 vhcurveto
          3 -81 callgsubr
          vhcurveto
          -8 -15 -20 -22 hhcurveto
          -19 -20 15 45 hvcurveto
          -58 645 rmoveto
          -8 8 -46 54 -24 42 rrcurveto
          9 -5 -4 3 -7 hhcurveto
          -5 -4 -3 -5 -5 hvcurveto
          -51 -67 -24 -23 -11 -13 rrcurveto
          -3 -4 -2 -3 -31 callsubr
          -2 5 2 3 -70 callsubr
          vhcurveto
          15 6 46 26 24 24 38 -43 37 -13 11 -3 rrcurveto
          -1 3 -51 callgsubr
          hhcurveto
          -74 callgsubr
          3 2 -66 callsubr
          hvcurveto
          endchar
        </CharString>
        <CharString name="Udieresis">
          474 628 73 rmoveto
          70 57 459 5 33 vhcurveto
          1 9 rlineto
          5 5 callgsubr
          vhcurveto
          -24 -7 -27 -5 -35 callgsubr
          -21 -6 -6 -3 -1 hvcurveto
          -10 -15 -43 -420 -5 -23 rrcurveto
          -79 -21 -47 -68 -78 hhcurveto
          -51 -43 34 123 hvcurveto
          118 38 116 120 vvcurveto
          123 -70 48 -75 -100 -89 -96 -105 -138 116 -19 20 10 5 2 4 -15 callgsubr
          -3 3 vhcurveto
          -10 5 -53 52 92 vvcurveto
          100 50 45 43 36 33 -33 -85 17 callsubr
          -42 -135 -104 vvcurveto
          -144 78 -72 88 26 84 7 135 56 vhcurveto
          -1 -8 rlineto
          -48 17 -71 60 45 29 40 21 16 vhcurveto
          3 -81 callgsubr
          vhcurveto
          -8 -15 -20 -22 hhcurveto
          -19 -20 15 45 hvcurveto
          -173 695 -94 callsubr
          4 -7 6 -13 8 -12 rrcurveto
          -8 5 2 -7 7 hhcurveto
          -74 callgsubr
          4 5 hvcurveto
          9 5 6 8 15 11 rrcurveto
          7 -43 callsubr
          7 vvcurveto
          2 0 -83 callsubr
          124 hmoveto
          -3 5 -25 40 -2 -63 callsubr
          -1 -1 1 -19 callgsubr
          -2 -77 callgsubr
          hvcurveto
          -41 -38 rlineto
          -3 -77 callgsubr
          -3 vvcurveto
          -3 2 -59 callsubr
          4 -7 6 -13 8 -12 rrcurveto
          -8 5 2 -7 7 hhcurveto
          -74 callgsubr
          4 5 hvcurveto
          9 5 6 8 15 11 rrcurveto
          7 -43 callsubr
          7 vvcurveto
          2 0 -83 callsubr
          endchar
        </CharString>
        <CharString name="Ugrave">
          474 628 73 rmoveto
          70 57 459 5 33 vhcurveto
          1 9 rlineto
          5 5 callgsubr
          vhcurveto
          -24 -7 -27 -5 -35 callgsubr
          -21 -6 -6 -3 -1 hvcurveto
          -10 -15 -43 -420 -5 -23 rrcurveto
          -79 -21 -47 -68 -78 hhcurveto
          -51 -43 34 123 hvcurveto
          118 38 116 120 vvcurveto
          123 -70 48 -75 -100 -89 -96 -105 -138 116 -19 20 10 5 2 4 -15 callgsubr
          -3 3 vhcurveto
          -10 5 -53 52 92 vvcurveto
          100 50 45 43 36 33 -33 -85 17 callsubr
          -42 -135 -104 vvcurveto
          -144 78 -72 88 26 84 7 135 56 vhcurveto
          -1 -8 rlineto
          -48 17 -71 60 45 29 40 21 16 vhcurveto
          3 -81 callgsubr
          vhcurveto
          -8 -15 -20 -22 hhcurveto
          -19 -20 15 45 hvcurveto
          -132 646 rmoveto
          -7 9 -34 42 -13 56 rrcurveto
          7 -2 -48 callsubr
          hhcurveto
          -4 -2 -16 callsubr
          hvcurveto
          -4 -4 callsubr
          -4 -3 rrcurveto
          -20 -13 -4 -4 -9 vvcurveto
          -19 36 -42 62 -30 vhcurveto
          -1 2 2 0 1 hhcurveto
          4 -44 callsubr
          -60 callsubr
          hvcurveto
          endchar
        </CharString>
        <CharString name="Uhungarumlaut">
          474 628 73 rmoveto
          70 57 459 5 33 vhcurveto
          1 9 rlineto
          5 5 callgsubr
          vhcurveto
          -24 -7 -27 -5 -35 callgsubr
          -21 -6 -6 -3 -1 hvcurveto
          -10 -15 -43 -420 -5 -23 rrcurveto
          -79 -21 -47 -68 -78 hhcurveto
          -51 -43 34 123 hvcurveto
          118 38 116 120 vvcurveto
          123 -70 48 -75 -100 -89 -96 -105 -138 116 -19 20 10 5 2 4 -15 callgsubr
          -3 3 vhcurveto
          -10 5 -53 52 92 vvcurveto
          100 50 45 43 36 33 -33 -85 17 callsubr
          -42 -135 -104 vvcurveto
          -144 78 -72 88 26 84 7 135 56 vhcurveto
          -1 -8 rlineto
          -48 17 -71 60 45 29 40 21 16 vhcurveto
          3 -81 callgsubr
          vhcurveto
          -8 -15 -20 -22 hhcurveto
          -19 -20 15 45 hvcurveto
          -129 748 rmoveto
          -107 callgsubr
          80 hmoveto
          -9 8 -4 1 -7 5 -107 callgsubr
          endchar
        </CharString>
        <CharString name="Umacron">
          474 628 73 rmoveto
          70 57 459 5 33 vhcurveto
          1 9 rlineto
          5 5 callgsubr
          vhcurveto
          -24 -7 -27 -5 -35 callgsubr
          -21 -6 -6 -3 -1 hvcurveto
          -10 -15 -43 -420 -5 -23 rrcurveto
          -79 -21 -47 -68 -78 hhcurveto
          -51 -43 34 123 hvcurveto
          118 38 116 120 vvcurveto
          123 -70 48 -75 -100 -89 -96 -105 -138 116 -19 20 10 5 2 4 -15 callgsubr
          -3 3 vhcurveto
          -10 5 -53 52 92 vvcurveto
          100 50 45 43 36 33 -33 -85 17 callsubr
          -42 -135 -104 vvcurveto
          -144 78 -72 88 26 84 7 135 56 vhcurveto
          -1 -8 rlineto
          -48 17 -71 60 45 29 40 21 16 vhcurveto
          3 -81 callgsubr
          vhcurveto
          -8 -15 -20 -22 hhcurveto
          -19 -20 15 45 hvcurveto
          -48 737 -101 callgsubr
        </CharString>
        <CharString name="Uogonek">
          474 658 -204 rmoveto
          61 14 63 8 5 -1 2 -3 21 callsubr
          -3 -2 hvcurveto
          -13 -11 -12 -18 -23 hhcurveto
          -19 -26 14 42 64 50 10 33 47 hvcurveto
          3 -81 callgsubr
          vhcurveto
          -8 -15 -20 -22 hhcurveto
          -19 -20 15 45 70 57 459 5 33 hvcurveto
          1 9 rlineto
          5 5 callgsubr
          vhcurveto
          -24 -7 -27 -5 -35 callgsubr
          -21 -6 -6 -3 -1 hvcurveto
          -10 -15 -43 -420 -5 -23 rrcurveto
          -79 -21 -47 -68 -78 hhcurveto
          -51 -43 34 123 hvcurveto
          118 38 116 120 vvcurveto
          123 -70 48 -75 -100 -89 -96 -105 -138 116 -19 20 10 5 2 4 -15 callgsubr
          -3 3 vhcurveto
          -10 5 -53 52 92 vvcurveto
          100 50 45 43 36 33 -33 -85 17 callsubr
          -42 -135 -104 vvcurveto
          -144 78 -72 88 26 84 7 135 56 vhcurveto
          -1 -8 rlineto
          -46 15 -68 60 -5 vhcurveto
          -27 -28 -10 -24 -31 vvcurveto
          -43 32 -33 40 vhcurveto
          endchar
        </CharString>
        <CharString name="Uring">
          474 628 73 rmoveto
          70 57 459 5 33 vhcurveto
          1 9 rlineto
          5 5 callgsubr
          vhcurveto
          -24 -7 -27 -5 -35 callgsubr
          -21 -6 -6 -3 -1 hvcurveto
          -10 -15 -43 -420 -5 -23 rrcurveto
          -79 -21 -47 -68 -78 hhcurveto
          -51 -43 34 123 hvcurveto
          118 38 116 120 vvcurveto
          123 -70 48 -75 -100 -89 -96 -105 -138 116 -19 20 10 5 2 4 -15 callgsubr
          -3 3 vhcurveto
          -10 5 -53 52 92 vvcurveto
          100 50 45 43 36 33 -33 -85 17 callsubr
          -42 -135 -104 vvcurveto
          -144 78 -72 88 26 84 7 135 56 vhcurveto
          -1 -8 rlineto
          -48 17 -71 60 45 29 40 21 16 vhcurveto
          3 -81 callgsubr
          vhcurveto
          -8 -15 -20 -22 hhcurveto
          -19 -20 15 45 hvcurveto
          -80 706 -87 callgsubr
        </CharString>
        <CharString name="Utilde">
          474 628 73 rmoveto
          70 57 459 5 33 vhcurveto
          1 9 rlineto
          5 5 callgsubr
          vhcurveto
          -24 -7 -27 -5 -35 callgsubr
          -21 -6 -6 -3 -1 hvcurveto
          -10 -15 -43 -420 -5 -23 rrcurveto
          -79 -21 -47 -68 -78 hhcurveto
          -51 -43 34 123 hvcurveto
          118 38 116 120 vvcurveto
          123 -70 48 -75 -100 -89 -96 -105 -138 116 -19 20 10 5 2 4 -15 callgsubr
          -3 3 vhcurveto
          -10 5 -53 52 92 vvcurveto
          100 50 45 43 36 33 -33 -85 17 callsubr
          -42 -135 -104 vvcurveto
          -144 78 -72 88 26 84 7 135 56 vhcurveto
          -1 -8 rlineto
          -48 17 -71 60 45 29 40 21 16 vhcurveto
          3 -81 callgsubr
          vhcurveto
          -8 -15 -20 -22 hhcurveto
          -19 -20 15 45 hvcurveto
          -118 650 -99 callgsubr
        </CharString>
        <CharString name="V">
          438 699 646 rmoveto
          -3 8 -14 -2 -10 7 -6 8 -2 14 -9 2 -11 5 -6 -4 -20 9 rrcurveto
          3 -5 -4 1 -4 hhcurveto
          -8 -5 -8 -16 -1 hvcurveto
          -11 4 -23 -35 vvcurveto
          -57 -7 -52 -5 -37 vhcurveto
          -3 -23 -4 -20 -5 -19 rrcurveto
          -212 -48 -112 -179 -64 hhcurveto
          -9 -3 6 5 hvcurveto
          22 5 74 115 vvcurveto
          116 -5 154 -24 179 vhcurveto
          15 -1 -8 6 -16 hhcurveto
          -5 -5 0 -1 -6 hvcurveto
          -139 -21 -116 -103 -117 vvcurveto
          -126 102 -14 20 15 8 27 callsubr
          -27 callgsubr
          3 vhcurveto
          -24 24 -43 48 69 vvcurveto
          52 28 53 96 16 vhcurveto
          6 1 rlineto
          4 0 -3 -5 1 hvcurveto
          28 -168 7 -148 -113 -95 -5 -66 -28 vvcurveto
          -13 13 -19 29 20 26 7 24 37 vhcurveto
          137 90 58 114 42 84 rrcurveto
          79 148 6 160 58 12 -1 10 1 vvcurveto
          endchar
        </CharString>
        <CharString name="W">
          -105 callgsubr
          endchar
        </CharString>
        <CharString name="Wacute">
          -105 callgsubr
          308 828 rmoveto
          -9 8 -4 1 -7 5 -107 callgsubr
          endchar
        </CharString>
        <CharString name="Wcircumflex">
          -105 callgsubr
          323 739 rmoveto
          -8 8 -46 54 -24 42 rrcurveto
          9 -5 -4 3 -7 hhcurveto
          -5 -4 -3 -5 -5 hvcurveto
          -51 -67 -24 -23 -11 -13 rrcurveto
          -3 -4 -2 -3 -31 callsubr
          -2 5 2 3 -70 callsubr
          vhcurveto
          15 6 46 26 24 24 38 -43 37 -13 11 -3 rrcurveto
          -1 3 -51 callgsubr
          hhcurveto
          -74 callgsubr
          3 2 -66 callsubr
          hvcurveto
          endchar
        </CharString>
        <CharString name="Wdieresis">
          -105 callgsubr
          208 789 -94 callsubr
          4 -7 6 -13 8 -12 rrcurveto
          -8 5 2 -7 7 hhcurveto
          -74 callgsubr
          4 5 hvcurveto
          9 5 6 8 15 11 rrcurveto
          7 -43 callsubr
          7 vvcurveto
          2 0 -83 callsubr
          124 hmoveto
          -3 5 -25 40 -2 -63 callsubr
          -1 -1 1 -19 callgsubr
          -2 -77 callgsubr
          hvcurveto
          -41 -38 rlineto
          -3 -77 callgsubr
          -3 vvcurveto
          -3 2 -59 callsubr
          4 -7 6 -13 8 -12 rrcurveto
          -8 5 2 -7 7 hhcurveto
          -74 callgsubr
          4 5 hvcurveto
          9 5 6 8 15 11 rrcurveto
          7 -43 callsubr
          7 vvcurveto
          2 0 -83 callsubr
          endchar
        </CharString>
        <CharString name="Wgrave">
          -105 callgsubr
          250 740 rmoveto
          -7 9 -34 42 -13 56 rrcurveto
          7 -2 -48 callsubr
          hhcurveto
          -4 -2 -16 callsubr
          hvcurveto
          -4 -4 callsubr
          -4 -3 rrcurveto
          -20 -13 -4 -4 -9 vvcurveto
          -19 36 -42 62 -30 vhcurveto
          -1 2 2 0 1 hhcurveto
          4 -44 callsubr
          -60 callsubr
          hvcurveto
          endchar
        </CharString>
        <CharString name="X">
          458 774 -149 rmoveto
          -12 12 -122 92 -68 173 -17 45 -23 54 -20 56 rrcurveto
          127 159 96 211 6 vvcurveto
          1 -65 callsubr
          3 vvcurveto
          12 -7 7 -9 vhcurveto
          -11 -4 -11 -9 -7 4 18 -18 -9 1 -4 -3 -3 -7 4 -4 hhcurveto
          -9 -8 -11 -24 -11 hvcurveto
          -27 -64 -33 -87 -83 -142 -25 67 -23 61 -19 44 rrcurveto
          126 -51 -59 31 -83 hhcurveto
          -116 -89 -79 -140 -109 80 -73 105 6 3 2 4 10 callgsubr
          -6 5 hvcurveto
          -16 12 -86 44 133 vvcurveto
          87 44 64 74 64 19 -72 -148 54 vhcurveto
          23 -60 20 -55 21 -52 -115 -169 -117 -111 -21 -24 rrcurveto
          -5 -5 -2 -5 -4 vvcurveto
          -8 8 -5 11 9 13 3 9 11 vhcurveto
          24 19 104 103 107 131 83 -192 88 -121 148 -53 rrcurveto
          -1 4 3 -1 -5 callgsubr
          2 5 5 -3 4 -6 4 hvcurveto
          endchar
        </CharString>
        <CharString name="Y">
          -103 callgsubr
          endchar
        </CharString>
        <CharString name="Yacute">
          -103 callgsubr
          241 1051 rmoveto
          -9 8 -4 1 -7 5 -107 callgsubr
          endchar
        </CharString>
        <CharString name="Ycircumflex">
          -103 callgsubr
          257 962 rmoveto
          -8 8 -46 54 -24 42 rrcurveto
          9 -5 -4 3 -7 hhcurveto
          -5 -4 -3 -5 -5 hvcurveto
          -51 -67 -24 -23 -11 -13 rrcurveto
          -3 -4 -2 -3 -31 callsubr
          -2 5 2 3 -70 callsubr
          vhcurveto
          15 6 46 26 24 24 38 -43 37 -13 11 -3 rrcurveto
          -1 3 -51 callgsubr
          hhcurveto
          -74 callgsubr
          3 2 -66 callsubr
          hvcurveto
          endchar
        </CharString>
        <CharString name="Ydieresis">
          -103 callgsubr
          142 1012 -94 callsubr
          4 -7 6 -13 8 -12 rrcurveto
          -8 5 2 -7 7 hhcurveto
          -74 callgsubr
          4 5 hvcurveto
          9 5 6 8 15 11 rrcurveto
          7 -43 callsubr
          7 vvcurveto
          2 0 -83 callsubr
          124 hmoveto
          -3 5 -25 40 -2 -63 callsubr
          -1 -1 1 -19 callgsubr
          -2 -77 callgsubr
          hvcurveto
          -41 -38 rlineto
          -3 -77 callgsubr
          -3 vvcurveto
          -3 2 -59 callsubr
          4 -7 6 -13 8 -12 rrcurveto
          -8 5 2 -7 7 hhcurveto
          -74 callgsubr
          4 5 hvcurveto
          9 5 6 8 15 11 rrcurveto
          7 -43 callsubr
          7 vvcurveto
          2 0 -83 callsubr
          endchar
        </CharString>
        <CharString name="Ygrave">
          -103 callgsubr
          183 963 rmoveto
          -7 9 -34 42 -13 56 rrcurveto
          7 -2 -48 callsubr
          hhcurveto
          -4 -2 -16 callsubr
          hvcurveto
          -4 -4 callsubr
          -4 -3 rrcurveto
          -20 -13 -4 -4 -9 vvcurveto
          -19 36 -42 62 -30 vhcurveto
          -1 2 2 0 1 hhcurveto
          4 -44 callsubr
          -60 callsubr
          hvcurveto
          endchar
        </CharString>
        <CharString name="Z">
          -99 callsubr
          endchar
        </CharString>
        <CharString name="Zacute">
          -99 callsubr
          270 1080 rmoveto
          -9 8 -4 1 -7 5 -107 callgsubr
          endchar
        </CharString>
        <CharString name="Zcaron">
          -99 callsubr
          95 1093 -105 callsubr
        </CharString>
        <CharString name="Zdotaccent">
          -99 callsubr
          242 1041 -94 callsubr
          5 -8 28 callsubr
          -11 rrcurveto
          -5 3 2 -3 5 hhcurveto
          9 callgsubr
          3 4 30 callsubr
          11 11 16 12 rrcurveto
          6 4 3 -67 callgsubr
          2 0 -83 callsubr
          endchar
        </CharString>
        <CharString name="a">
          -20 272 170 rmoveto
          -104 callsubr
          49 23 61 116 40 hvcurveto
          endchar
        </CharString>
        <CharString name="aacute">
          -20 272 170 rmoveto
          -104 callsubr
          49 23 61 116 40 hvcurveto
          -40 304 rmoveto
          -9 8 -4 1 -7 5 -107 callgsubr
          endchar
        </CharString>
        <CharString name="abreve">
          -20 272 170 rmoveto
          -104 callsubr
          49 23 61 116 40 hvcurveto
          -16 315 -97 callsubr
        </CharString>
        <CharString name="acircumflex">
          -20 272 170 rmoveto
          -104 callsubr
          49 23 61 116 40 hvcurveto
          -25 215 rmoveto
          -8 8 -46 54 -24 42 rrcurveto
          9 -5 -4 3 -7 hhcurveto
          -5 -4 -3 -5 -5 hvcurveto
          -51 -67 -24 -23 -11 -13 rrcurveto
          -3 -4 -2 -3 -31 callsubr
          -2 5 2 3 -70 callsubr
          vhcurveto
          15 6 46 26 24 24 38 -43 37 -13 11 -3 rrcurveto
          -1 3 -51 callgsubr
          hhcurveto
          -74 callgsubr
          3 2 -66 callsubr
          hvcurveto
          endchar
        </CharString>
        <CharString name="acute">
          -32 173 474 rmoveto
          -9 8 -4 1 -7 5 -107 callgsubr
          endchar
        </CharString>
        <CharString name="adieresis">
          -20 272 170 rmoveto
          -104 callsubr
          49 23 61 116 40 hvcurveto
          -140 265 -94 callsubr
          4 -7 6 -13 8 -12 rrcurveto
          -8 5 2 -7 7 hhcurveto
          -74 callgsubr
          4 5 hvcurveto
          9 5 6 8 15 11 rrcurveto
          7 -43 callsubr
          7 vvcurveto
          2 0 -83 callsubr
          124 hmoveto
          -3 5 -25 40 -2 -63 callsubr
          -1 -1 1 -19 callgsubr
          -2 -77 callgsubr
          hvcurveto
          -41 -38 rlineto
          -3 -77 callgsubr
          -3 vvcurveto
          -3 2 -59 callsubr
          4 -7 6 -13 8 -12 rrcurveto
          -8 5 2 -7 7 hhcurveto
          -74 callgsubr
          4 5 hvcurveto
          9 5 6 8 15 11 rrcurveto
          7 -43 callsubr
          7 vvcurveto
          2 0 -83 callsubr
          endchar
        </CharString>
        <CharString name="ae">
          -88 callgsubr
          endchar
        </CharString>
        <CharString name="aeacute">
          -88 callgsubr
          70 308 rmoveto
          -9 8 -4 1 -7 5 -107 callgsubr
          endchar
        </CharString>
        <CharString name="agrave">
          -20 272 170 rmoveto
          -104 callsubr
          49 23 61 116 40 hvcurveto
          -98 216 rmoveto
          -7 9 -34 42 -13 56 rrcurveto
          7 -2 -48 callsubr
          hhcurveto
          -4 -2 -16 callsubr
          hvcurveto
          -4 -4 callsubr
          -4 -3 rrcurveto
          -20 -13 -4 -4 -9 vvcurveto
          -19 36 -42 62 -30 vhcurveto
          -1 2 2 0 1 hhcurveto
          4 -44 callsubr
          -60 callsubr
          hvcurveto
          endchar
        </CharString>
        <CharString name="amacron">
          -20 272 170 rmoveto
          -104 callsubr
          49 23 61 116 40 hvcurveto
          -15 307 -101 callgsubr
        </CharString>
        <CharString name="ampersand">
          192 483 -46 rmoveto
          -35 32 -40 45 -39 52 rrcurveto
          36 43 24 49 39 vvcurveto
          89 -75 9 -13 -9 -7 -1 -8 vhcurveto
          -10 26 -24 -59 vvcurveto
          -31 -6 -25 -11 -21 vhcurveto
          -44 67 -41 72 -28 71 rrcurveto
          68 55 67 41 89 vvcurveto
          64 -42 46 -69 -92 -30 -81 -80 -48 5 -44 15 -47 vhcurveto
          -63 -44 -53 -47 -88 vvcurveto
          -90 68 -78 92 52 49 22 33 41 vhcurveto
          71 -69 67 -35 9 -3 rrcurveto
          -1 2 -72 callsubr
          hhcurveto
          5 3 2 4 3 -2 4 -5 4 hvcurveto
          -291 86 rmoveto
          -53 -33 53 66 39 8 36 47 55 hvcurveto
          19 -45 26 -45 36 -51 16 -25 18 -22 19 -20 rrcurveto
          -28 -32 -40 -13 -31 hhcurveto
          -7 461 rmoveto
          68 32 27 17 19 32 -26 -46 -46 -38 -57 -40 -37 vhcurveto
          -15 43 -7 39 35 vvcurveto
          endchar
        </CharString>
        <CharString name="aogonek">
          -20 197 -174 rmoveto
          62 14 61 9 5 -2 2 -3 21 callsubr
          -3 -2 hvcurveto
          -13 -11 -10 -18 -24 hhcurveto
          -21 -24 17 39 43 17 31 10 13 hvcurveto
          23 28 22 50 28 81 rrcurveto
          -104 callsubr
          1 hlineto
          -20 -25 -16 -34 -33 8 callsubr
        </CharString>
        <CharString name="approxequal">
          66 305 301 rmoveto
          8 -2 5 -5 -3 31 callgsubr
          -3 vhcurveto
          -20 -13 -16 -11 -20 -43 -32 41 -42 hhcurveto
          -58 -24 -68 -15 -3 hvcurveto
          1 callgsubr
          -2 -1 vvcurveto
          -7 2 -3 4 3 3 3 6 3 vhcurveto
          19 9 13 8 19 46 34 -39 42 hhcurveto
          56 34 66 20 hvcurveto
          121 vmoveto
          7 -2 6 -5 -3 -3 -3 -3 callsubr
          -67 -15 -46 callgsubr
          66 20 hvcurveto
          endchar
        </CharString>
        <CharString name="aring">
          -20 272 170 rmoveto
          -104 callsubr
          49 23 61 116 40 hvcurveto
          -47 276 -87 callgsubr
        </CharString>
        <CharString name="asciicircum">
          28 271 451 rmoveto
          -13 13 -56 91 -27 51 rrcurveto
          11 -5 -5 4 -8 hhcurveto
          -7 -5 -4 -7 -5 hvcurveto
          -36 -48 -62 -96 -10 -14 rrcurveto
          -2 -3 -1 -2 -3 2 callgsubr
          -2 6 3 3 1 1 -18 callsubr
          7 57 47 26 34 49 -57 48 -32 12 -3 rrcurveto
          -1 2 2 0 2 hhcurveto
          5 5 2 5 3 -1 10 callgsubr
          hvcurveto
          endchar
        </CharString>
        <CharString name="asciitilde">
          66 305 371 rmoveto
          7 -2 5 -5 -3 -3 -2 -3 callsubr
          -68 -14 -46 callgsubr
          65 21 hvcurveto
          endchar
        </CharString>
        <CharString name="asterisk">
          68 221 679 rmoveto
          3 -3 -5 2 -4 -11 -3 -8 -5 -4 -3 3 -4 -5 -6 -6 -7 hhcurveto
          -4 hlineto
          -6 -3 -5 -10 hvcurveto
          -11 4 -21 -23 26 callsubr
          -14 -1 -17 vhcurveto
          -35 8 -37 22 -7 5 rrcurveto
          3 -3 -4 2 -4 hhcurveto
          -3 -3 -1 -8 -4 hvcurveto
          -3 -5 -3 -4 -1 -7 -1 -4 -1 -8 -3 -5 rrcurveto
          -4 -8 -5 -6 -5 vvcurveto
          -19 61 -4 18 7 8 0 1 8 vhcurveto
          -34 -42 -38 -26 -11 vvcurveto
          -3 4 -4 5 -5 vhcurveto
          3 -3 1 -4 3 -1 rrcurveto
          3 -3 2 1 0 vvcurveto
          -3 8 7 -25 12 hhcurveto
          5 4 2 5 3 hvcurveto
          7 9 29 52 16 48 21 -44 16 -58 2 -7 rrcurveto
          -5 2 3 -2 5 hhcurveto
          12 5 9 8 5 hvcurveto
          4 4 3 0 3 4 4 4 17 callgsubr
          1 rrcurveto
          3 1 9 6 8 vvcurveto
          2 0 1 -1 1 vhcurveto
          -4 11 -13 25 -25 31 -3 4 rcurveline
          -10 11 rlineto
          38 42 6 2 6 hvcurveto
          7 4 17 2 hvcurveto
          4 -7 3 7 4 2 -44 callsubr
          -2 4 5 -70 callsubr
          1 vvcurveto
          5 -3 5 -7 vhcurveto
          -37 callsubr
          -1 hhcurveto
          -8 -5 -46 -18 -45 -16 rrcurveto
          20 41 8 47 19 vvcurveto
          5 0 3 -1 2 vhcurveto
          endchar
        </CharString>
        <CharString name="at">
          530 547 149 rmoveto
          95 115 85 177 189 -142 91 -144 -263 -159 -209 -201 -221 134 -80 164 108 92 54 23 7 -5 4 -10 hvcurveto
          -15 -58 -39 -95 hhcurveto
          -128 -98 86 174 239 175 115 134 147 78 -91 -142 -163 -78 -36 -43 -37 -22 33 60 -8 hvcurveto
          7 -1 -1 3 -3 -11 -22 -76 -44 hhcurveto
          -17 -18 21 49 37 18 74 35 17 0 -23 -13 hvcurveto
          -15 -5 -18 -8 2 callgsubr
          -3 7 44 27 60 39 36 -19 13 -19 -28 -50 -27 -48 -40 vhcurveto
          -40 -51 -17 -48 -56 vvcurveto
          -53 27 -40 30 40 41 57 9 6 vhcurveto
          3 1 1 1 1 hhcurveto
          1 1 -3 -1 1 hvcurveto
          -26 5 25 -50 67 hhcurveto
          endchar
        </CharString>
        <CharString name="atilde">
          -20 272 170 rmoveto
          -104 callsubr
          49 23 61 116 40 hvcurveto
          -85 220 -99 callgsubr
        </CharString>
        <CharString name="b">
          2 288 -62 callsubr
          -6 -5 -30 callgsubr
          -11 -23 -21 -16 -25 -1 rrcurveto
          9 31 3 32 28 vvcurveto
          66 -30 32 -38 -45 -24 -36 -41 -43 28 -47 37 -27 vhcurveto
          -50 -5 -15 -42 -30 hhcurveto
          -20 -16 31 81 206 44 218 16 56 hvcurveto
          -30 callsubr
          6 5 vvcurveto
          9 -3 5 -6 -7 -11 -5 -16 -16 vhcurveto
          -18 -18 -12 -2 -8 -19 -13 -31 -7 -33 -13 -102 rrcurveto
          -13 -101 -6 -121 -41 vvcurveto
          -67 4 -109 83 61 40 52 65 22 vhcurveto
          1 hlineto
          36 31 19 39 15 hvcurveto
          1 -65 callsubr
          -73 callsubr
          -3 3 -4 vhcurveto
          -139 -12 rmoveto
          -13 20 -13 28 23 vvcurveto
          9 2 8 5 6 vhcurveto
          15 -3 14 -23 -65 vvcurveto
          -17 vlineto
          -4 4 -3 5 -3 5 rrcurveto
          endchar
        </CharString>
        <CharString name="backslash">
          79 5 655 rmoveto
          -15 50 -159 83 -176 vhcurveto
          84 -179 90 -160 21 -29 rrcurveto
          -11 9 13 -6 9 18 callsubr
          3 8 -29 callsubr
          -3 5 hvcurveto
          -19 27 -70 135 -70 193 -59 169 -30 99 -13 67 rrcurveto
          28 -7 -4 12 -12 -3 -4 -1 -3 -5 0 7 -11 -13 -2 -14 -5 -10 -3 16 -11 hhcurveto
          -13 -4 -12 -13 hvcurveto
          endchar
        </CharString>
        <CharString name="bar">
          -26 171 739 rmoveto
          15 0 11 -5 -14 -1 -25 -5 -22 vhcurveto
          -23 -5 -9 -21 -28 vvcurveto
          -5 -215 -4 -184 -4 -135 -1 -78 -2 -71 -2 -63 rrcurveto
          -12 0 -6 5 12 4 17 5 21 vhcurveto
          28 3 4 21 13 2 1 27 2 vvcurveto
          6 51 11 664 17 vvcurveto
          endchar
        </CharString>
        <CharString name="braceleft">
          37 279 637 rmoveto
          5 0 8 -11 6 vhcurveto
          -3 1 -2 1 3 5 4 5 3 vvcurveto
          -1 5 rlineto
          4 -2 -10 33 -15 hhcurveto
          -5 -5 -2 -3 -6 hvcurveto
          -69 -32 -86 -53 -121 vvcurveto
          -48 16 -45 27 -29 vhcurveto
          17 -19 11 -9 -5 vvcurveto
          -18 callgsubr
          -4 -3 vhcurveto
          -26 -18 -44 -24 -10 -27 84 29 -65 -65 -65 -25 -84 vvcurveto
          -133 142 -34 32 12 3 4 5 -29 callsubr
          -4 3 vhcurveto
          -72 35 -38 64 60 52 41 37 54 vvcurveto
          21 -7 19 -13 17 vhcurveto
          -4 5 -5 4 -6 3 -9 8 -14 7 -19 7 24 11 16 7 8 5 13 7 rcurveline
          5 3 2 5 5 vvcurveto
          8 -6 9 -9 16 vhcurveto
          -25 37 -10 35 29 121 142 36 6 vvcurveto
          endchar
        </CharString>
        <CharString name="braceright">
          37 35 637 rmoveto
          -6 142 -36 -121 vvcurveto
          -29 -10 -35 -25 -37 vhcurveto
          -11 -16 -5 -9 -8 vvcurveto
          5 callgsubr
          5 -3 vhcurveto
          12 -7 8 -5 16 -7 24 -11 rlinecurve
          -19 29 callgsubr
          -11 -8 -5 -3 -5 27 callgsubr
          rrcurveto
          -14 -17 -7 -19 -21 -54 41 -37 -52 vvcurveto
          -60 -39 -64 -70 -35 vhcurveto
          -5 -3 -22 callsubr
          -5 4 -4 11 34 140 34 133 vhcurveto
          84 -65 25 65 65 84 -29 27 vvcurveto
          12 -43 20 -26 20 vhcurveto
          -4 3 -2 2 -73 callsubr
          11 9 17 19 vhcurveto
          27 29 15 45 48 vvcurveto
          121 -86 53 -68 32 vhcurveto
          3 -7 -5 2 -5 hhcurveto
          -15 -11 -33 -4 hvcurveto
          -1 -5 rlineto
          28 callgsubr
          -5 vvcurveto
          -37 callsubr
          -3 -1 vhcurveto
          -11 -6 0 -8 -5 vvcurveto
          endchar
        </CharString>
        <CharString name="bracketleft">
          36 288 622 rmoveto
          8 -4 11 -1 7 vhcurveto
          0 3 6 8 5 -2 5 5 9 3 6 7 vvcurveto
          5 -2 5 -8 -3 -4 0 -1 -3 vhcurveto
          -8 -23 -149 -11 -14 hhcurveto
          -16 -2 -11 -11 hvcurveto
          -211 vlineto
          -511 vlineto
          -24 8 -16 15 -7 vhcurveto
          -7 15 30 -12 37 hhcurveto
          41 49 12 8 8 hvcurveto
          7 8 -1 8 5 vvcurveto
          -1 1 0 -27 callsubr
          3 0 5 -1 5 vhcurveto
          4 11 1 7 4 vvcurveto
          7 -1 0 -3 vhcurveto
          -15 -17 -12 -73 hhcurveto
          -15 -16 1 1 -17 hvcurveto
          18 638 rlineto
          6 hlineto
          54 83 8 3 5 hvcurveto
          9 callgsubr
          7 5 vvcurveto
          endchar
        </CharString>
        <CharString name="bracketright">
          36 24 622 rmoveto
          -5 1 -7 3 -4 vhcurveto
          -3 5 83 -8 54 hhcurveto
          5 hlineto
          19 -638 rlineto
          -1 -17 -16 -1 -15 -72 -20 12 -12 hhcurveto
          -4 -1 0 -7 -4 1 -7 4 -11 hvcurveto
          -1 -5 -1 -5 -3 vvcurveto
          -5 vlineto
          -5 1 -8 5 -8 vhcurveto
          -8 8 48 -12 42 hhcurveto
          37 30 12 7 15 hvcurveto
          15 7 8 16 24 vvcurveto
          511 vlineto
          211 vlineto
          11 -2 11 -16 -14 -149 11 8 -23 vhcurveto
          1 -3 -4 0 -3 hhcurveto
          -8 -2 -5 -5 hvcurveto
          -7 3 -6 -9 -5 -2 -5 -5 vvcurveto
          -8 3 -6 0 vhcurveto
          -1 -7 -4 -11 -8 vvcurveto
          endchar
        </CharString>
        <CharString name="breve">
          -32 217 485 -97 callsubr
        </CharString>
        <CharString name="brokenbar">
          -26 171 729 rmoveto
          15 0 11 6 callgsubr
          -22 -8 -21 vhcurveto
          -18 -5 -4 -29 -20 -47 -5 -75 -65 vvcurveto
          -3 -118 rlineto
          -13 -1 1 -6 5 hhcurveto
          16 -3 19 3 24 hvcurveto
          28 6 4 18 13 105 8 105 113 vvcurveto
          -10 -430 rmoveto
          15 1 11 -7 -8 -4 -16 -9 -12 vhcurveto
          -7 -5 -7 0 -11 -5 -16 -9 -3 -20 -1 -20 rrcurveto
          -49 -1 -78 -3 -63 vhcurveto
          -3 -117 rlineto
          -13 1 -4 4 12 3 17 5 21 vhcurveto
          27 5 6 17 15 vvcurveto
          4 107 4 103 113 vvcurveto
          endchar
        </CharString>
        <CharString name="bullet">
          -51 198 329 rmoveto
          -4 11 -50 77 -4 13 rrcurveto
          5 -3 -4 3 -4 hhcurveto
          -5 -6 -3 -5 -5 hvcurveto
          -7 -7 -63 -60 -10 -7 rrcurveto
          -6 -6 -3 -5 -5 vvcurveto
          -5 4 -8 4 -5 vhcurveto
          13 -25 17 -30 15 -24 rrcurveto
          -7 4 4 -4 7 hhcurveto
          5 5 2 4 5 hvcurveto
          17 11 27 25 32 19 rrcurveto
          12 7 6 10 9 vvcurveto
          4 -1 -29 callsubr
          vhcurveto
          endchar
        </CharString>
        <CharString name="c">
          -46 240 -33 callgsubr
          -3 hvcurveto
          -44 -22 -35 -87 -57 hhcurveto
          -46 -15 62 42 23 3 31 15 27 hvcurveto
          19 11 11 8 9 hhcurveto
          15 1 -24 -10 hvcurveto
          -20 -6 -15 -8 -10 callgsubr
          8 26 8 30 19 vhcurveto
          12 20 5 20 20 vvcurveto
          36 -18 13 -20 -26 -49 -16 -59 -46 vhcurveto
          -35 -44 -15 -49 -40 vvcurveto
          -97 60 -22 36 50 41 33 46 27 vhcurveto
          5 9 6 10 5 11 -22 callgsubr
          27 rrcurveto
          1 -81 callgsubr
          vhcurveto
          endchar
        </CharString>
        <CharString name="cacute">
          -46 240 -33 callgsubr
          -3 hvcurveto
          -44 -22 -35 -87 -57 hhcurveto
          -46 -15 62 42 23 3 31 15 27 hvcurveto
          19 11 11 8 9 hhcurveto
          15 1 -24 -10 hvcurveto
          -20 -6 -15 -8 -10 callgsubr
          8 26 8 30 19 vhcurveto
          12 20 5 20 20 vvcurveto
          36 -18 13 -20 -26 -49 -16 -59 -46 vhcurveto
          -35 -44 -15 -49 -40 vvcurveto
          -97 60 -22 36 50 41 33 46 27 vhcurveto
          5 9 6 10 5 11 -22 callgsubr
          27 rrcurveto
          1 -81 callgsubr
          vhcurveto
          -12 289 rmoveto
          -9 8 -4 1 -7 5 -107 callgsubr
          endchar
        </CharString>
        <CharString name="caron">
          -32 24 487 -105 callsubr
        </CharString>
        <CharString name="ccaron">
          -46 240 -33 callgsubr
          -3 hvcurveto
          -44 -22 -35 -87 -57 hhcurveto
          -46 -15 62 42 23 3 31 15 27 hvcurveto
          19 11 11 8 9 hhcurveto
          15 1 -24 -10 hvcurveto
          -20 -6 -15 -8 -10 callgsubr
          8 26 8 30 19 vhcurveto
          12 20 5 20 20 vvcurveto
          36 -18 13 -20 -26 -49 -16 -59 -46 vhcurveto
          -35 -44 -15 -49 -40 vvcurveto
          -97 60 -22 36 50 41 33 46 27 vhcurveto
          5 9 6 10 5 11 -22 callgsubr
          27 rrcurveto
          1 -81 callgsubr
          vhcurveto
          -188 302 -105 callsubr
        </CharString>
        <CharString name="ccedilla">
          -46 167 -110 rmoveto
          36 -18 25 -41 -4 -4 0 -1 -4 vhcurveto
          11 43 37 9 30 30 23 36 rlinecurve
          5 9 6 10 5 11 -22 callgsubr
          27 rrcurveto
          1 -81 callgsubr
          -5 -9 callgsubr
          -44 -22 -35 -87 -57 hhcurveto
          -46 -15 62 42 23 3 31 15 27 hvcurveto
          19 11 11 8 9 hhcurveto
          15 1 -24 -10 hvcurveto
          -20 -6 -15 -8 -10 callgsubr
          8 26 8 30 19 vhcurveto
          12 20 5 20 20 vvcurveto
          36 -18 13 -20 -26 -49 -16 -59 -46 vhcurveto
          -35 -44 -15 -49 -40 vvcurveto
          -97 60 -22 36 vhcurveto
          4 2 1 4 hhcurveto
          -19 -49 -23 -11 -10 vvcurveto
          -4 4 -3 3 vhcurveto
          5 4 10 25 hhcurveto
          13 18 -9 -20 -27 -20 -16 -27 hvcurveto
          -31 -4 17 -8 hhcurveto
          -4 -2 -3 -5 -12 18 -34 43 45 38 27 49 hvcurveto
          endchar
        </CharString>
        <CharString name="ccircumflex">
          -46 240 -33 callgsubr
          -3 hvcurveto
          -44 -22 -35 -87 -57 hhcurveto
          -46 -15 62 42 23 3 31 15 27 hvcurveto
          19 11 11 8 9 hhcurveto
          15 1 -24 -10 hvcurveto
          -20 -6 -15 -8 -10 callgsubr
          8 26 8 30 19 vhcurveto
          12 20 5 20 20 vvcurveto
          36 -18 13 -20 -26 -49 -16 -59 -46 vhcurveto
          -35 -44 -15 -49 -40 vvcurveto
          -97 60 -22 36 50 41 33 46 27 vhcurveto
          5 9 6 10 5 11 -22 callgsubr
          27 rrcurveto
          1 -81 callgsubr
          vhcurveto
          3 200 rmoveto
          -8 8 -46 54 -24 42 rrcurveto
          9 -5 -4 3 -7 hhcurveto
          -5 -4 -3 -5 -5 hvcurveto
          -51 -67 -24 -23 -11 -13 rrcurveto
          -3 -4 -2 -3 -31 callsubr
          -2 5 2 3 -70 callsubr
          vhcurveto
          15 6 46 26 24 24 38 -43 37 -13 11 -3 rrcurveto
          -1 3 -51 callgsubr
          hhcurveto
          -74 callgsubr
          3 2 -66 callsubr
          hvcurveto
          endchar
        </CharString>
        <CharString name="cdotaccent">
          -46 240 -33 callgsubr
          -3 hvcurveto
          -44 -22 -35 -87 -57 hhcurveto
          -46 -15 62 42 23 3 31 15 27 hvcurveto
          19 11 11 8 9 hhcurveto
          15 1 -24 -10 hvcurveto
          -20 -6 -15 -8 -10 callgsubr
          8 26 8 30 19 vhcurveto
          12 20 5 20 20 vvcurveto
          36 -18 13 -20 -26 -49 -16 -59 -46 vhcurveto
          -35 -44 -15 -49 -40 vvcurveto
          -97 60 -22 36 50 41 33 46 27 vhcurveto
          5 9 6 10 5 11 -22 callgsubr
          27 rrcurveto
          1 -81 callgsubr
          vhcurveto
          -40 250 -94 callsubr
          5 -8 28 callsubr
          -11 rrcurveto
          -5 3 2 -3 5 hhcurveto
          9 callgsubr
          3 4 30 callsubr
          11 11 16 12 rrcurveto
          6 4 3 -67 callgsubr
          2 0 -83 callsubr
          endchar
        </CharString>
        <CharString name="cedilla">
          -32 194 -110 rmoveto
          36 -18 25 -41 4 callgsubr
          11 40 5 16 5 -62 callgsubr
          -4 -4 16 callsubr
          -2 vhcurveto
          -21 -63 -28 -16 -10 vvcurveto
          -4 10 callgsubr
          vhcurveto
          4 4 10 26 hhcurveto
          12 18 -9 -20 -34 callsubr
          -3 -5 -12 17 -34 44 43 40 27 49 hvcurveto
          endchar
        </CharString>
        <CharString name="cent">
          98 249 650 rmoveto
          12 0 9 -5 12 callsubr
          -3 -72 rlineto
          -97 -26 -54 -105 -90 vvcurveto
          -69 38 -84 90 -11 vhcurveto
          -3 -47 -3 -38 -1 -27 -3 -44 rcurveline
          -5 1 -3 2 4 8 9 1 11 vhcurveto
          21 4 5 11 19 vvcurveto
          12 3 45 5 63 vhcurveto
          71 14 44 52 16 68 rrcurveto
          11 3 -7 6 -8 hhcurveto
          -8 -3 -5 -7 -4 hvcurveto
          -21 -47 -19 -36 -60 -3 11 146 rcurveline
          -1 3 -51 callgsubr
          hhcurveto
          62 46 56 48 52 -42 36 -61 3 hvcurveto
          5 65 3 42 5 vvcurveto
          -145 -317 rmoveto
          43 19 86 59 21 vhcurveto
          -16 -274 rlineto
          -45 24 -17 60 40 vvcurveto
          170 104 rmoveto
          -27 -16 -19 -29 -13 vhcurveto
          8 107 rlineto
          24 -8 13 -19 -21 vvcurveto
          endchar
        </CharString>
        <CharString name="circumflex">
          -32 219 385 rmoveto
          -8 8 -46 54 -24 42 rrcurveto
          9 -5 -4 3 -7 hhcurveto
          -5 -4 -3 -5 -5 hvcurveto
          -51 -67 -24 -23 -11 -13 rrcurveto
          -3 -4 -2 -3 -31 callsubr
          -2 5 2 3 -70 callsubr
          vhcurveto
          15 6 46 26 24 24 38 -43 37 -13 11 -3 rrcurveto
          -1 3 -51 callgsubr
          hhcurveto
          -74 callgsubr
          3 2 -66 callsubr
          hvcurveto
          endchar
        </CharString>
        <CharString name="colon">
          -51 142 58 rmoveto
          -23 callgsubr
          -2 -2 -17 callgsubr
          3 -3 1 -4 vhcurveto
          2 -7 20 -36 6 -6 rrcurveto
          -3 3 3 -2 3 hhcurveto
          4 -36 callgsubr
          20 220 rmoveto
          -23 callgsubr
          -1 -3 -17 callgsubr
          3 -3 1 -4 vhcurveto
          2 -7 20 -36 6 -6 -36 callsubr
          4 1 3 hvcurveto
          3 3 28 21 11 8 rrcurveto
          -77 callsubr
          endchar
        </CharString>
        <CharString name="comma">
          -81 131 50 rmoveto
          -11 callsubr
          -3 hvcurveto
          -47 -7 callsubr
          25 -30 -40 vvcurveto
          -15 -3 -2 callsubr
          -65 callsubr
          3 vhcurveto
          21 19 32 50 13 36 -45 callsubr
          3 8 7 vvcurveto
          -72 callgsubr
          3 vhcurveto
          endchar
        </CharString>
        <CharString name="commaaccent">
          -32 166 -107 -28 callsubr
          -25 38 -2 7 -81 callsubr
          1 -19 callgsubr
          0 -1 -8 callsubr
          -42 -39 rlineto
          -3 -77 callgsubr
          -3 vvcurveto
          -78 callgsubr
          3 -3 -29 callgsubr
          22 -28 -34 vvcurveto
          -13 -5 -14 -7 -15 vhcurveto
          -82 callsubr
          3 4 -70 callsubr
          -18 callsubr
          17 26 43 13 32 -45 callsubr
          1 6 7 vvcurveto
          3 0 -83 callsubr
          endchar
        </CharString>
        <CharString name="copyright">
          478 314 575 rmoveto
          16 17 28 78 hhcurveto
          72 127 -58 -199 -262 -164 -46 -85 -123 -125 87 196 239 148 64 10 10 hvcurveto
          3 -68 callsubr
          4 -1 8 -11 -3 -37 callsubr
          -3 vhcurveto
          -125 -59 -94 -114 -162 vvcurveto
          -209 168 -114 150 194 144 143 198 242 -156 71 -110 -80 -58 -40 -22 -7 4 -3 9 vhcurveto
          207 -128 rmoveto
          52 -42 43 -65 -123 -77 -127 -121 -98 51 -78 97 53 38 20 44 31 vhcurveto
          21 27 14 32 -20 callsubr
          -2 5 -7 -8 -4 -4 -4 -1 vhcurveto
          -51 -23 -35 -33 -52 hhcurveto
          -45 -56 29 121 109 45 79 60 40 23 -27 -37 -57 -35 -21 -12 -5 hvcurveto
          -6 -2 16 callsubr
          vvcurveto
          -5 4 -4 13 55 51 53 57 vhcurveto
          endchar
        </CharString>
        <CharString name="currency">
          225 75 578 rmoveto
          -9 9 -27 callgsubr
          -4 -8 -6 0 -8 -13 -13 -16 -14 11 -16 12 -9 69 -76 rcurveline
          -27 -37 -14 -44 -45 vvcurveto
          -45 12 -31 20 -31 vhcurveto
          -23 -29 -19 -26 -13 -17 -21 -27 rcurveline
          -4 -5 7 -11 1 21 callgsubr
          12 3 9 -5 19 -9 10 7 12 16 4 7 20 25 25 33 rrcurveto
          -15 25 30 -8 32 hhcurveto
          54 30 18 17 22 hvcurveto
          28 -31 19 -23 15 -16 21 -23 rcurveline
          -5 5 7 7 5 hhcurveto
          11 3 -1 -3 8 8 12 16 4 12 -15 15 -8 8 -24 29 -45 52 13 25 8 35 3 32 rrcurveto
          13 24 2 21 23 vvcurveto
          25 -15 35 -21 23 vhcurveto
          43 54 29 39 2 2 8 10 -12 11 -4 2 -8 6 5 -12 -18 9 -24 8 -15 -26 -8 -13 -42 -55 rcurveline
          11 -19 -22 5 -28 hhcurveto
          -48 -39 -15 -24 -32 hvcurveto
          161 -210 rmoveto
          12 5 1 4 9 hvcurveto
          -43 -11 -22 -37 -60 hhcurveto
          -67 -38 63 71 51 30 90 84 65 23 -51 -37 -40 -5 -18 -34 -24 hvcurveto
          -4 -3 -12 -4 -7 vvcurveto
          -12 16 -4 9 vhcurveto
          endchar
        </CharString>
        <CharString name="d">
          25 -85 callsubr
          endchar
        </CharString>
        <CharString name="dagger">
          66 303 548 rmoveto
          -75 callsubr
          rrcurveto
          -5 -205 1 -179 -88 vvcurveto
          -13 callgsubr
          32 5 256 8 208 vhcurveto
          80 3 12 9 14 vvcurveto
          8 vlineto
          10 3 -2 8 -25 callsubr
          endchar
        </CharString>
        <CharString name="daggerdbl">
          66 303 -62 callsubr
          -42 callsubr
          vhcurveto
          -8 -21 -11 -61 hhcurveto
          3 89 1 103 3 95 rrcurveto
          80 3 12 9 14 vvcurveto
          8 vlineto
          10 3 -2 8 5 -1 6 5 vvcurveto
          3 0 2 1 3 vhcurveto
          -75 callsubr
          -3 -107 0 -99 -1 -84 -28 1 -25 2 -9 1 rrcurveto
          1 -4 -3 0 14 callgsubr
          -9 -9 -3 hvcurveto
          -3 -11 -1 -15 -5 vvcurveto
          -9 1 -5 -12 callsubr
          3 -3 35 -7 52 -4 rrcurveto
          -109 vlineto
          -13 callgsubr
          13 3 51 1 69 vhcurveto
          88 13 15 11 hvcurveto
          8 vlineto
          10 3 -2 8 5 -1 6 18 callgsubr
          0 -70 callsubr
          vhcurveto
          endchar
        </CharString>
        <CharString name="dcaron">
          107 -85 callsubr
          250 341 -28 callsubr
          -25 38 -2 7 -81 callsubr
          1 -19 callgsubr
          0 -1 -8 callsubr
          -42 -39 rlineto
          -3 -77 callgsubr
          -3 vvcurveto
          -78 callgsubr
          3 -3 -29 callgsubr
          22 -28 -34 vvcurveto
          -13 -5 -14 -7 -15 vhcurveto
          -82 callsubr
          3 4 -70 callsubr
          -18 callsubr
          17 26 43 13 32 -45 callsubr
          1 6 7 vvcurveto
          3 0 -83 callsubr
          endchar
        </CharString>
        <CharString name="dcroat">
          25 298 470 rmoveto
          -33 callsubr
          -5 5 -8 -9 -16 -3 -3 -25 vhcurveto
          13 77 16 65 3 15 -58 callgsubr
          1 -67 callgsubr
          9 -5 4 -8 -7 -11 -7 -16 -16 vhcurveto
          -18 -18 -13 -3 -8 -20 -13 -26 -4 -35 -11 -67 -23 -4 -24 -1 -29 -3 -11 -1 -4 -3 -1 -7 rrcurveto
          -5 -15 -1 7 -11 vvcurveto
          -8 1 -4 3 -3 vhcurveto
          -3 4 27 -2 55 hhcurveto
          -4 -36 -1 -23 -3 -29 rrcurveto
          -8 hlineto
          -24 -32 -15 -32 -32 hvcurveto
          -38 -38 -26 -67 -69 vvcurveto
          -64 25 -45 35 46 28 44 42 22 vhcurveto
          -67 8 28 -18 28 hhcurveto
          35 18 22 35 17 hvcurveto
          15 29 15 41 17 51 -32 callgsubr
          5 -3 3 -4 -6 -40 callsubr
          -70 -27 -17 -39 -20 hhcurveto
          -21 -5 34 46 62 6 103 13 101 hvcurveto
          60 5 8 8 11 vvcurveto
          8 vlineto
          9 2 3 8 -54 callgsubr
          -162 -209 rmoveto
          -3 -24 0 -45 -45 vvcurveto
          -29 -3 -11 -42 -31 hhcurveto
          -28 -13 32 41 80 34 53 37 12 6 -7 -14 hvcurveto
          endchar
        </CharString>
        <CharString name="degree">
          -75 176 605 rmoveto
          47 -33 38 -42 -42 -35 -38 -47 -47 35 -38 42 42 33 38 47 vhcurveto
          -48 13 rmoveto
          8 -15 2 -15 -12 vvcurveto
          -17 -6 -12 -12 -23 -35 43 43 17 7 13 12 16 19 -18 -27 12 vhcurveto
          endchar
        </CharString>
        <CharString name="dieresis">
          -32 104 435 -94 callsubr
          4 -7 6 -13 8 -12 rrcurveto
          -8 5 2 -7 7 hhcurveto
          -74 callgsubr
          4 5 hvcurveto
          9 5 6 8 15 11 rrcurveto
          7 -43 callsubr
          7 vvcurveto
          2 0 -83 callsubr
          124 hmoveto
          -3 5 -25 40 -2 -63 callsubr
          -1 -1 1 -19 callgsubr
          -2 -77 callgsubr
          hvcurveto
          -41 -38 rlineto
          -3 -77 callgsubr
          -3 vvcurveto
          -3 2 -59 callsubr
          4 -7 6 -13 8 -12 rrcurveto
          -8 5 2 -7 7 hhcurveto
          -74 callgsubr
          4 5 hvcurveto
          9 5 6 8 15 11 rrcurveto
          7 -43 callsubr
          7 vvcurveto
          2 0 -83 callsubr
          endchar
        </CharString>
        <CharString name="divide">
          66 220 429 rmoveto
          -5 5 -23 39 3 vvcurveto
          2 -2 -2 1 -1 hhcurveto
          -1 -37 callsubr
          -3 hvcurveto
          -6 -3 -26 -29 -6 -3 rrcurveto
          -3 -77 callgsubr
          -2 vvcurveto
          -78 callgsubr
          2 -3 vhcurveto
          5 -9 8 -17 8 -11 rrcurveto
          -4 2 2 -2 3 hhcurveto
          3 -39 callsubr
          hvcurveto
          9 5 11 12 17 11 rrcurveto
          5 3 3 -67 callgsubr
          1 0 2 -1 3 vhcurveto
          71 -58 rmoveto
          -12 -12 -11 -103 -59 -41 4 -67 callsubr
          -5 3 65 -11 81 hhcurveto
          99 11 12 13 hvcurveto
          6 3 15 3 5 -1 7 5 -11 callgsubr
          4 vvcurveto
          5 -6 4 -7 vhcurveto
          -92 -163 rmoveto
          -3 8 -23 37 -2 2 rrcurveto
          3 -1 -2 1 -1 hhcurveto
          -47 callgsubr
          -1 -3 hvcurveto
          -38 -35 rlineto
          -3 -4 -63 callgsubr
          vvcurveto
          -3 1 -2 3 -3 vhcurveto
          5 -9 8 -18 7 -11 rrcurveto
          -3 3 2 -2 3 hhcurveto
          1 2 -70 callsubr
          hvcurveto
          9 4 12 14 16 9 rrcurveto
          6 3 3 4 5 vvcurveto
          1 -1 3 -1 1 vhcurveto
          endchar
        </CharString>
        <CharString name="dollar">
          97 234 689 rmoveto
          12 -1 9 -4 12 callsubr
          -4 -70 rlineto
          -70 -24 -60 -65 -78 vvcurveto
          -72 58 -24 56 -21 vhcurveto
          -3 -45 -2 -45 -3 -40 rrcurveto
          13 -32 -17 25 -13 hhcurveto
          -19 1 -14 -3 -6 hvcurveto
          -9 -4 -11 -10 -11 vvcurveto
          -8 5 -9 5 -7 vhcurveto
          22 -27 39 -12 31 -5 -4 -43 -3 -36 -1 -27 rrcurveto
          -1 -15 -1 -13 -12 vvcurveto
          -5 1 -3 2 4 8 9 1 11 vhcurveto
          21 3 5 11 20 vvcurveto
          9 3 42 4 59 vhcurveto
          69 11 57 40 80 vvcurveto
          69 -52 33 -56 24 vhcurveto
          13 160 rlineto
          -8 43 29 -25 12 hhcurveto
          18 0 14 3 6 hvcurveto
          8 4 11 10 11 vvcurveto
          12 -4 6 -8 8 vhcurveto
          31 -27 -41 12 -41 hhcurveto
          -1 hlineto
          5 62 3 42 4 vvcurveto
          -145 -265 rmoveto
          42 38 28 39 8 vhcurveto
          -8 -138 rlineto
          -39 16 -30 16 28 vvcurveto
          182 -222 rmoveto
          -43 -38 -11 -37 vhcurveto
          -2 hlineto
          9 122 rlineto
          37 -13 31 -20 -35 vvcurveto
          endchar
        </CharString>
        <CharString name="dotaccent">
          -32 166 435 -94 callsubr
          5 -8 28 callsubr
          -11 rrcurveto
          -5 3 2 -3 5 hhcurveto
          9 callgsubr
          3 4 30 callsubr
          11 11 16 12 rrcurveto
          6 4 3 -67 callgsubr
          2 0 -83 callsubr
          endchar
        </CharString>
        <CharString name="dotlessi">
          -98 callgsubr
          endchar
        </CharString>
        <CharString name="dotlessj">
          -107 179 -45 callgsubr
          -24 -53 -19 -59 -51 -41 -2 -2 rcurveline
          -84 callgsubr
          20 19 rcurveline
          38 38 22 29 38 103 -13 callsubr
          -27 callsubr
          5 -2 3 -5 vhcurveto
          -194 -314 -53 callsubr
          endchar
        </CharString>
        <CharString name="e">
          -52 callgsubr
          -7 -3 -30 callgsubr
          -45 -24 -32 -86 -58 hhcurveto
          -19 -20 13 29 -12 hvcurveto
          45 34 71 78 60 vvcurveto
          36 -22 19 -25 -31 -44 -37 -47 -34 vhcurveto
          -19 -27 -20 -48 -45 vvcurveto
          -96 58 -22 38 51 40 37 43 27 vhcurveto
          17 30 -51 callsubr
          vhcurveto
          -190 -23 rmoveto
          58 22 33 13 12 13 -16 -25 -34 -29 -40 -27 -27 vhcurveto
          -3 15 -1 17 19 vvcurveto
          endchar
        </CharString>
        <CharString name="eacute">
          -52 callgsubr
          -7 -3 -30 callgsubr
          -45 -24 -32 -86 -58 hhcurveto
          -19 -20 13 29 -12 hvcurveto
          45 34 71 78 60 vvcurveto
          36 -22 19 -25 -31 -44 -37 -47 -34 vhcurveto
          -19 -27 -20 -48 -45 vvcurveto
          -96 58 -22 38 51 40 37 43 27 vhcurveto
          17 30 -51 callsubr
          vhcurveto
          -190 -23 rmoveto
          58 22 33 13 12 13 -16 -25 -34 -29 -40 -27 -27 vhcurveto
          -3 15 -1 17 19 vvcurveto
          157 312 rmoveto
          -9 8 -4 1 -7 5 -107 callgsubr
          endchar
        </CharString>
        <CharString name="ebreve">
          -52 callgsubr
          -7 -3 -30 callgsubr
          -45 -24 -32 -86 -58 hhcurveto
          -19 -20 13 29 -12 hvcurveto
          45 34 71 78 60 vvcurveto
          36 -22 19 -25 -31 -44 -37 -47 -34 vhcurveto
          -19 -27 -20 -48 -45 vvcurveto
          -96 58 -22 38 51 40 37 43 27 vhcurveto
          17 30 -51 callsubr
          vhcurveto
          -190 -23 rmoveto
          58 22 33 13 12 13 -16 -25 -34 -29 -40 -27 -27 vhcurveto
          -3 15 -1 17 19 vvcurveto
          182 323 -97 callsubr
        </CharString>
        <CharString name="ecaron">
          -52 callgsubr
          -7 -3 -30 callgsubr
          -45 -24 -32 -86 -58 hhcurveto
          -19 -20 13 29 -12 hvcurveto
          45 34 71 78 60 vvcurveto
          36 -22 19 -25 -31 -44 -37 -47 -34 vhcurveto
          -19 -27 -20 -48 -45 vvcurveto
          -96 58 -22 38 51 40 37 43 27 vhcurveto
          17 30 -51 callsubr
          vhcurveto
          -190 -23 rmoveto
          58 22 33 13 12 13 -16 -25 -34 -29 -40 -27 -27 vhcurveto
          -3 15 -1 17 19 vvcurveto
          -19 325 -105 callsubr
        </CharString>
        <CharString name="ecircumflex">
          -52 callgsubr
          -7 -3 -30 callgsubr
          -45 -24 -32 -86 -58 hhcurveto
          -19 -20 13 29 -12 hvcurveto
          45 34 71 78 60 vvcurveto
          36 -22 19 -25 -31 -44 -37 -47 -34 vhcurveto
          -19 -27 -20 -48 -45 vvcurveto
          -96 58 -22 38 51 40 37 43 27 vhcurveto
          17 30 -51 callsubr
          vhcurveto
          -190 -23 rmoveto
          58 22 33 13 12 13 -16 -25 -34 -29 -40 -27 -27 vhcurveto
          -3 15 -1 17 19 vvcurveto
          172 223 rmoveto
          -8 8 -46 54 -24 42 rrcurveto
          9 -5 -4 3 -7 hhcurveto
          -5 -4 -3 -5 -5 hvcurveto
          -51 -67 -24 -23 -11 -13 rrcurveto
          -3 -4 -2 -3 -31 callsubr
          -2 5 2 3 -70 callsubr
          vhcurveto
          15 6 46 26 24 24 38 -43 37 -13 11 -3 rrcurveto
          -1 3 -51 callgsubr
          hhcurveto
          -74 callgsubr
          3 2 -66 callsubr
          hvcurveto
          endchar
        </CharString>
        <CharString name="edieresis">
          -52 callgsubr
          -7 -3 -30 callgsubr
          -45 -24 -32 -86 -58 hhcurveto
          -19 -20 13 29 -12 hvcurveto
          45 34 71 78 60 vvcurveto
          36 -22 19 -25 -31 -44 -37 -47 -34 vhcurveto
          -19 -27 -20 -48 -45 vvcurveto
          -96 58 -22 38 51 40 37 43 27 vhcurveto
          17 30 -51 callsubr
          vhcurveto
          -190 -23 rmoveto
          58 22 33 13 12 13 -16 -25 -34 -29 -40 -27 -27 vhcurveto
          -3 15 -1 17 19 vvcurveto
          57 273 -94 callsubr
          4 -7 6 -13 8 -12 rrcurveto
          -8 5 2 -7 7 hhcurveto
          -74 callgsubr
          4 5 hvcurveto
          9 5 6 8 15 11 rrcurveto
          7 -43 callsubr
          7 vvcurveto
          2 0 -83 callsubr
          124 hmoveto
          -3 5 -25 40 -2 -63 callsubr
          -1 -1 1 -19 callgsubr
          -2 -77 callgsubr
          hvcurveto
          -41 -38 rlineto
          -3 -77 callgsubr
          -3 vvcurveto
          -3 2 -59 callsubr
          4 -7 6 -13 8 -12 rrcurveto
          -8 5 2 -7 7 hhcurveto
          -74 callgsubr
          4 5 hvcurveto
          9 5 6 8 15 11 rrcurveto
          7 -43 callsubr
          7 vvcurveto
          2 0 -83 callsubr
          endchar
        </CharString>
        <CharString name="edotaccent">
          -52 callgsubr
          -7 -3 -30 callgsubr
          -45 -24 -32 -86 -58 hhcurveto
          -19 -20 13 29 -12 hvcurveto
          45 34 71 78 60 vvcurveto
          36 -22 19 -25 -31 -44 -37 -47 -34 vhcurveto
          -19 -27 -20 -48 -45 vvcurveto
          -96 58 -22 38 51 40 37 43 27 vhcurveto
          17 30 -51 callsubr
          vhcurveto
          -190 -23 rmoveto
          58 22 33 13 12 13 -16 -25 -34 -29 -40 -27 -27 vhcurveto
          -3 15 -1 17 19 vvcurveto
          129 273 -94 callsubr
          5 -8 28 callsubr
          -11 rrcurveto
          -5 3 2 -3 5 hhcurveto
          9 callgsubr
          3 4 30 callsubr
          11 11 16 12 rrcurveto
          6 4 3 -67 callgsubr
          2 0 -83 callsubr
          endchar
        </CharString>
        <CharString name="egrave">
          -52 callgsubr
          -7 -3 -30 callgsubr
          -45 -24 -32 -86 -58 hhcurveto
          -19 -20 13 29 -12 hvcurveto
          45 34 71 78 60 vvcurveto
          36 -22 19 -25 -31 -44 -37 -47 -34 vhcurveto
          -19 -27 -20 -48 -45 vvcurveto
          -96 58 -22 38 51 40 37 43 27 vhcurveto
          17 30 -51 callsubr
          vhcurveto
          -190 -23 rmoveto
          58 22 33 13 12 13 -16 -25 -34 -29 -40 -27 -27 vhcurveto
          -3 15 -1 17 19 vvcurveto
          99 224 rmoveto
          -7 9 -34 42 -13 56 rrcurveto
          7 -2 -48 callsubr
          hhcurveto
          -4 -2 -16 callsubr
          hvcurveto
          -4 -4 callsubr
          -4 -3 rrcurveto
          -20 -13 -4 -4 -9 vvcurveto
          -19 36 -42 62 -30 vhcurveto
          -1 2 2 0 1 hhcurveto
          4 -44 callsubr
          -60 callsubr
          hvcurveto
          endchar
        </CharString>
        <CharString name="eight">
          204 453 181 rmoveto
          118 -97 46 -75 45 vhcurveto
          67 43 61 46 81 vvcurveto
          61 -41 62 -76 -52 -42 -38 -45 -18 vhcurveto
          -1 -47 callgsubr
          -2 vvcurveto
          -8 7 -6 7 -43 callsubr
          4 3 vhcurveto
          21 16 24 15 23 hhcurveto
          30 37 -25 -59 -40 -25 -47 -60 -40 hvcurveto
          -64 42 -46 49 67 vvcurveto
          66 39 35 43 19 vhcurveto
          12 5 4 -67 callgsubr
          7 -6 4 -13 -77 -79 -70 -100 -65 32 -45 84 -63 vhcurveto
          -77 -43 -80 -57 -103 vvcurveto
          -106 82 -69 116 112 112 55 119 11 vhcurveto
          -237 176 rmoveto
          91 -62 53 -35 -88 vvcurveto
          -66 -57 -53 -68 -68 -53 60 77 79 46 48 53 42 vhcurveto
          endchar
        </CharString>
        <CharString name="ellipsis">
          310 132 58 rmoveto
          -2 7 -28 47 -5 -63 callsubr
          -1 -3 2 -3 hhcurveto
          -3 -3 -2 -3 -3 -55 callgsubr
          -22 callsubr
          -3 3 -3 1 -4 vhcurveto
          5 -8 17 -33 6 -8 rrcurveto
          -3 3 3 -2 3 hhcurveto
          4 -36 callgsubr
          391 hmoveto
          -23 callgsubr
          -2 -2 -17 callgsubr
          1 -3 3 -4 vhcurveto
          3 -8 18 -34 7 -7 rrcurveto
          -3 3 2 -2 3 hhcurveto
          5 -36 callgsubr
          -195 hmoveto
          -2 7 -29 46 -5 8 rrcurveto
          3 -1 -2 2 -19 callgsubr
          -3 -2 -3 -3 -55 callgsubr
          -1 -3 -3 vvcurveto
          -3 1 -3 3 -4 vhcurveto
          3 -8 19 -33 5 -8 -64 callsubr
          5 3 -31 callgsubr
          3 30 25 7 9 hvcurveto
          3 callsubr
        </CharString>
        <CharString name="emacron">
          -52 callgsubr
          -7 -3 -30 callgsubr
          -45 -24 -32 -86 -58 hhcurveto
          -19 -20 13 29 -12 hvcurveto
          45 34 71 78 60 vvcurveto
          36 -22 19 -25 -31 -44 -37 -47 -34 vhcurveto
          -19 -27 -20 -48 -45 vvcurveto
          -96 58 -22 38 51 40 37 43 27 vhcurveto
          17 30 -51 callsubr
          vhcurveto
          -190 -23 rmoveto
          58 22 33 13 12 13 -16 -25 -34 -29 -40 -27 -27 vhcurveto
          -3 15 -1 17 19 vvcurveto
          183 315 -101 callgsubr
        </CharString>
        <CharString name="emdash">
          324 585 209 rmoveto
          -27 -31 -11 -253 -142 -102 5 -8 -17 callsubr
          -6 9 144 -10 189 hhcurveto
          225 26 12 13 hvcurveto
          0 0 4 3 vvcurveto
          1 5 3 -1 4 -29 callsubr
          4 vvcurveto
          2 1 2 1 1 vhcurveto
          0 0 1 1 vvcurveto
          5 -7 4 -8 vhcurveto
          endchar
        </CharString>
        <CharString name="endash">
          125 337 209 rmoveto
          -12 -15 -11 -120 -66 -49 5 -4 -17 callsubr
          -7 3 73 -9 95 hhcurveto
          113 12 12 13 0 0 4 1 20 callgsubr
          5 2 -1 4 -29 callsubr
          4 vvcurveto
          2 1 2 -37 callgsubr
          0 1 1 5 -7 4 -9 hvcurveto
          endchar
        </CharString>
        <CharString name="eng">
          54 147 -76 rmoveto
          -17 -72 -94 -81 -48 18 -34 28 13 15 6 7 15 hvcurveto
          28 17 49 28 21 161 rrcurveto
          13 101 8 97 147 vvcurveto
          47 -10 30 -23 -17 -13 -10 -19 -12 vhcurveto
          -52 -32 -36 -117 -4 hhcurveto
          -1 -1 56 69 -1 hvcurveto
          43 -1 -17 20 -19 hhcurveto
          -28 -22 -38 -31 -10 hvcurveto
          -8 -16 -15 -38 -8 29 callsubr
          -2 0 callgsubr
          4 9 4 vhcurveto
          29 12 2 14 8 hhcurveto
          3 2 -7 -20 hvcurveto
          -13 -1 -17 -17 vvcurveto
          -37 1 -41 1 -33 vhcurveto
          -31 17 -9 12 15 19 11 58 18 vhcurveto
          17 44 23 72 5 16 rrcurveto
          7 3 3 7 7 hhcurveto
          5 5 -6 -12 -68 -8 -135 -13 -112 hvcurveto
          -47 -4 -23 -119 -20 hhcurveto
          -4 -6 10 25 127 53 57 -21 hvcurveto
          endchar
        </CharString>
        <CharString name="eogonek">
          -46 171 -150 rmoveto
          62 14 63 7 5 -46 callsubr
          -15 -10 -12 -16 -23 24 callgsubr
          52 24 26 27 43 hvcurveto
          17 30 -51 callsubr
          -7 -3 -76 callgsubr
          vhcurveto
          -45 -24 -32 -86 -58 hhcurveto
          -19 -20 13 29 -12 hvcurveto
          45 34 71 78 60 vvcurveto
          36 -22 19 -25 -31 -44 -37 -47 -34 vhcurveto
          -19 -27 -20 -48 -45 vvcurveto
          -96 58 -22 38 15 23 6 9 13 vhcurveto
          -21 -25 -9 -27 -27 vvcurveto
          -42 31 -33 40 vhcurveto
          -61 362 rmoveto
          -34 -29 -40 -27 -27 vhcurveto
          -3 15 -1 17 19 vvcurveto
          58 22 33 13 12 13 -16 -25 vhcurveto
          endchar
        </CharString>
        <CharString name="equal">
          66 299 446 rmoveto
          5 -4 4 -7 -7 -35 -19 -5 -52 vhcurveto
          -5 -29 -46 -1 -28 -44 callgsubr
          96 40 16 13 hvcurveto
          -38 callsubr
          -15 -138 rmoveto
          5 -4 3 -7 vhcurveto
          -6 -20 -13 -103 hhcurveto
          -25 -19 1 1 -14 hvcurveto
          -23 -26 callsubr
          -3 3 50 -12 68 hhcurveto
          -42 callgsubr
        </CharString>
        <CharString name="eth">
          -11 220 564 rmoveto
          -7 4 1 -1 -3 5 -3 7 -12 2 -3 9 rrcurveto
          3 -1 -78 callgsubr
          hhcurveto
          -11 -19 -32 -45 -40 hvcurveto
          -33 35 -41 27 -48 16 rrcurveto
          -7 callgsubr
          33 -20 34 -32 29 -45 -29 -28 -29 -24 -13 -11 rrcurveto
          -13 -12 -3 -4 -5 vvcurveto
          0 1 -3 1 -1 vhcurveto
          -11 5 6 -4 5 hhcurveto
          1 hlineto
          0 1 11 callsubr
          vhcurveto
          9 4 25 14 49 35 6 5 rcurveline
          31 -65 21 -84 -109 vvcurveto
          -57 callsubr
          93 -25 90 -51 72 vhcurveto
          33 29 23 24 8 9 rrcurveto
          7 9 2 4 5 -19 callsubr
          3 -3 2 vhcurveto
          endchar
        </CharString>
        <CharString name="exclam">
          -22 199 675 rmoveto
          8 1 -14 callgsubr
          5 -1 3 -7 vhcurveto
          -8 -12 -9 -8 -10 -9 -14 -14 -1 0 2 -7 hhcurveto
          -27 -8 -8 -15 hvcurveto
          -3 3 -18 -3 vvcurveto
          3 -45 0 -36 -108 -109 -8 -120 -13 vvcurveto
          -15 7 -3 16 -1 vhcurveto
          -1 4 3 -1 5 hhcurveto
          8 4 6 48 11 hvcurveto
          5 29 10 45 12 69 rrcurveto
          22 124 6 118 56 vvcurveto
          -52 -617 rmoveto
          -23 callgsubr
          -2 -2 -17 callgsubr
          1 -3 3 -4 vhcurveto
          3 -8 18 -34 7 -7 rrcurveto
          -3 3 2 -2 3 hhcurveto
          5 -36 callgsubr
          endchar
        </CharString>
        <CharString name="exclamdown">
          -22 44 -210 rmoveto
          -8 -1 -6 -4 vvcurveto
          -4 1 -4 7 vhcurveto
          9 11 9 8 11 7 14 15 1 0 -1 7 hhcurveto
          27 8 7 15 hvcurveto
          2 -3 19 4 vvcurveto
          -3 45 0 36 107 111 8 118 13 vvcurveto
          15 -7 4 -16 1 vhcurveto
          -4 -3 1 -4 hhcurveto
          -10 -3 -4 -50 -10 hvcurveto
          -7 -29 -9 -45 -12 -69 rrcurveto
          -21 -123 -7 -119 -55 vvcurveto
          52 616 3 callgsubr
          4 4 3 1 1 hvcurveto
          47 45 rlineto
          3 3 -4 callgsubr
          vvcurveto
          3 -1 10 callgsubr
          vhcurveto
          -2 7 -20 36 -6 6 rrcurveto
          3 -3 -2 2 -48 callgsubr
          -2 -8 callsubr
          -1 -31 -24 -8 -10 hvcurveto
          -7 -5 -3 -4 -5 vvcurveto
          -3 0 -2 1 -1 vhcurveto
          endchar
        </CharString>
        <CharString name="f">
          -82 209 -49 callsubr
          3 0 1 -73 callsubr
          -2 3 -4 -5 -5 -4 -8 -4 vhcurveto
          -21 -52 -20 -89 callgsubr
          6 -1 93 -24 38 vhcurveto
          25 25 24 48 24 67 rrcurveto
          -105 278 -69 callgsubr
          endchar
        </CharString>
        <CharString name="fi">
          99 385 23 callgsubr
          -16 -47 -22 hhcurveto
          -24 -15 44 58 hvcurveto
          3 101 7 37 10 vvcurveto
          -72 callgsubr
          -12 -41 -28 -40 -19 vhcurveto
          -4 -24 -3 -22 -1 -23 -3 -2 -3 31 callgsubr
          -21 -52 -20 -89 callgsubr
          6 -1 93 -24 38 vhcurveto
          20 20 20 36 20 48 rrcurveto
          -15 vlineto
          -107 46 -19 33 8 7 2 1 4 vhcurveto
          23 7 14 21 20 40 12 28 12 35 16 43 rrcurveto
          -80 callsubr
          -281 263 -69 callgsubr
          235 3 rmoveto
          -3 10 -30 58 -2 10 rrcurveto
          4 22 callsubr
          -5 -5 -39 -43 -5 -8 rrcurveto
          -3 -4 -2 -4 -4 vvcurveto
          -7 18 -39 15 -30 vhcurveto
          -4 3 2 -1 4 hhcurveto
          10 17 24 22 27 hvcurveto
          8 7 4 7 6 vvcurveto
          2 -1 -83 callsubr
          endchar
        </CharString>
        <CharString name="five">
          197 444 223 rmoveto
          91 -42 139 -172 4 vhcurveto
          -26 3 -49 -5 -65 -36 46 186 rcurveline
          -16 104 30 -1 45 hhcurveto
          40 21 7 20 hvcurveto
          7 -3 6 5 7 5 6 9 vvcurveto
          1 0 2 -1 3 vhcurveto
          16 -5 13 10 -50 -18 -30 -2 -59 -13 -25 2 -23 hhcurveto
          -55 -13 -6 -32 -5 hvcurveto
          -2 -14 -44 -211 -6 -26 rrcurveto
          -1 -77 callgsubr
          -3 vvcurveto
          -16 11 -10 16 7 8 2 4 9 vhcurveto
          16 34 25 11 40 hhcurveto
          64 87 -41 -135 -89 -43 -94 -94 -84 -24 64 50 hvcurveto
          39 15 17 32 callsubr
          -86 67 -50 115 136 111 80 149 vhcurveto
          endchar
        </CharString>
        <CharString name="fl">
          99 384 -43 callgsubr
          -4 -4 -8 -4 hvcurveto
          -59 -23 -14 -48 -24 hhcurveto
          -23 -8 28 45 hvcurveto
          1 73 61 473 3 4 rrcurveto
          5 -2 2 6 callgsubr
          -19 -11 -11 vhcurveto
          -16 -15 -15 -10 -4 -23 -16 -74 -28 -237 -12 -123 -3 -2 -3 -4 -3 -5 -21 -52 -30 -89 callgsubr
          5 0 93 -24 37 vhcurveto
          23 20 24 37 21 49 rrcurveto
          -20 vlineto
          -101 43 -20 29 7 5 1 2 5 vhcurveto
          21 5 15 23 24 50 11 -49 callgsubr
          1 2 -73 callsubr
          -4 3 -4 vhcurveto
          -280 263 -69 callgsubr
          endchar
        </CharString>
        <CharString name="florin">
          185 387 378 rmoveto
          9 -15 5 -6 6 vhcurveto
          -5 10 10 6 -41 8 rrcurveto
          4 -25 -32 2 -37 hhcurveto
          -3 35 -2 30 35 vvcurveto
          67 37 22 40 vhcurveto
          56 40 -38 14 hhcurveto
          19 -2 14 2 7 hvcurveto
          8 4 11 10 12 vvcurveto
          11 -4 7 -8 7 vhcurveto
          31 -27 -41 12 -41 hhcurveto
          -83 -118 -73 -148 -15 1 -15 1 -15 hvcurveto
          -59 -8 -17 -14 -6 -6 rrcurveto
          -7 -7 -2 -25 -6 vvcurveto
          -11 21 -9 9 14 -9 12 2 7 vhcurveto
          4 1 16 3 35 1 rrcurveto
          11 -96 22 -100 -102 vvcurveto
          -91 -29 -30 -42 vhcurveto
          -58 -16 47 -20 hhcurveto
          -19 1 -13 -3 -6 hvcurveto
          -9 -5 -11 -9 -12 vvcurveto
          -7 5 -9 5 -8 vhcurveto
          -33 27 55 -11 30 hhcurveto
          91 72 71 187 97 -7 71 -5 60 hvcurveto
          23 21 1 1 20 hvcurveto
          44 3 21 -30 callsubr
          rrcurveto
          5 1 4 6 4 vvcurveto
          endchar
        </CharString>
        <CharString name="four">
          241 458 268 rmoveto
          -74 callgsubr
          4 3 vvcurveto
          3 -2 2 -4 -1 -2 0 -1 -2 vhcurveto
          -7 -2 -11 -3 -16 -3 1 93 2 65 5 51 11 105 8 43 47 50 rrcurveto
          3 3 2 4 3 vvcurveto
          3 -2 2 -5 -3 -47 callgsubr
          -5 vhcurveto
          -100 -58 -30 -97 -3 -52 -3 -23 -2 -99 -3 -99 rrcurveto
          -1 -9 -9 0 -9 hhcurveto
          -54 -96 8 8 -53 hvcurveto
          37 39 72 87 10 120 rrcurveto
          4 35 2 28 21 vvcurveto
          43 -10 24 -25 vhcurveto
          -4 hlineto
          -12 -7 14 -13 -7 -5 2 -4 hhcurveto
          -5 -6 -4 -20 hvcurveto
          -15 4 -19 -43 vvcurveto
          -212 -113 -112 -8 -16 vhcurveto
          1 callgsubr
          -3 -3 vvcurveto
          -11 8 -10 15 vhcurveto
          5 8 2 20 36 66 -3 63 hhcurveto
          24 24 1 1 23 hvcurveto
          27 3 rlineto
          -3 -109 -2 -101 -9 vvcurveto
          -11 1 -2 4 10 14 25 5 24 vhcurveto
          31 6 2 31 17 vvcurveto
          64 0 56 1 49 vhcurveto
          21 8 12 9 4 3 rrcurveto
          endchar
        </CharString>
        <CharString name="fraction">
          -131 287 -84 callsubr
          endchar
        </CharString>
        <CharString name="g">
          -97 callgsubr
          endchar
        </CharString>
        <CharString name="gbreve">
          -97 callgsubr
          76 169 -97 callsubr
        </CharString>
        <CharString name="gcircumflex">
          -97 callgsubr
          78 69 rmoveto
          -8 8 -46 54 -24 42 rrcurveto
          9 -5 -4 3 -7 hhcurveto
          -5 -4 -3 -5 -5 hvcurveto
          -51 -67 -24 -23 -11 -13 rrcurveto
          -3 -4 -2 -3 -31 callsubr
          -2 5 2 3 -70 callsubr
          vhcurveto
          15 6 46 26 24 24 38 -43 37 -13 11 -3 rrcurveto
          -1 3 -51 callgsubr
          hhcurveto
          -74 callgsubr
          3 2 -66 callsubr
          hvcurveto
          endchar
        </CharString>
        <CharString name="gcommaaccent">
          -97 callgsubr
          -61 110 rmoveto
          2 -5 25 -43 3 -3 14 callsubr
          -2 2 hhcurveto
          4 1 -31 callgsubr
          42 38 rlineto
          3 -65 callsubr
          3 vvcurveto
          2 -1 10 callgsubr
          vhcurveto
          -3 3 -21 23 38 vvcurveto
          12 5 14 7 16 vhcurveto
          1 -61 callgsubr
          1 24 callsubr
          -4 -1 -1 -3 -3 vhcurveto
          -20 -15 -26 -46 -13 -31 rrcurveto
          -4 -8 -2 -6 -7 vvcurveto
          -2 1 -2 1 -2 vhcurveto
          endchar
        </CharString>
        <CharString name="gdotaccent">
          -97 callgsubr
          29 119 -94 callsubr
          5 -8 28 callsubr
          -11 rrcurveto
          -5 3 2 -3 5 hhcurveto
          9 callgsubr
          3 4 30 callsubr
          11 11 16 12 rrcurveto
          6 4 3 -67 callgsubr
          2 0 -83 callsubr
          endchar
        </CharString>
        <CharString name="germandbls">
          48 158 -9 rmoveto
          29 1 23 18 17 24 34 10 46 31 32 95 rrcurveto
          23 callsubr
          -5 -4 -8 -4 vhcurveto
          -20 -52 -22 -27 -13 -12 -8 -7 -7 -6 -6 -4 rrcurveto
          12 28 6 32 25 vvcurveto
          29 -10 28 -15 23 vhcurveto
          -53 85 -21 7 28 62 81 65 97 vvcurveto
          57 -48 18 -18 -12 -14 -6 -11 -17 vhcurveto
          -38 -23 -32 23 -32 -200 -10 -60 -15 -86 -11 -157 -4 -33 -3 -34 -1 -29 -3 -32 18 -8 13 -3 rrcurveto
          -3 19 6 18 7 hhcurveto
          7 1 7 0 7 vvcurveto
          3 13 -8 10 13 120 16 180 12 58 5 54 rrcurveto
          50 8 19 116 21 hhcurveto
          5 28 -10 -36 hvcurveto
          -59 -70 -123 -72 -127 99 -25 -95 vvcurveto
          -3 -1 -6 -1 -7 vhcurveto
          -1 -8 -8 -1 -9 hhcurveto
          -8 7 -7 14 -5 17 rrcurveto
          23 -9 -8 14 -8 hhcurveto
          -11 -27 -26 -45 -24 16 -38 38 hvcurveto
          endchar
        </CharString>
        <CharString name="grave">
          -32 175 386 rmoveto
          -7 9 -34 42 -13 56 rrcurveto
          7 -2 -48 callsubr
          hhcurveto
          -4 -2 -16 callsubr
          hvcurveto
          -4 -4 callsubr
          -4 -3 rrcurveto
          -20 -13 -4 -4 -9 vvcurveto
          -19 36 -42 62 -30 vhcurveto
          -1 2 2 0 1 hhcurveto
          4 -44 callsubr
          -60 callsubr
          hvcurveto
          endchar
        </CharString>
        <CharString name="greater">
          66 58 446 rmoveto
          -14 callsubr
          -2 -2 vvcurveto
          -5 5 -9 4 -4 -29 callgsubr
          82 -68 61 -29 -113 -70 -34 -98 -3 -10 -1 -5 rcurveline
          -5 3 -3 -11 callgsubr
          -4 callgsubr
          vhcurveto
          13 17 110 99 68 24 rrcurveto
          9 3 7 5 15 vvcurveto
          16 0 18 4 12 vhcurveto
          -57 callgsubr
          7 -10 6 -5 3 vhcurveto
          -7 2 -67 38 -94 92 rrcurveto
          7 -8 -7 6 -3 hhcurveto
          -9 6 -23 -3 -6 hvcurveto
          -13 -10 4 -20 -9 -9 rrcurveto
          endchar
        </CharString>
        <CharString name="greaterequal">
          66 62 421 rmoveto
          -1 -1 0 -2 -1 vvcurveto
          -5 4 -9 5 -5 -29 callgsubr
          80 -54 60 -24 -112 -69 -30 -77 -6 -11 -1 -6 rcurveline
          -5 4 -3 -11 callgsubr
          -4 callgsubr
          vhcurveto
          13 17 110 81 68 23 rrcurveto
          9 3 7 5 15 vvcurveto
          17 0 17 4 12 vhcurveto
          -57 callgsubr
          8 -9 5 -7 3 vhcurveto
          -7 3 -63 19 -98 90 rrcurveto
          8 -7 -7 6 -3 hhcurveto
          -8 4 -22 -5 -5 hvcurveto
          -13 -8 5 -20 -11 -11 rrcurveto
          229 -284 rmoveto
          -12 -12 -12 -103 -59 -41 5 14 callgsubr
          -30 callgsubr
          -4 -13 -2 -17 19 callgsubr
          1 -5 -12 callsubr
          -3 3 64 -13 82 hhcurveto
          99 11 14 12 hvcurveto
          0 0 7 4 vvcurveto
          1 8 2 0 5 5 -1 7 -6 callsubr
          0 1 1 5 -6 5 -7 hvcurveto
          endchar
        </CharString>
        <CharString name="guillemotleft">
          167 -79 callgsubr
          150 hmoveto
          -10 8 5 13 -10 10 rrcurveto
          3 -6 6 19 -7 hhcurveto
          -4 -3 -6 -5 -7 hvcurveto
          -78 -72 -50 -30 -6 -4 rrcurveto
          -5 -3 -8 -4 -5 -41 callsubr
          -11 0 -14 -12 vvcurveto
          -11 4 -3 9 -4 vhcurveto
          56 -20 86 -81 11 -11 14 callsubr
          -1 2 hhcurveto
          3 2 2 5 hvcurveto
          -1 5 -3 10 -27 73 -90 58 rlinecurve
          51 24 64 53 2 2 rrcurveto
          3 3 4 5 7 vvcurveto
          1 0 1 -1 1 vhcurveto
          endchar
        </CharString>
        <CharString name="guillemotright">
          167 62 270 rmoveto
          -1 -1 0 -1 -1 29 callsubr
          -5 4 -3 -29 callgsubr
          65 -52 49 -25 -83 callgsubr
          -7 6 -24 callgsubr
          150 hmoveto
          -1 -52 callsubr
          vvcurveto
          -7 4 -5 4 -3 -29 callgsubr
          64 -53 50 -24 -83 callgsubr
          -8 7 -24 callgsubr
          endchar
        </CharString>
        <CharString name="guilsinglleft">
          17 -79 callgsubr
          endchar
        </CharString>
        <CharString name="guilsinglright">
          17 62 270 rmoveto
          -1 -1 0 -1 -1 29 callsubr
          -5 4 -3 -29 callgsubr
          65 -52 49 -25 -83 callgsubr
          -7 6 -24 callgsubr
          endchar
        </CharString>
        <CharString name="h">
          -85 callgsubr
          endchar
        </CharString>
        <CharString name="hbar">
          17 172 477 rmoveto
          -15 callgsubr
          -6 -5 -21 -9 -7 -35 vhcurveto
          8 84 18 76 5 15 -58 callgsubr
          0 3 1 vvcurveto
          12 -9 3 -5 -7 -7 -6 -16 -17 vhcurveto
          -18 -18 -9 -2 -8 -19 -12 -28 -6 -51 -7 -64 rrcurveto
          -1 -9 -9 0 -8 -13 -7 2 -4 hhcurveto
          -7 -4 -3 -6 -1 hvcurveto
          -1 -8 -2 -8 11 callgsubr
          1 -3 2 -2 vhcurveto
          1 -1 24 -8 32 -4 rrcurveto
          -12 -129 -18 -202 -49 vvcurveto
          -34 16 -9 15 17 12 11 57 22 vhcurveto
          16 45 21 76 8 15 rrcurveto
          7 3 3 4 5 hhcurveto
          7 4 -6 -13 hvcurveto
          -16 -4 -35 -35 vvcurveto
          -39 3 -66 58 44 23 60 116 42 vhcurveto
          -89 callsubr
          -5 -4 -5 -3 -8 -3 vhcurveto
          -60 -23 -20 -49 -18 hhcurveto
          -11 -8 12 35 hvcurveto
          33 10 72 29 vvcurveto
          35 -12 25 -25 -13 -16 -9 -17 -12 vhcurveto
          -44 -36 -32 -126 -5 hhcurveto
          -1 0 3 5 12 11 139 16 141 hvcurveto
          50 3 14 10 11 vvcurveto
          -1 3 0 0 3 1 1 6 1 vvcurveto
          1 3 -1 6 3 1 4 1 2 9 4 7 rrcurveto
          endchar
        </CharString>
        <CharString name="hcircumflex">
          -85 callgsubr
          -92 533 rmoveto
          -8 8 -46 54 -24 42 rrcurveto
          9 -5 -4 3 -7 hhcurveto
          -5 -4 -3 -5 -5 hvcurveto
          -51 -67 -24 -23 -11 -13 rrcurveto
          -3 -4 -2 -3 -31 callsubr
          -2 5 2 3 -70 callsubr
          vhcurveto
          15 6 46 26 24 24 38 -43 37 -13 11 -3 rrcurveto
          -1 3 -51 callgsubr
          hhcurveto
          -74 callgsubr
          3 2 -66 callsubr
          hvcurveto
          endchar
        </CharString>
        <CharString name="hungarumlaut">
          -32 113 488 rmoveto
          -107 callgsubr
          80 hmoveto
          -9 8 -4 1 -7 5 -107 callgsubr
          endchar
        </CharString>
        <CharString name="hyphen">
          -74 callsubr
        </CharString>
        <CharString name="i">
          -95 126 510 rmoveto
          -3 8 -29 62 -4 7 rrcurveto
          5 -1 -3 2 -3 hhcurveto
          -2 -76 callsubr
          9 18 23 24 27 hvcurveto
          7 -25 callgsubr
          65 -325 rmoveto
          -6 -5 -30 callgsubr
          -65 callgsubr
          13 28 12 35 15 43 rrcurveto
          -80 callsubr
          endchar
        </CharString>
        <CharString name="iacute">
          -98 callgsubr
          -33 295 rmoveto
          -9 8 -4 1 -7 5 -107 callgsubr
          endchar
        </CharString>
        <CharString name="ibreve">
          -98 callgsubr
          -8 306 -97 callsubr
        </CharString>
        <CharString name="icircumflex">
          -98 callgsubr
          -17 206 rmoveto
          -8 8 -46 54 -24 42 rrcurveto
          9 -5 -4 3 -7 hhcurveto
          -5 -4 -3 -5 -5 hvcurveto
          -51 -67 -24 -23 -11 -13 rrcurveto
          -3 -4 -2 -3 -31 callsubr
          -2 5 2 3 -70 callsubr
          vhcurveto
          15 6 46 26 24 24 38 -43 37 -13 11 -3 rrcurveto
          -1 3 -51 callgsubr
          hhcurveto
          -74 callgsubr
          3 2 -66 callsubr
          hvcurveto
          endchar
        </CharString>
        <CharString name="idieresis">
          -98 callgsubr
          -132 256 -94 callsubr
          4 -7 6 -13 8 -12 rrcurveto
          -8 5 2 -7 7 hhcurveto
          -74 callgsubr
          4 5 hvcurveto
          9 5 6 8 15 11 rrcurveto
          7 -43 callsubr
          7 vvcurveto
          2 0 -83 callsubr
          124 hmoveto
          -3 5 -25 40 -2 -63 callsubr
          -1 -1 1 -19 callgsubr
          -2 -77 callgsubr
          hvcurveto
          -41 -38 rlineto
          -3 -77 callgsubr
          -3 vvcurveto
          -3 2 -59 callsubr
          4 -7 6 -13 8 -12 rrcurveto
          -8 5 2 -7 7 hhcurveto
          -74 callgsubr
          4 5 hvcurveto
          9 5 6 8 15 11 rrcurveto
          7 -43 callsubr
          7 vvcurveto
          2 0 -83 callsubr
          endchar
        </CharString>
        <CharString name="igrave">
          -98 callgsubr
          -91 207 rmoveto
          -7 9 -34 42 -13 56 rrcurveto
          7 -2 -48 callsubr
          hhcurveto
          -4 -2 -16 callsubr
          hvcurveto
          -4 -4 callsubr
          -4 -3 rrcurveto
          -20 -13 -4 -4 -9 vvcurveto
          -19 36 -42 62 -30 vhcurveto
          -1 2 2 0 1 hhcurveto
          4 -44 callsubr
          -60 callsubr
          hvcurveto
          endchar
        </CharString>
        <CharString name="ij">
          74 360 -62 callsubr
          -6 -5 -30 callgsubr
          -21 -53 -23 -59 -49 -41 -3 -2 rcurveline
          3 37 1 44 1 68 rrcurveto
          3 100 8 37 11 vvcurveto
          3 -1 2 -2 -12 -39 -28 -40 -21 vhcurveto
          -4 -21 -2 -28 -1 -20 -7 -10 rcurveline
          -65 callgsubr
          25 63 rcurveline
          -1 -47 -2 -57 -5 -65 -44 -36 -52 -56 -21 -69 rrcurveto
          -5 -16 -2 -15 -17 vvcurveto
          -48 18 -34 29 12 15 6 7 15 vhcurveto
          28 17 49 28 21 161 5 40 5 27 1 28 20 19 rcurveline
          37 37 25 30 35 103 rrcurveto
          -73 callgsubr
          vhcurveto
          -55 325 rmoveto
          -3 9 -30 61 -2 7 rrcurveto
          5 -2 -2 2 -3 hhcurveto
          -3 -76 callsubr
          10 18 23 24 26 hvcurveto
          8 7 4 6 6 vvcurveto
          -60 callsubr
          vhcurveto
          -179 hmoveto
          -3 8 -29 62 -4 7 rrcurveto
          5 -1 -3 2 -3 hhcurveto
          -2 -76 callsubr
          9 18 23 24 27 hvcurveto
          7 -25 callgsubr
          -19 -770 rmoveto
          77 27 51 35 40 vhcurveto
          -3 -37 rlineto
          -46 -8 -19 -120 -21 hhcurveto
          -5 -6 10 25 hvcurveto
          endchar
        </CharString>
        <CharString name="imacron">
          -98 callgsubr
          -7 298 -101 callgsubr
        </CharString>
        <CharString name="iogonek">
          -95 98 -179 rmoveto
          60 16 61 9 5 -46 callsubr
          -15 -10 -12 -17 -23 hhcurveto
          -21 -24 17 39 35 10 24 9 16 hvcurveto
          31 4 15 26 -12 callgsubr
          12 35 15 43 rrcurveto
          -89 callsubr
          -4 -6 -9 callgsubr
          -62 -24 -15 -46 -23 hhcurveto
          -23 -16 44 58 hvcurveto
          3 101 7 37 10 vvcurveto
          -72 callgsubr
          -11 -42 -28 -40 -19 vhcurveto
          -7 -44 -3 -42 -47 vvcurveto
          -91 35 -29 29 -5 vhcurveto
          -23 -27 -17 -35 -36 vvcurveto
          -42 33 -33 39 vhcurveto
          28 689 rmoveto
          -3 8 -29 62 -4 7 rrcurveto
          5 -1 -3 2 -3 hhcurveto
          -2 -76 callsubr
          9 18 23 24 27 hvcurveto
          7 -25 callgsubr
          endchar
        </CharString>
        <CharString name="itilde">
          -98 callgsubr
          -77 211 -99 callgsubr
        </CharString>
        <CharString name="j">
          -107 179 -45 callgsubr
          -24 -53 -20 -58 -52 -44 -84 callgsubr
          59 56 22 31 37 102 -13 callsubr
          -27 callsubr
          5 -2 3 -5 vhcurveto
          -54 325 rmoveto
          -5 8 -29 62 -2 7 rrcurveto
          5 22 callsubr
          -5 -7 -39 -41 -5 -8 rrcurveto
          -3 -5 -1 -4 -3 vvcurveto
          -7 16 -39 16 -30 vhcurveto
          -5 3 -51 callgsubr
          hhcurveto
          10 18 23 24 26 hvcurveto
          8 -25 callgsubr
          -140 -639 -53 callsubr
          endchar
        </CharString>
        <CharString name="jcircumflex">
          -107 179 -45 callgsubr
          -24 -53 -19 -59 -51 -41 -2 -2 rcurveline
          -84 callgsubr
          20 19 rcurveline
          38 38 22 29 38 103 -13 callsubr
          -27 callsubr
          5 -2 3 -5 vhcurveto
          -194 -314 -53 callsubr
          172 488 rmoveto
          -8 8 -46 54 -24 42 rrcurveto
          9 -5 -4 3 -7 hhcurveto
          -5 -4 -3 -5 -5 hvcurveto
          -51 -67 -24 -23 -11 -13 rrcurveto
          -3 -4 -2 -3 -31 callsubr
          -2 5 2 3 -70 callsubr
          vhcurveto
          15 6 46 26 24 24 38 -43 37 -13 11 -3 rrcurveto
          -1 3 -51 callgsubr
          hhcurveto
          -74 callgsubr
          3 2 -66 callsubr
          hvcurveto
          endchar
        </CharString>
        <CharString name="k">
          -87 callsubr
          endchar
        </CharString>
        <CharString name="kcommaaccent">
          -87 callsubr
          -130 -292 -28 callsubr
          -25 38 -2 7 -81 callsubr
          1 -19 callgsubr
          0 -1 -8 callsubr
          -42 -39 rlineto
          -3 -77 callgsubr
          -3 vvcurveto
          -78 callgsubr
          3 -3 -29 callgsubr
          22 -28 -34 vvcurveto
          -13 -5 -14 -7 -15 vhcurveto
          -82 callsubr
          3 4 -70 callsubr
          -18 callsubr
          17 26 43 13 32 -45 callsubr
          1 6 7 vvcurveto
          3 0 -83 callsubr
          endchar
        </CharString>
        <CharString name="kgreenlandic">
          23 309 -33 callgsubr
          -3 hvcurveto
          -53 -21 -25 -54 -24 hhcurveto
          -25 -27 18 44 -24 hvcurveto
          -12 21 -5 12 11 vvcurveto
          9 5 7 7 9 vhcurveto
          7 11 55 61 7 7 rrcurveto
          9 callgsubr
          -67 callgsubr
          6 -6 16 -8 -5 12 callgsubr
          -10 vhcurveto
          -19 -16 -1 -13 -5 -7 -7 -8 -21 -21 -23 -29 -14 -17 -4 -8 -11 -17 rrcurveto
          3 85 11 40 13 vvcurveto
          8 -4 5 -4 -4 15 callsubr
          vhcurveto
          -5 -8 -6 -5 -4 -3 -2 5 -5 hhcurveto
          -5 -6 -8 -4 -5 hvcurveto
          -5 -8 -13 -60 -3 -60 rrcurveto
          -1 -33 0 -22 -24 vvcurveto
          -8 0 -39 2 -7 vhcurveto
          -31 20 -9 12 20 2 17 2 9 vhcurveto
          5 1 8 1 7 23 -6 20 23 vvcurveto
          28 vlineto
          -109 51 57 -7 15 hhcurveto
          46 36 78 97 35 hvcurveto
          -80 callsubr
          endchar
        </CharString>
        <CharString name="l">
          -105 181 -33 callgsubr
          -4 hvcurveto
          -60 -21 -17 -47 -23 hhcurveto
          -21 -9 28 45 46 13 152 4 67 hvcurveto
          19 222 14 48 15 vvcurveto
          5 -2 2 -5 -11 -15 -19 -11 -11 vhcurveto
          -17 -15 -14 -10 -5 -23 -8 -43 -12 -118 -8 -80 rrcurveto
          -11 -129 -6 -106 -28 vvcurveto
          -101 45 -20 28 6 6 1 2 5 vhcurveto
          18 5 20 23 21 50 12 27 12 32 13 37 rrcurveto
          -80 callsubr
          endchar
        </CharString>
        <CharString name="lacute">
          -105 181 -33 callgsubr
          -4 hvcurveto
          -60 -21 -17 -47 -23 hhcurveto
          -21 -9 28 45 46 13 152 4 67 hvcurveto
          19 222 14 48 15 vvcurveto
          5 -2 2 -5 -11 -15 -19 -11 -11 vhcurveto
          -17 -15 -14 -10 -5 -23 -8 -43 -12 -118 -8 -80 rrcurveto
          -11 -129 -6 -106 -28 vvcurveto
          -101 45 -20 28 6 6 1 2 5 vhcurveto
          18 5 20 23 21 50 12 27 12 32 13 37 rrcurveto
          -80 callsubr
          5 653 rmoveto
          -9 8 -4 1 -7 5 -107 callgsubr
          endchar
        </CharString>
        <CharString name="lcaron">
          -37 181 -33 callgsubr
          -4 hvcurveto
          -60 -21 -17 -47 -23 hhcurveto
          -21 -9 28 45 46 13 152 4 67 hvcurveto
          19 222 14 48 15 vvcurveto
          5 -2 2 -5 -11 -15 -19 -11 -11 vhcurveto
          -17 -15 -14 -10 -5 -23 -8 -43 -12 -118 -8 -80 rrcurveto
          -11 -129 -6 -106 -28 vvcurveto
          -101 45 -20 28 6 6 1 2 5 vhcurveto
          18 5 20 23 21 50 12 27 12 32 13 37 rrcurveto
          -80 callsubr
          61 418 -28 callsubr
          -25 38 -2 7 -81 callsubr
          1 -19 callgsubr
          0 -1 -8 callsubr
          -42 -39 rlineto
          -3 -77 callgsubr
          -3 vvcurveto
          -78 callgsubr
          3 -3 -29 callgsubr
          22 -28 -34 vvcurveto
          -13 -5 -14 -7 -15 vhcurveto
          -82 callsubr
          3 4 -70 callsubr
          -18 callsubr
          17 26 43 13 32 -45 callsubr
          1 6 7 vvcurveto
          3 0 -83 callsubr
          endchar
        </CharString>
        <CharString name="lcommaaccent">
          -105 181 -33 callgsubr
          -4 hvcurveto
          -60 -21 -17 -47 -23 hhcurveto
          -21 -9 28 45 46 13 152 4 67 hvcurveto
          19 222 14 48 15 vvcurveto
          5 -2 2 -5 -11 -15 -19 -11 -11 vhcurveto
          -17 -15 -14 -10 -5 -23 -8 -43 -12 -118 -8 -80 rrcurveto
          -11 -129 -6 -106 -28 vvcurveto
          -101 45 -20 28 6 6 1 2 5 vhcurveto
          18 5 20 23 21 50 12 27 12 32 13 37 rrcurveto
          -80 callsubr
          -71 -292 -28 callsubr
          -25 38 -2 7 -81 callsubr
          1 -19 callgsubr
          0 -1 -8 callsubr
          -42 -39 rlineto
          -3 -77 callgsubr
          -3 vvcurveto
          -78 callgsubr
          3 -3 -29 callgsubr
          22 -28 -34 vvcurveto
          -13 -5 -14 -7 -15 vhcurveto
          -82 callsubr
          3 4 -70 callsubr
          -18 callsubr
          17 26 43 13 32 -45 callsubr
          1 6 7 vvcurveto
          3 0 -83 callsubr
          endchar
        </CharString>
        <CharString name="ldotaccent">
          -25 181 -33 callgsubr
          -4 hvcurveto
          -60 -21 -17 -47 -23 hhcurveto
          -21 -9 28 45 46 13 152 4 67 hvcurveto
          19 222 14 48 15 vvcurveto
          5 -2 2 -5 -11 -15 -19 -11 -11 vhcurveto
          -17 -15 -14 -10 -5 -23 -8 -43 -12 -118 -8 -80 rrcurveto
          -11 -129 -6 -106 -28 vvcurveto
          -101 45 -20 28 6 6 1 2 5 vhcurveto
          18 5 20 23 21 50 12 27 12 32 13 37 rrcurveto
          -80 callsubr
          44 114 rmoveto
          -2 7 -27 46 -6 8 rrcurveto
          3 -1 -3 2 -3 hhcurveto
          -3 -3 -2 -3 -3 -55 callgsubr
          -22 callsubr
          -3 3 -3 1 -4 vhcurveto
          5 -8 17 -33 6 -8 -36 callsubr
          -31 callgsubr
          1 32 25 7 9 hvcurveto
          -77 callsubr
          endchar
        </CharString>
        <CharString name="less">
          66 284 446 rmoveto
          -10 8 2 21 -10 10 rrcurveto
          3 -7 5 23 -8 hhcurveto
          -3 -6 -6 -7 -8 hvcurveto
          -95 -92 -67 -37 -6 -3 rrcurveto
          -7 -3 -8 -6 -7 -41 callsubr
          -12 1 -18 -16 31 callsubr
          -100 -1 callgsubr
          5 -5 10 -32 98 -115 70 rlinecurve
          63 29 81 68 2 2 rrcurveto
          5 4 5 9 5 vvcurveto
          2 -26 callgsubr
          1 vhcurveto
          endchar
        </CharString>
        <CharString name="lessequal">
          66 284 421 rmoveto
          -10 10 3 21 -11 8 rrcurveto
          5 -5 2 22 -7 hhcurveto
          -3 -6 -6 -8 -8 hvcurveto
          -97 -91 -64 -18 -7 -3 rrcurveto
          -7 -3 -8 -5 -8 -41 callsubr
          -12 1 -17 -17 31 callsubr
          -81 -1 callgsubr
          6 -6 12 -30 75 -113 70 rlinecurve
          62 23 79 55 2 2 rrcurveto
          5 5 5 9 5 vvcurveto
          1 -26 callgsubr
          1 vhcurveto
          7 -284 rmoveto
          -12 -12 -12 -103 -59 -41 5 14 callgsubr
          -30 callgsubr
          -4 -13 -2 -17 19 callgsubr
          1 -5 -12 callsubr
          -3 3 64 -13 82 hhcurveto
          99 11 14 12 hvcurveto
          0 0 7 4 vvcurveto
          1 8 2 0 5 5 -1 7 -6 callsubr
          0 1 1 5 -6 5 -7 hvcurveto
          endchar
        </CharString>
        <CharString name="logicalnot">
          66 286 400 rmoveto
          -10 -14 -11 -103 -58 -41 5 -4 hhcurveto
          -11 -2 -5 -7 -3 hvcurveto
          -5 -13 -1 -17 -8 vvcurveto
          -8 1 -5 -12 callsubr
          -4 4 63 -12 82 hhcurveto
          13 12 0 1 12 hvcurveto
          -52 1 6 -29 19 hhcurveto
          7 hlineto
          5 3 -3 7 4 7 2 7 4 -29 callsubr
          hhcurveto
          5 4 5 7 3 0 -51 callgsubr
          hvcurveto
          -5 14 -1 51 -3 41 rrcurveto
          1 2 0 2 2 5 -2 6 18 callgsubr
          -39 callsubr
          vhcurveto
          3 vlineto
          5 -5 4 -8 vhcurveto
          endchar
        </CharString>
        <CharString name="lslash">
          -105 177 317 rmoveto
          -5 8 -26 callgsubr
          7 rrcurveto
          5 -12 12 7 vvcurveto
          -1 3 -1 2 -2 1 -13 5 -6 -16 -48 -27 1 31 4 27 1 20 rrcurveto
          19 222 14 48 15 vvcurveto
          5 -2 2 -5 -11 -15 -19 -11 -11 vhcurveto
          -17 -15 -14 -10 -5 -23 -8 -43 -12 -118 -8 -80 -7 -86 rcurveline
          -24 -11 -23 -8 -11 -5 -17 -7 -4 -2 -1 -4 rrcurveto
          -5 vlineto
          1 -11 4 -7 5 -2 rrcurveto
          1 0 0 0 hvcurveto
          3 hlineto
          8 19 3 9 35 hvcurveto
          -4 -64 -2 -46 -17 vvcurveto
          -101 45 -20 28 6 6 1 2 5 vhcurveto
          18 5 20 23 21 50 12 27 12 32 13 37 rrcurveto
          22 callgsubr
          -6 -76 callgsubr
          vhcurveto
          -60 -23 -14 -47 -24 hhcurveto
          -21 -9 28 45 23 3 48 3 53 hvcurveto
          47 13 23 10 11 7 11 7 2 3 -30 callsubr
          4 0 3 -1 2 rrcurveto
          endchar
        </CharString>
        <CharString name="m">
          178 464 23 callgsubr
          -14 -45 -23 hhcurveto
          -13 -9 10 52 hvcurveto
          33 4 49 22 vvcurveto
          42 -8 33 -24 -13 -16 -11 -17 -13 vhcurveto
          -28 -43 -45 -127 0 vvcurveto
          -1 0 1 2 hvcurveto
          31 2 32 29 vvcurveto
          68 -5 35 -27 -13 -16 -11 -17 -13 vhcurveto
          -44 -29 -41 -126 -2 hhcurveto
          -1 0 3 5 13 4 60 3 55 hvcurveto
          1 16 3 19 5 vvcurveto
          8 -2 4 -4 -4 15 callsubr
          vhcurveto
          -5 -8 -6 7 callgsubr
          -2 4 -5 hhcurveto
          -5 -6 -7 -5 -5 hvcurveto
          -5 -8 -13 -46 -3 -59 rrcurveto
          -1 -33 0 -22 -24 vvcurveto
          -51 vlineto
          -29 20 -10 12 14 18 9 58 18 vhcurveto
          16 44 22 72 6 14 rrcurveto
          8 3 5 6 5 hhcurveto
          5 5 -6 -13 hvcurveto
          -19 -3 -50 -49 vvcurveto
          -32 vlineto
          -29 3 16 -10 13 hhcurveto
          16 15 11 56 19 hvcurveto
          44 127 rlineto
          7 3 3 7 7 hhcurveto
          5 5 -6 -13 hvcurveto
          -16 -3 -35 -35 vvcurveto
          -16 1 -15 1 -15 vhcurveto
          -47 6 25 -13 26 hhcurveto
          40 18 33 35 16 hvcurveto
          13 29 13 36 15 44 rrcurveto
          -73 callgsubr
          vhcurveto
          endchar
        </CharString>
        <CharString name="macron">
          -32 226 477 -101 callgsubr
        </CharString>
        <CharString name="micro">
          -88 callsubr
        </CharString>
        <CharString name="minus">
          66 291 371 rmoveto
          -12 -12 -11 -103 -59 -41 4 -67 callsubr
          -5 3 65 -11 81 hhcurveto
          99 11 12 13 hvcurveto
          11 vlineto
          1 8 2 -15 callsubr
          -1 7 18 callgsubr
          0 1 -24 callsubr
          4 -7 vhcurveto
          endchar
        </CharString>
        <CharString name="mu">
          -88 callsubr
        </CharString>
        <CharString name="multiply">
          66 302 408 rmoveto
          -8 4 -3 3 -3 7 -5 5 -18 7 -2 9 -81 callsubr
          1 -2 hhcurveto
          -7 -6 -8 -9 -8 hvcurveto
          -12 -19 -21 -31 -28 -36 rrcurveto
          59 -45 -24 48 -16 hhcurveto
          -37 callsubr
          -2 -1 hvcurveto
          -2 -10 -23 -4 -2 -5 rrcurveto
          -6 -12 -17 0 -13 vvcurveto
          -5 2 -6 5 -7 vhcurveto
          7 -13 35 -37 49 -45 -27 -32 -28 -31 -13 -10 rrcurveto
          -12 -13 -5 -8 -5 vvcurveto
          -2 1 -27 callgsubr
          vhcurveto
          -9 5 8 -6 5 hhcurveto
          1 14 -1 74 84 hvcurveto
          9 8 49 -43 30 -20 13 -8 rlinecurve
          -3 4 3 -2 2 hhcurveto
          7 7 5 12 9 hvcurveto
          1 1 2 1 vvcurveto
          4 -4 8 -12 13 vhcurveto
          -13 10 -27 29 -26 31 43 40 30 32 8 12 rrcurveto
          5 9 3 8 4 vvcurveto
          5 -2 4 -4 3 vhcurveto
          endchar
        </CharString>
        <CharString name="n">
          74 359 -33 callgsubr
          -3 hvcurveto
          -57 -23 -14 -51 -27 hhcurveto
          -9 -10 10 53 hvcurveto
          31 3 49 23 vvcurveto
          47 -10 30 -23 -17 -13 -10 -19 -12 vhcurveto
          -52 -32 -36 -117 -4 hhcurveto
          -1 -1 56 69 -1 hvcurveto
          43 -1 -17 20 -19 hhcurveto
          -28 -22 -38 -31 -10 hvcurveto
          -8 -16 -15 -38 -8 29 callsubr
          -2 0 callgsubr
          4 9 4 vhcurveto
          29 12 2 14 8 hhcurveto
          3 2 -7 -20 hvcurveto
          -13 -1 -17 -17 vvcurveto
          -37 1 -41 1 -33 vhcurveto
          -31 17 -9 12 15 19 11 58 18 vhcurveto
          17 44 23 72 5 16 rrcurveto
          7 3 3 7 7 hhcurveto
          5 5 -6 -12 hvcurveto
          -15 -4 -38 -34 vvcurveto
          -49 11 -56 55 45 25 60 115 40 vhcurveto
          1 -68 callsubr
          5 -4 3 -4 vhcurveto
          endchar
        </CharString>
        <CharString name="nacute">
          74 359 -33 callgsubr
          -3 hvcurveto
          -57 -23 -14 -51 -27 hhcurveto
          -9 -10 10 53 hvcurveto
          31 3 49 23 vvcurveto
          47 -10 30 -23 -17 -13 -10 -19 -12 vhcurveto
          -52 -32 -36 -117 -4 hhcurveto
          -1 -1 56 69 -1 hvcurveto
          43 -1 -17 20 -19 hhcurveto
          -28 -22 -38 -31 -10 hvcurveto
          -8 -16 -15 -38 -8 29 callsubr
          -2 0 callgsubr
          4 9 4 vhcurveto
          29 12 2 14 8 hhcurveto
          3 2 -7 -20 hvcurveto
          -13 -1 -17 -17 vvcurveto
          -37 1 -41 1 -33 vhcurveto
          -31 17 -9 12 15 19 11 58 18 vhcurveto
          17 44 23 72 5 16 rrcurveto
          7 3 3 7 7 hhcurveto
          5 5 -6 -12 hvcurveto
          -15 -4 -38 -34 vvcurveto
          -49 11 -56 55 45 25 60 115 40 vhcurveto
          1 -68 callsubr
          5 -4 3 -4 vhcurveto
          -123 280 rmoveto
          -9 8 -4 1 -7 5 -107 callgsubr
          endchar
        </CharString>
        <CharString name="napostrophe">
          74 359 -33 callgsubr
          -3 hvcurveto
          -57 -23 -14 -51 -27 hhcurveto
          -9 -10 10 53 hvcurveto
          31 3 49 23 vvcurveto
          47 -10 30 -23 -17 -13 -10 -19 -12 vhcurveto
          -52 -32 -36 -117 -4 hhcurveto
          -1 -1 56 69 -1 hvcurveto
          43 -1 -17 20 -19 hhcurveto
          -28 -22 -38 -31 -10 hvcurveto
          -8 -16 -15 -38 -8 29 callsubr
          -2 0 callgsubr
          4 9 4 vhcurveto
          29 12 2 14 8 hhcurveto
          3 2 -7 -20 hvcurveto
          -13 -1 -17 -17 vvcurveto
          -37 1 -41 1 -33 vhcurveto
          -31 17 -9 12 15 19 11 58 18 vhcurveto
          17 44 23 72 5 16 rrcurveto
          7 3 3 7 7 hhcurveto
          5 5 -6 -12 hvcurveto
          -15 -4 -38 -34 vvcurveto
          -49 11 -56 55 45 25 60 115 40 vhcurveto
          1 -68 callsubr
          5 -4 3 -4 vhcurveto
          -273 383 -28 callsubr
          -25 38 -2 7 -81 callsubr
          1 -19 callgsubr
          0 -1 -8 callsubr
          -42 -39 rlineto
          -3 -77 callgsubr
          -3 vvcurveto
          -78 callgsubr
          3 -3 -29 callgsubr
          22 -28 -34 vvcurveto
          -13 -5 -14 -7 -15 vhcurveto
          -82 callsubr
          3 4 -70 callsubr
          -18 callsubr
          17 26 43 13 32 -45 callsubr
          1 6 7 vvcurveto
          3 0 -83 callsubr
          endchar
        </CharString>
        <CharString name="nbspace">
          -96 endchar
        </CharString>
        <CharString name="ncaron">
          74 359 -33 callgsubr
          -3 hvcurveto
          -57 -23 -14 -51 -27 hhcurveto
          -9 -10 10 53 hvcurveto
          31 3 49 23 vvcurveto
          47 -10 30 -23 -17 -13 -10 -19 -12 vhcurveto
          -52 -32 -36 -117 -4 hhcurveto
          -1 -1 56 69 -1 hvcurveto
          43 -1 -17 20 -19 hhcurveto
          -28 -22 -38 -31 -10 hvcurveto
          -8 -16 -15 -38 -8 29 callsubr
          -2 0 callgsubr
          4 9 4 vhcurveto
          29 12 2 14 8 hhcurveto
          3 2 -7 -20 hvcurveto
          -13 -1 -17 -17 vvcurveto
          -37 1 -41 1 -33 vhcurveto
          -31 17 -9 12 15 19 11 58 18 vhcurveto
          17 44 23 72 5 16 rrcurveto
          7 3 3 7 7 hhcurveto
          5 5 -6 -12 hvcurveto
          -15 -4 -38 -34 vvcurveto
          -49 11 -56 55 45 25 60 115 40 vhcurveto
          1 -68 callsubr
          5 -4 3 -4 vhcurveto
          -298 293 -105 callsubr
        </CharString>
        <CharString name="ncommaaccent">
          74 359 -33 callgsubr
          -3 hvcurveto
          -57 -23 -14 -51 -27 hhcurveto
          -9 -10 10 53 hvcurveto
          31 3 49 23 vvcurveto
          47 -10 30 -23 -17 -13 -10 -19 -12 vhcurveto
          -52 -32 -36 -117 -4 hhcurveto
          -1 -1 56 69 -1 hvcurveto
          43 -1 -17 20 -19 hhcurveto
          -28 -22 -38 -31 -10 hvcurveto
          -8 -16 -15 -38 -8 29 callsubr
          -2 0 callgsubr
          4 9 4 vhcurveto
          29 12 2 14 8 hhcurveto
          3 2 -7 -20 hvcurveto
          -13 -1 -17 -17 vvcurveto
          -37 1 -41 1 -33 vhcurveto
          -31 17 -9 12 15 19 11 58 18 vhcurveto
          17 44 23 72 5 16 rrcurveto
          7 3 3 7 7 hhcurveto
          5 5 -6 -12 hvcurveto
          -15 -4 -38 -34 vvcurveto
          -49 11 -56 55 45 25 60 115 40 vhcurveto
          1 -68 callsubr
          5 -4 3 -4 vhcurveto
          -150 -292 -28 callsubr
          -25 38 -2 7 -81 callsubr
          1 -19 callgsubr
          0 -1 -8 callsubr
          -42 -39 rlineto
          -3 -77 callgsubr
          -3 vvcurveto
          -78 callgsubr
          3 -3 -29 callgsubr
          22 -28 -34 vvcurveto
          -13 -5 -14 -7 -15 vhcurveto
          -82 callsubr
          3 4 -70 callsubr
          -18 callsubr
          17 26 43 13 32 -45 callsubr
          1 6 7 vvcurveto
          3 0 -83 callsubr
          endchar
        </CharString>
        <CharString name="nine">
          212 463 408 rmoveto
          204 -101 82 -125 -128 -85 -111 -139 -156 89 -65 76 109 32 96 19 11 -3 4 -4 -5 -2 -6 -5 -4 vhcurveto
          -13 -5 -30 -41 -47 hhcurveto
          -45 -68 28 172 124 58 44 53 62 79 -56 -171 -296 -226 -105 -18 -14 hvcurveto
          -7 -18 callgsubr
          -7 vvcurveto
          -4 3 -4 7 2 3 0 1 4 vhcurveto
          141 36 187 152 225 vvcurveto
          endchar
        </CharString>
        <CharString name="notequal">
          66 284 306 rmoveto
          5 -4 3 -7 -5 -14 -9 -3 -62 vhcurveto
          8 17 7 13 5 14 5 13 rlinecurve
          45 5 20 9 11 -38 callsubr
          2 vlineto
          5 -4 4 -7 -5 -14 -6 -7 -21 vhcurveto
          13 41 8 30 4 vvcurveto
          8 28 callgsubr
          vhcurveto
          -8 0 -9 -5 -4 -9 8 -7 -5 0 -4 -14 callsubr
          1 -48 callgsubr
          -7 -13 -3 hvcurveto
          -4 -20 -7 -24 -9 -32 rrcurveto
          -3 -30 -37 -1 -27 -44 callgsubr
          14 hlineto
          -13 -35 -7 -19 rlineto
          -23 -19 1 1 -14 hvcurveto
          -21 -26 callsubr
          1 -3 27 -6 40 -4 -24 -59 -18 -39 -5 -9 rrcurveto
          -82 callsubr
          5 6 6 4 7 6 vhcurveto
          8 8 29 44 29 55 rrcurveto
          11 hlineto
          -42 callgsubr
        </CharString>
        <CharString name="ntilde">
          74 359 -33 callgsubr
          -3 hvcurveto
          -57 -23 -14 -51 -27 hhcurveto
          -9 -10 10 53 hvcurveto
          31 3 49 23 vvcurveto
          47 -10 30 -23 -17 -13 -10 -19 -12 vhcurveto
          -52 -32 -36 -117 -4 hhcurveto
          -1 -1 56 69 -1 hvcurveto
          43 -1 -17 20 -19 hhcurveto
          -28 -22 -38 -31 -10 hvcurveto
          -8 -16 -15 -38 -8 29 callsubr
          -2 0 callgsubr
          4 9 4 vhcurveto
          29 12 2 14 8 hhcurveto
          3 2 -7 -20 hvcurveto
          -13 -1 -17 -17 vvcurveto
          -37 1 -41 1 -33 vhcurveto
          -31 17 -9 12 15 19 11 58 18 vhcurveto
          17 44 23 72 5 16 rrcurveto
          7 3 3 7 7 hhcurveto
          5 5 -6 -12 hvcurveto
          -15 -4 -38 -34 vvcurveto
          -49 11 -56 55 45 25 60 115 40 vhcurveto
          1 -68 callsubr
          5 -4 3 -4 vhcurveto
          -167 196 -99 callgsubr
        </CharString>
        <CharString name="numbersign">
          101 327 516 rmoveto
          -28 callgsubr
          -12 1 8 -5 7 callsubr
          -3 -44 -8 -55 rrcurveto
          -60 hlineto
          18 101 rlineto
          -28 callgsubr
          -13 4 8 -7 7 callsubr
          -5 -44 -5 -55 rrcurveto
          -52 hlineto
          -5 -2 -2 -5 -1 hvcurveto
          -3 -7 1 -6 0 vvcurveto
          -4 1 -2 3 vhcurveto
          55 hlineto
          -5 -35 -4 -37 -4 -36 rrcurveto
          -56 hlineto
          -5 31 callgsubr
          -1 hvcurveto
          -1 -7 0 -6 -1 vvcurveto
          -3 1 -2 3 vhcurveto
          59 hlineto
          -17 8 callgsubr
          5 hvcurveto
          7 11 60 14 70 vhcurveto
          70 hlineto
          -16 8 callgsubr
          4 hvcurveto
          2 7 10 60 14 70 rrcurveto
          46 hlineto
          5 2 2 5 1 hvcurveto
          4 12 -1 1 1 vvcurveto
          3 -1 2 -3 vhcurveto
          -48 hlineto
          19 108 rlineto
          42 hlineto
          5 2 2 5 1 hvcurveto
          4 12 -1 1 1 vvcurveto
          3 -1 2 -3 vhcurveto
          -44 hlineto
          -139 -26 rmoveto
          62 hlineto
          -12 -108 rlineto
          -69 hlineto
          endchar
        </CharString>
        <CharString name="o">
          -104 callgsubr
          endchar
        </CharString>
        <CharString name="oacute">
          -104 callgsubr
          65 296 rmoveto
          -9 8 -4 1 -7 5 -107 callgsubr
          endchar
        </CharString>
        <CharString name="obreve">
          -104 callgsubr
          90 307 -97 callsubr
        </CharString>
        <CharString name="ocircumflex">
          -104 callgsubr
          81 207 rmoveto
          -8 8 -46 54 -24 42 rrcurveto
          9 -5 -4 3 -7 hhcurveto
          -5 -4 -3 -5 -5 hvcurveto
          -51 -67 -24 -23 -11 -13 rrcurveto
          -3 -4 -2 -3 -31 callsubr
          -2 5 2 3 -70 callsubr
          vhcurveto
          15 6 46 26 24 24 38 -43 37 -13 11 -3 rrcurveto
          -1 3 -51 callgsubr
          hhcurveto
          -74 callgsubr
          3 2 -66 callsubr
          hvcurveto
          endchar
        </CharString>
        <CharString name="odieresis">
          -104 callgsubr
          -34 257 -94 callsubr
          4 -7 6 -13 8 -12 rrcurveto
          -8 5 2 -7 7 hhcurveto
          -74 callgsubr
          4 5 hvcurveto
          9 5 6 8 15 11 rrcurveto
          7 -43 callsubr
          7 vvcurveto
          2 0 -83 callsubr
          124 hmoveto
          -3 5 -25 40 -2 -63 callsubr
          -1 -1 1 -19 callgsubr
          -2 -77 callgsubr
          hvcurveto
          -41 -38 rlineto
          -3 -77 callgsubr
          -3 vvcurveto
          -3 2 -59 callsubr
          4 -7 6 -13 8 -12 rrcurveto
          -8 5 2 -7 7 hhcurveto
          -74 callgsubr
          4 5 hvcurveto
          9 5 6 8 15 11 rrcurveto
          7 -43 callsubr
          7 vvcurveto
          2 0 -83 callsubr
          endchar
        </CharString>
        <CharString name="oe">
          125 79 -7 rmoveto
          39 28 18 27 23 hvcurveto
          -37 19 37 -12 25 hhcurveto
          52 39 37 43 27 hvcurveto
          17 30 -22 callgsubr
          -50 callgsubr
          -16 callsubr
          -8 -4 vhcurveto
          -45 -21 -34 -86 -59 hhcurveto
          -21 -21 16 36 -12 hvcurveto
          56 21 63 78 63 vvcurveto
          36 -22 19 -24 vhcurveto
          -25 1 -30 -22 -28 -31 rrcurveto
          32 -8 -14 26 -40 hhcurveto
          -55 -22 -63 -44 -66 29 -30 38 -22 hvcurveto
          -33 -7 -14 -24 -24 hhcurveto
          -31 -20 38 65 hvcurveto
          67 24 32 14 vvcurveto
          9 -3 5 -7 -7 -13 -7 -17 -13 vhcurveto
          -36 -44 -14 -48 -41 vvcurveto
          -101 61 -14 35 vhcurveto
          142 169 rmoveto
          58 24 33 12 11 14 -16 -25 -36 -15 -38 -43 -19 vhcurveto
          -2 13 -1 14 16 vvcurveto
          -64 16 rmoveto
          -19 0 -21 -4 -19 vhcurveto
          -27 12 -15 35 45 vvcurveto
          24 9 32 14 15 8 -25 -64 vhcurveto
          endchar
        </CharString>
        <CharString name="ogonek">
          -32 120 -189 rmoveto
          60 16 62 8 5 -46 callsubr
          -15 -10 -12 -16 -23 24 callgsubr
          56 27 30 5 9 hvcurveto
          1 2 11 callsubr
          vvcurveto
          3 -1 2 -3 21 callsubr
          -2 -2 vhcurveto
          -37 -26 -33 -50 -49 vvcurveto
          -42 33 -33 39 vhcurveto
          endchar
        </CharString>
        <CharString name="ograve">
          -104 callgsubr
          7 208 rmoveto
          -7 9 -34 42 -13 56 rrcurveto
          7 -2 -48 callsubr
          hhcurveto
          -4 -2 -16 callsubr
          hvcurveto
          -4 -4 callsubr
          -4 -3 rrcurveto
          -20 -13 -4 -4 -9 vvcurveto
          -19 36 -42 62 -30 vhcurveto
          -1 2 2 0 1 hhcurveto
          4 -44 callsubr
          -60 callsubr
          hvcurveto
          endchar
        </CharString>
        <CharString name="ohungarumlaut">
          -104 callgsubr
          10 310 rmoveto
          -107 callgsubr
          80 hmoveto
          -9 8 -4 1 -7 5 -107 callgsubr
          endchar
        </CharString>
        <CharString name="omacron">
          -104 callgsubr
          91 299 -101 callgsubr
        </CharString>
        <CharString name="one">
          27 208 42 rmoveto
          53 21 521 18 vvcurveto
          17 -3 10 -9 5 vhcurveto
          -36 15 rlineto
          4 -8 -4 2 -7 hhcurveto
          -9 -8 -5 -8 -7 hvcurveto
          -10 -13 -20 -79 -93 -72 rrcurveto
          -3 -3 -22 callsubr
          -4 3 -4 7 3 -61 callgsubr
          4 vhcurveto
          40 17 43 33 31 33 rrcurveto
          -15 vlineto
          -11 -237 -4 -138 -3 -81 rrcurveto
          -1 -47 -1 -33 -20 vvcurveto
          -8 1 3 -4 5 hhcurveto
          3 -61 callgsubr
          4 hvcurveto
          22 8 5 2 16 5 rrcurveto
          19 5 3 7 16 vvcurveto
          endchar
        </CharString>
        <CharString name="onehalf">
          459 686 284 rmoveto
          106 -89 27 -58 -67 -80 -38 -92 -83 80 -13 13 -3 vhcurveto
          -1 1 8 0 1 hhcurveto
          5 4 1 4 4 0 0 -3 3 hvcurveto
          -29 31 -12 33 31 vvcurveto
          68 38 20 29 61 18 -59 -52 -31 -8 -32 -19 -29 vhcurveto
          -38 -54 -73 -49 -39 -28 -10 -6 rcurveline
          -25 -14 -6 -18 -7 vvcurveto
          -4 3 -5 5 4 11 6 5 9 vhcurveto
          3 11 13 2 15 34 46 -16 34 hhcurveto
          71 30 56 12 6 hvcurveto
          2 4 1 3 3 vvcurveto
          4 0 6 -7 21 callsubr
          -3 -3 vhcurveto
          -13 -15 -29 -4 -35 -16 -17 1 -19 hhcurveto
          -15 -14 -1 -1 -15 hvcurveto
          113 78 79 40 106 vvcurveto
          -183 377 -71 callsubr
          -341 -361 -80 callgsubr
        </CharString>
        <CharString name="onequarter">
          451 503 661 -71 callsubr
          156 -504 rmoveto
          4 -6 callgsubr
          vhcurveto
          -1 -2 -1 -1 hhcurveto
          -4 -1 -9 -2 -13 -1 rrcurveto
          56 2 38 3 31 vhcurveto
          8 63 0 26 30 30 rrcurveto
          3 -61 callgsubr
          1 vvcurveto
          3 -78 callgsubr
          -1 -6 -1 -1 -4 vhcurveto
          -65 -36 -26 -57 -3 -32 rrcurveto
          -16 -5 -54 -60 vvcurveto
          -8 hlineto
          -34 -56 5 5 -32 hvcurveto
          22 25 47 46 8 72 rrcurveto
          3 23 0 16 12 vvcurveto
          27 -6 14 -17 vhcurveto
          -2 hlineto
          -8 -18 8 -8 -4 -4 2 -3 hhcurveto
          -3 -4 -3 -12 hvcurveto
          -9 3 -11 -27 vvcurveto
          -127 -69 -68 -5 -10 vhcurveto
          -1 -1 0 -2 -2 vvcurveto
          -7 6 -10 9 vhcurveto
          4 5 1 12 25 41 -1 41 hhcurveto
          17 15 0 1 14 hvcurveto
          9 hlineto
          -3 -126 rlineto
          -5 1 -3 2 6 24 15 3 14 vhcurveto
          21 3 4 20 9 vvcurveto
          101 vlineto
          16 5 9 6 3 3 rrcurveto
          -497 143 -80 callgsubr
        </CharString>
        <CharString name="onesuperior">
          -49 163 256 rmoveto
          36 15 345 13 vvcurveto
          12 -2 6 -7 3 vhcurveto
          -8 4 -19 5 -9 3 rrcurveto
          3 -5 -4 1 -4 hhcurveto
          -8 -6 -4 -5 -4 hvcurveto
          -5 -7 -17 -55 -66 -48 rrcurveto
          -37 callsubr
          -2 -2 vvcurveto
          -3 2 -7 5 3 -39 callsubr
          vhcurveto
          29 11 32 23 21 21 rrcurveto
          -9 vlineto
          -5 -159 -7 -93 -51 vvcurveto
          -1 -31 -1 -21 -13 vvcurveto
          -5 2 -3 -74 callgsubr
          -65 callsubr
          vhcurveto
          17 7 9 -1 11 3 13 4 9 callgsubr
          11 rrcurveto
          endchar
        </CharString>
</ttFont>
